<?xml version='1.0' encoding='utf-8'?>
<svg xmlns="http://www.w3.org/2000/svg" id="Layer_1" version="1.1" viewBox="562.99 500.68 489.29 320.80">
  
  <g isolation="isolate">
    <path d="M657.89,749.53c2.38,0,4.26.51,5.65,1.53,1.39,1.02,2.09,2.47,2.09,4.36,0,1.21-.3,2.3-.9,3.29-.6.99-1.4,1.92-2.39,2.8-.99.88-2.05,1.71-3.17,2.48-1.13.77-2.22,1.54-3.27,2.29-1.05.76-1.95,1.54-2.69,2.34h10.01c1.27,0,2.07-.15,2.41-.46.34-.31.57-.85.7-1.62h.97c0,2.07.02,3.68.05,4.82.03,1.14.08,2.15.14,3.01-.28-.06-.79-.11-1.53-.14-.74-.03-1.59-.05-2.55-.07-.96-.02-1.9-.02-2.83-.02h-13.49v-.88c.86-.93,1.93-1.95,3.2-3.06,1.27-1.11,2.51-2.35,3.73-3.71,1.22-1.36,2.25-2.84,3.08-4.43.83-1.59,1.25-3.3,1.25-5.12,0-1.67-.37-2.87-1.11-3.61-.74-.74-1.81-1.11-3.2-1.11s-2.5.3-3.5.9c-1,.6-1.91,1.49-2.71,2.66l-.79-.46c.62-1.05,1.4-2.02,2.34-2.9.94-.88,2.11-1.58,3.5-2.11,1.39-.52,3.06-.79,5-.79Z" fill="#a51e23" />
    <path d="M682.27,749.53c3.37,0,6.02,1.11,7.97,3.34,1.95,2.22,2.92,5.38,2.92,9.46,0,2.47-.39,4.69-1.18,6.65-.79,1.96-1.84,3.66-3.15,5.1-1.31,1.44-2.77,2.64-4.36,3.62-1.59.97-3.21,1.75-4.87,2.32-1.65.57-3.21.97-4.66,1.18l-.19-.93c1.36-.4,2.71-.94,4.06-1.62,1.34-.68,2.56-1.66,3.66-2.94,1.1-1.28,1.99-3.02,2.67-5.21.68-2.19,1.02-4.99,1.02-8.39,0-3-.22-5.34-.67-7.02-.45-1.68-1-2.87-1.67-3.57-.67-.7-1.35-1.04-2.06-1.04s-1.33.32-1.95.95c-.62.63-1.12,1.66-1.51,3.08-.39,1.42-.58,3.31-.58,5.65,0,2.19.18,3.96.53,5.31.35,1.34.83,2.31,1.44,2.9.6.59,1.26.88,1.97.88.52,0,1.11-.15,1.76-.46.65-.31,1.25-.82,1.81-1.53.56-.71.96-1.65,1.21-2.83l.42.19c-.19,1.48-.64,2.66-1.37,3.52-.73.87-1.6,1.49-2.62,1.88s-2.04.58-3.06.58c-1.64,0-3.15-.4-4.52-1.21-1.38-.8-2.48-1.96-3.31-3.45-.83-1.5-1.25-3.3-1.25-5.4,0-2.38.53-4.39,1.6-6.03,1.07-1.64,2.47-2.87,4.22-3.71,1.75-.84,3.65-1.25,5.72-1.25Z" fill="#a51e23" />
    <path d="M696.08,749.99c.28.06.79.11,1.53.14.74.03,1.59.05,2.55.07s1.9.02,2.83.02h13.07v.97c-.59,1.39-1.34,2.88-2.25,4.47-.91,1.59-1.82,3.32-2.73,5.19-.91,1.87-1.67,3.88-2.27,6.02-.6,2.15-.9,4.47-.9,6.97,0,.19.02.53.07,1.02s.08,1,.12,1.51c.03.51.05.92.05,1.23,0,.87-.28,1.65-.83,2.34-.56.7-1.41,1.04-2.55,1.04s-1.99-.39-2.55-1.16c-.56-.77-.83-1.75-.83-2.92,0-1.7.31-3.38.93-5.05s1.42-3.31,2.41-4.94c.99-1.62,2.05-3.21,3.2-4.75,1.14-1.54,2.26-3.03,3.36-4.45s2.05-2.77,2.85-4.03l-1.07,2.13h-12.7c-1.27,0-2.07.15-2.41.46-.34.31-.57.85-.7,1.62h-.97c0-2.04-.02-3.65-.05-4.84-.03-1.19-.08-2.22-.14-3.08Z" fill="#a51e23" />
  </g>
  <g isolation="isolate">
    <path d="M605.16,807.04c-.55,0-1.02-.12-1.43-.37-.41-.25-.72-.6-.94-1.07-.22-.47-.33-1.02-.33-1.66s.11-1.17.34-1.63c.22-.46.54-.81.95-1.07s.9-.39,1.49-.39c.49,0,.91.1,1.28.29.37.2.65.5.84.91s.28.94.26,1.6h-4.41v-.45s3.28,0,3.28,0c.02-.36-.01-.68-.11-.97-.1-.29-.24-.52-.44-.69-.2-.17-.45-.26-.76-.26-.38,0-.72.16-1.01.49-.29.33-.47.84-.52,1.55h.03c0,.09-.02.17-.02.27,0,.09-.01.19-.01.29,0,.81.16,1.43.47,1.86.31.44.76.66,1.34.66.39,0,.73-.09,1.03-.28s.55-.48.75-.88l.4.25c-.2.49-.52.87-.96,1.14s-.95.41-1.52.41Z" fill="#0d1a1e" />
    <path d="M611.77,807.04c-.33,0-.6-.04-.83-.11-.22-.07-.41-.14-.56-.21-.15-.06-.27-.1-.37-.1-.17,0-.3.12-.39.35h-.43c.02-.17.03-.37.03-.59,0-.22.01-.46.01-.74s0-.6-.01-.96h.44c.11.64.32,1.11.65,1.42.33.31.76.47,1.3.47.4,0,.71-.09.93-.26.22-.18.33-.42.33-.73s-.11-.54-.34-.72-.62-.35-1.18-.49c-.68-.21-1.18-.46-1.5-.76-.31-.3-.47-.69-.47-1.16s.16-.88.48-1.17c.32-.29.75-.44,1.29-.44.31,0,.57.03.77.1s.38.14.52.21c.14.07.27.1.39.1.08,0,.14-.03.19-.08.05-.05.09-.14.13-.26h.44c-.02.16-.03.33-.03.51,0,.18-.01.39-.02.62,0,.23,0,.5,0,.82h-.43c-.08-.49-.28-.87-.61-1.16-.33-.29-.72-.43-1.18-.43-.34,0-.6.08-.78.23-.18.15-.27.37-.27.66s.12.53.36.72.66.38,1.25.55c.68.19,1.16.43,1.45.71.29.28.44.66.44,1.13,0,.54-.18.97-.55,1.28-.37.32-.87.47-1.5.47Z" fill="#0d1a1e" />
    <path d="M614.83,801.48v-.45h4.47v.45h-4.47ZM616.21,803.96v-4.68c.22,0,.42-.02.6-.05.18-.02.35-.06.51-.11v4.84h-1.1ZM617.92,807.04c-.58,0-1.01-.16-1.29-.49-.28-.33-.42-.83-.42-1.52v-1.07h1.1v1.4c0,.37.07.63.21.8.14.17.36.26.67.26.27,0,.49-.09.67-.26.18-.17.32-.43.42-.77l.35.1c-.12.52-.32.91-.6,1.17s-.65.38-1.11.38Z" fill="#0d1a1e" />
    <path d="M621.65,803.96v-1.5c0-.34-.06-.58-.19-.72-.13-.14-.36-.22-.68-.26h-.4v-.46c.15,0,.29.01.41.02s.25,0,.38,0c.33,0,.62-.01.88-.04.26-.03.5-.07.7-.12v3.08h-1.09ZM621.22,806.85c-.28,0-.57.02-.85.02v-.45l.41-.02c.32-.03.54-.11.67-.25.13-.13.19-.36.19-.69v-1.52h1.09v1.52c0,.33.06.56.19.69.13.13.36.21.68.25l.39.02v.45c-.28,0-.56-.02-.84-.02-.28,0-.6-.01-.97-.01s-.69,0-.97.01ZM622.19,799.68c-.22,0-.41-.07-.56-.22-.15-.15-.23-.34-.23-.56,0-.21.08-.39.23-.55s.34-.23.56-.23.4.07.55.22c.15.15.22.33.22.55s-.08.41-.23.56c-.15.15-.34.23-.56.23Z" fill="#0d1a1e" />
    <path d="M626.15,803.96v-1.5c0-.34-.06-.58-.19-.72-.13-.14-.36-.22-.68-.26h-.4v-.46c.15,0,.29.01.41.02s.25,0,.38,0c.33,0,.62-.01.88-.04.26-.03.5-.07.7-.12v3.08h-1.09ZM625.72,806.85c-.28,0-.57.02-.85.02v-.45l.41-.02c.32-.03.54-.11.67-.25.13-.13.19-.36.19-.69v-1.52h1.09v1.52c0,.32.06.55.17.7.11.14.31.23.59.25h.15v.46c-.24,0-.48-.02-.7-.02s-.48-.01-.76-.01c-.36,0-.69,0-.97.01ZM629.87,803.96v-1.08c0-.47-.1-.83-.29-1.06-.19-.24-.47-.36-.84-.36-.4,0-.74.13-1.04.38-.3.26-.56.64-.77,1.16l-.07-.27c.23-.63.53-1.1.91-1.41.38-.31.83-.46,1.36-.46.59,0,1.05.18,1.36.54.32.36.47.88.47,1.57v1h-1.09ZM629.67,806.85c-.23,0-.46.02-.7.02v-.45h.15c.27-.03.47-.12.58-.26.11-.14.17-.38.17-.7v-1.52h1.09v1.52c0,.32.06.55.17.7.11.14.31.23.6.25h.12v.46c-.24,0-.46-.02-.68-.02s-.47-.01-.76-.01c-.27,0-.52,0-.75.01ZM633.61,803.96v-1.08c0-.47-.1-.83-.29-1.06-.19-.24-.49-.36-.9-.36-.38,0-.72.12-1.03.35-.3.23-.57.58-.8,1.05l-.13-.24c.24-.59.55-1.04.95-1.33.4-.29.86-.44,1.4-.44.62,0,1.08.18,1.4.54.32.36.48.88.48,1.57v1h-1.09ZM633.39,806.85c-.23,0-.46.02-.68.02v-.45h.11c.29-.03.49-.12.6-.26.11-.14.17-.38.17-.7v-1.52h1.09v1.52c0,.33.06.56.19.69s.36.21.68.25l.42.02v.45c-.3,0-.6-.02-.88-.02-.28,0-.6-.01-.97-.01-.27,0-.52,0-.75.01Z" fill="#0d1a1e" />
    <path d="M638.79,807.04c-.51,0-.92-.13-1.22-.4-.3-.27-.46-.63-.46-1.09,0-.36.09-.64.26-.87s.4-.39.66-.53c.27-.13.55-.24.85-.32.3-.09.59-.16.86-.23s.49-.15.67-.27c.17-.11.27-.27.27-.46l.05.57c-.06.14-.18.26-.37.35-.19.09-.4.18-.63.26-.23.08-.46.17-.68.27-.22.1-.4.24-.55.41-.14.17-.22.4-.22.69s.08.5.25.67c.17.16.4.25.7.25s.57-.08.83-.24c.25-.16.48-.39.69-.7l.02.47c-.24.4-.53.7-.85.88-.33.19-.71.28-1.14.28ZM640.66,803.96v-1.54c0-.38-.1-.66-.31-.84s-.53-.27-.97-.27c-.29,0-.53.04-.73.11-.2.08-.3.18-.3.31,0,.07.02.14.07.23.05.08.1.17.15.26.05.09.08.19.08.29,0,.15-.06.28-.18.38-.12.1-.27.15-.45.15-.21,0-.38-.07-.51-.21-.13-.14-.19-.32-.19-.54,0-.29.1-.54.3-.76.2-.21.48-.39.84-.51s.77-.19,1.22-.19c.73,0,1.26.17,1.58.51.33.34.49.88.49,1.62v.98h-1.11ZM641.77,805.94c0,.18.03.31.09.39.06.09.16.13.28.13s.26-.04.39-.1c.13-.07.26-.15.39-.24l.21.38c-.2.17-.41.3-.63.39-.22.09-.46.14-.73.14-.37,0-.65-.08-.83-.26-.18-.17-.27-.43-.27-.78v-2.04h1.11v1.98Z" fill="#0d1a1e" />
    <path d="M643.24,801.48v-.45h4.47v.45h-4.47ZM644.62,803.96v-4.68c.22,0,.42-.02.6-.05.18-.02.35-.06.51-.11v4.84h-1.1ZM646.33,807.04c-.58,0-1.01-.16-1.29-.49-.28-.33-.42-.83-.42-1.52v-1.07h1.1v1.4c0,.37.07.63.21.8.14.17.36.26.67.26.27,0,.49-.09.67-.26.18-.17.32-.43.42-.77l.35.1c-.12.52-.32.91-.6,1.17s-.65.38-1.11.38Z" fill="#0d1a1e" />
    <path d="M651.67,807.04c-.55,0-1.02-.12-1.43-.37-.41-.25-.72-.6-.94-1.07-.22-.47-.33-1.02-.33-1.66s.11-1.17.34-1.63c.22-.46.54-.81.95-1.07s.9-.39,1.49-.39c.49,0,.91.1,1.28.29.37.2.65.5.84.91s.28.94.26,1.6h-4.41v-.45s3.28,0,3.28,0c.02-.36-.01-.68-.11-.97-.1-.29-.24-.52-.44-.69-.2-.17-.45-.26-.76-.26-.38,0-.72.16-1.01.49-.29.33-.47.84-.52,1.55h.03c0,.09-.02.17-.02.27,0,.09-.01.19-.01.29,0,.81.16,1.43.47,1.86.31.44.76.66,1.34.66.39,0,.73-.09,1.03-.28s.55-.48.75-.88l.4.25c-.2.49-.52.87-.96,1.14s-.95.41-1.52.41Z" fill="#0d1a1e" />
    <path d="M658.1,807.04c-.47,0-.89-.12-1.25-.37-.36-.25-.64-.6-.83-1.06-.19-.46-.29-1-.29-1.61s.11-1.19.32-1.66c.21-.47.52-.84.91-1.09s.86-.39,1.4-.39c.45,0,.82.1,1.12.29.3.2.52.45.66.76l-.14.31c-.09-.26-.26-.46-.51-.62-.25-.15-.54-.23-.88-.23-.55,0-.98.22-1.26.67-.29.45-.43,1.08-.43,1.9s.13,1.42.4,1.85c.27.43.66.64,1.19.64.36,0,.68-.1.96-.31s.47-.48.58-.83l.1.29c-.12.43-.36.77-.72,1.04s-.8.4-1.32.4ZM659.92,803.96v-4.44c0-.35-.07-.59-.2-.72s-.37-.22-.7-.26l-.35-.02v-.45c.13,0,.25.01.38.02.12,0,.25,0,.4,0,.31,0,.6-.01.87-.04.27-.03.51-.07.71-.12v6.03h-1.1ZM659.92,806.88v-2.92h1.1v1.48c0,.34.06.58.19.71.13.13.36.22.69.26l.4.02v.45c-.16,0-.3-.01-.42-.02-.12,0-.25,0-.4,0-.31,0-.6.01-.87.04-.27.03-.5.07-.7.12v-.14Z" fill="#0d1a1e" />
    <path d="M668.76,807.04c-.47,0-.89-.12-1.25-.37-.36-.25-.64-.6-.83-1.06-.19-.46-.29-1-.29-1.61s.11-1.19.32-1.66c.21-.47.52-.84.91-1.09s.86-.39,1.4-.39c.45,0,.82.1,1.12.29.3.2.52.45.66.76l-.14.31c-.09-.26-.26-.46-.51-.62-.25-.15-.54-.23-.88-.23-.55,0-.98.22-1.26.67-.29.45-.43,1.08-.43,1.9s.13,1.42.4,1.85c.27.43.66.64,1.19.64.36,0,.68-.1.96-.31s.47-.48.58-.83l.1.29c-.12.43-.36.77-.72,1.04s-.8.4-1.32.4ZM670.58,803.96v-4.44c0-.35-.07-.59-.2-.72s-.37-.22-.7-.26l-.35-.02v-.45c.13,0,.25.01.38.02.12,0,.25,0,.4,0,.31,0,.6-.01.87-.04.27-.03.51-.07.71-.12v6.03h-1.1ZM670.58,806.88v-2.92h1.1v1.48c0,.34.06.58.19.71.13.13.36.22.69.26l.4.02v.45c-.16,0-.3-.01-.42-.02-.12,0-.25,0-.4,0-.31,0-.6.01-.87.04-.27.03-.5.07-.7.12v-.14Z" fill="#0d1a1e" />
    <path d="M676.55,807.04c-.55,0-1.02-.12-1.43-.37-.41-.25-.72-.6-.94-1.07-.22-.47-.33-1.02-.33-1.66s.11-1.17.34-1.63c.22-.46.54-.81.95-1.07s.9-.39,1.49-.39c.49,0,.91.1,1.28.29.37.2.65.5.84.91s.28.94.26,1.6h-4.41v-.45s3.28,0,3.28,0c.02-.36-.01-.68-.11-.97-.1-.29-.24-.52-.44-.69-.2-.17-.45-.26-.76-.26-.38,0-.72.16-1.01.49-.29.33-.47.84-.52,1.55h.03c0,.09-.02.17-.02.27,0,.09-.01.19-.01.29,0,.81.16,1.43.47,1.86.31.44.76.66,1.34.66.39,0,.73-.09,1.03-.28s.55-.48.75-.88l.4.25c-.2.49-.52.87-.96,1.14s-.95.41-1.52.41Z" fill="#0d1a1e" />
    <path d="M682.25,807.04c-.51,0-.92-.13-1.22-.4s-.46-.63-.46-1.09c0-.36.09-.64.26-.87s.39-.39.66-.53c.27-.13.55-.24.85-.32.3-.09.59-.16.86-.23s.49-.15.67-.27c.17-.11.27-.27.27-.46l.05.57c-.06.14-.18.26-.37.35-.19.09-.39.18-.63.26-.23.08-.46.17-.68.27-.22.1-.4.24-.55.41-.14.17-.22.4-.22.69s.08.5.25.67c.17.16.4.25.7.25s.57-.08.83-.24.48-.39.69-.7l.02.47c-.24.4-.53.7-.85.88-.33.19-.71.28-1.14.28ZM684.12,803.96v-1.54c0-.38-.1-.66-.31-.84s-.53-.27-.97-.27c-.29,0-.53.04-.73.11-.2.08-.3.18-.3.31,0,.07.02.14.07.23.05.08.1.17.15.26.05.09.08.19.08.29,0,.15-.06.28-.18.38-.12.1-.27.15-.45.15-.21,0-.38-.07-.51-.21-.13-.14-.19-.32-.19-.54,0-.29.1-.54.3-.76.2-.21.48-.39.84-.51.36-.12.77-.19,1.22-.19.73,0,1.26.17,1.58.51.33.34.49.88.49,1.62v.98h-1.11ZM685.23,805.94c0,.18.03.31.09.39.06.09.16.13.29.13s.26-.04.39-.1c.13-.07.26-.15.39-.24l.21.38c-.2.17-.41.3-.63.39-.22.09-.46.14-.73.14-.37,0-.65-.08-.83-.26-.18-.17-.27-.43-.27-.78v-2.04h1.11v1.98Z" fill="#0d1a1e" />
    <path d="M686.7,801.48v-.45h4.47v.45h-4.47ZM688.07,803.96v-4.68c.22,0,.42-.02.6-.05.18-.02.35-.06.51-.11v4.84h-1.11ZM689.78,807.04c-.58,0-1.01-.16-1.29-.49-.28-.33-.42-.83-.42-1.52v-1.07h1.11v1.4c0,.37.07.63.21.8.14.17.36.26.67.26.27,0,.49-.09.67-.26.18-.17.32-.43.42-.77l.35.1c-.12.52-.32.91-.6,1.17s-.65.38-1.11.38Z" fill="#0d1a1e" />
    <path d="M693.29,803.96v-4.44c0-.35-.06-.59-.19-.72-.13-.13-.36-.22-.68-.26l-.4-.02v-.45c.15,0,.29.01.41.02.12,0,.25,0,.38,0,.33,0,.62-.01.88-.04.26-.03.5-.07.7-.12v6.03h-1.09ZM692.87,806.85c-.28,0-.57.02-.85.02v-.45l.41-.02c.32-.03.54-.11.67-.25.13-.13.19-.36.19-.69v-1.52h1.09v1.52c0,.32.06.55.17.7s.31.23.59.25h.15v.46c-.24,0-.48-.02-.7-.02-.22,0-.48-.01-.76-.01-.37,0-.69,0-.97.01ZM697.11,803.96v-1.03c0-.49-.1-.85-.29-1.11-.19-.25-.48-.38-.87-.38-.41,0-.77.12-1.08.38-.31.25-.58.64-.8,1.16l-.07-.25c.24-.64.56-1.12.94-1.43.38-.31.84-.46,1.37-.46.62,0,1.08.18,1.41.55.32.37.48.9.48,1.61v.95h-1.09ZM696.89,806.85c-.23,0-.46.02-.68.02v-.45h.12c.28-.03.48-.12.6-.26.12-.14.18-.38.18-.7v-1.52h1.09v1.52c0,.33.06.56.19.69.13.13.35.21.67.25l.41.02v.45c-.3,0-.6-.02-.88-.02s-.6-.01-.95-.01c-.28,0-.54,0-.76.01Z" fill="#0d1a1e" />
    <path d="M703.22,807.04c-.33,0-.6-.04-.83-.11s-.41-.14-.56-.21c-.15-.06-.27-.1-.37-.1-.17,0-.3.12-.39.35h-.43c.02-.17.03-.37.03-.59s.01-.46.01-.74,0-.6-.01-.96h.44c.11.64.32,1.11.65,1.42.33.31.76.47,1.3.47.4,0,.71-.09.93-.26.22-.18.33-.42.33-.73s-.11-.54-.34-.72c-.22-.18-.62-.35-1.18-.49-.68-.21-1.18-.46-1.5-.76-.31-.3-.47-.69-.47-1.16s.16-.88.48-1.17c.32-.29.75-.44,1.29-.44.31,0,.57.03.78.1s.38.14.52.21c.14.07.27.1.39.1.08,0,.14-.03.19-.08.05-.05.09-.14.13-.26h.44c-.02.16-.03.33-.03.51,0,.18-.01.39-.02.62,0,.23,0,.5,0,.82h-.43c-.08-.49-.28-.87-.61-1.16-.33-.29-.72-.43-1.18-.43-.34,0-.6.08-.78.23-.18.15-.27.37-.27.66s.12.53.36.72.66.38,1.25.55c.68.19,1.16.43,1.45.71.29.28.44.66.44,1.13,0,.54-.18.97-.55,1.28-.37.32-.87.47-1.5.47Z" fill="#0d1a1e" />
    <path d="M710.79,803.96v-1.5c0-.34-.06-.58-.19-.72-.13-.14-.36-.22-.68-.26h-.4v-.46c.15,0,.29.01.41.02.12,0,.25,0,.38,0,.33,0,.62-.01.88-.04.26-.03.5-.07.7-.12v3.08h-1.09ZM710.37,809.49c-.28,0-.57.01-.85.02v-.44l.41-.02c.32-.03.54-.11.67-.24.13-.13.19-.36.19-.69v-4.15h1.09v4.15c0,.22.03.39.1.52s.17.22.33.27c.15.06.36.1.62.12l.56.04v.44c-.23,0-.45-.01-.68-.02s-.45,0-.69-.01-.49,0-.77,0c-.37,0-.69,0-.97.01ZM713.72,800.87c.49,0,.9.12,1.25.38.35.25.62.6.82,1.06.2.46.3,1,.3,1.62s-.11,1.18-.32,1.66c-.21.47-.52.84-.93,1.1-.41.26-.87.39-1.4.39-.42,0-.79-.1-1.1-.3-.31-.2-.53-.45-.66-.76l.15-.31c.08.25.24.45.48.61.25.16.54.23.88.23.55,0,.98-.22,1.27-.67.29-.45.44-1.09.44-1.91s-.14-1.41-.41-1.85c-.27-.43-.67-.65-1.17-.65-.36,0-.68.1-.96.31s-.47.49-.58.84l-.14-.31c.14-.42.39-.77.75-1.04.36-.27.8-.4,1.32-.4Z" fill="#0d1a1e" />
    <path d="M720.5,807.04c-.55,0-1.02-.12-1.43-.37-.41-.25-.72-.6-.94-1.07-.22-.47-.33-1.02-.33-1.66s.11-1.17.34-1.63c.22-.46.54-.81.95-1.07s.9-.39,1.49-.39c.49,0,.91.1,1.28.29.37.2.65.5.84.91.19.41.28.94.26,1.6h-4.41v-.45s3.28,0,3.28,0c.02-.36-.01-.68-.11-.97-.09-.29-.24-.52-.44-.69-.2-.17-.45-.26-.76-.26-.38,0-.72.16-1.01.49-.29.33-.47.84-.52,1.55h.03c0,.09-.02.17-.02.27,0,.09-.01.19-.01.29,0,.81.16,1.43.47,1.86.31.44.76.66,1.34.66.39,0,.73-.09,1.03-.28.3-.19.55-.48.75-.88l.4.25c-.2.49-.52.87-.96,1.14s-.95.41-1.51.41Z" fill="#0d1a1e" />
    <path d="M725.36,803.96v-1.5c0-.34-.06-.58-.19-.72s-.36-.22-.68-.26h-.4v-.46c.15,0,.29.01.41.02.12,0,.25,0,.38,0,.33,0,.62-.01.88-.04.26-.03.5-.07.7-.12v3.08h-1.09ZM724.93,806.85c-.28,0-.57.02-.86.02v-.45l.41-.02c.32-.03.54-.11.67-.25s.19-.36.19-.69v-1.52h1.09v1.52c0,.22.03.39.09.53.06.13.16.22.3.28.14.06.34.1.59.12l.49.03v.45c-.22,0-.43-.01-.64-.02s-.42,0-.64-.01-.46,0-.74,0c-.36,0-.69,0-.97.01ZM728.61,802.85c-.17,0-.31-.05-.41-.15-.1-.1-.15-.22-.15-.38,0-.09.02-.18.06-.26.04-.08.08-.16.12-.23s.06-.14.06-.21c0-.15-.11-.23-.34-.23-.18,0-.38.04-.58.14-.21.09-.39.21-.56.37s-.29.34-.37.54l-.03-.47c.2-.37.46-.65.78-.85.32-.19.66-.29,1.02-.29s.64.1.85.3.31.47.31.8c0,.27-.07.48-.21.65-.14.17-.32.25-.55.25Z" fill="#0d1a1e" />
    <path d="M736.16,807.08l-2.06-4.78c-.09-.2-.17-.35-.25-.46-.08-.11-.16-.19-.26-.24-.1-.05-.23-.08-.41-.09l-.3-.03v-.45c.18,0,.38.02.58.02s.41,0,.62,0h.05c.24,0,.47,0,.7,0,.23,0,.44,0,.64-.02s.36-.01.48-.01v.45l-.21.02c-.31.03-.5.12-.55.25-.06.14-.02.38.12.72l1.44,3.29-.21.04.99-2.49c.17-.45.28-.8.31-1.04s0-.43-.09-.55-.25-.19-.45-.22l-.15-.02v-.45c.2,0,.4.02.62.02.21,0,.41,0,.6,0,.24,0,.46,0,.66,0,.2,0,.38-.02.55-.02v.45l-.15.02c-.2.03-.36.1-.5.21-.14.11-.27.27-.41.5s-.29.55-.46.98l-1.53,3.9h-.39ZM734.57,809.6c-.37,0-.67-.1-.89-.29-.22-.19-.33-.44-.33-.74,0-.24.07-.43.21-.58.14-.15.33-.22.56-.22.17,0,.3.04.4.12s.15.2.15.35c0,.11-.02.2-.05.28-.03.08-.07.15-.11.22-.04.07-.06.14-.06.21,0,.14.08.21.25.21s.33-.06.46-.19.25-.31.36-.54l.71-1.75.38.21-.64,1.6c-.11.24-.22.45-.35.62-.12.17-.28.29-.45.37s-.38.11-.6.11Z" fill="#0d1a1e" />
    <path d="M743.13,807.04c-.55,0-1.02-.12-1.43-.37-.41-.25-.72-.6-.94-1.07-.22-.47-.33-1.02-.33-1.66s.11-1.17.34-1.63c.22-.46.54-.81.95-1.07s.9-.39,1.49-.39c.49,0,.91.1,1.28.29.37.2.65.5.84.91.19.41.28.94.26,1.6h-4.41v-.45s3.28,0,3.28,0c.02-.36-.01-.68-.11-.97-.09-.29-.24-.52-.44-.69-.2-.17-.45-.26-.76-.26-.38,0-.72.16-1.01.49-.29.33-.47.84-.52,1.55h.03c0,.09-.02.17-.02.27,0,.09-.01.19-.01.29,0,.81.16,1.43.47,1.86.31.44.76.66,1.34.66.39,0,.73-.09,1.03-.28.3-.19.55-.48.75-.88l.4.25c-.2.49-.52.87-.96,1.14s-.95.41-1.51.41Z" fill="#0d1a1e" />
    <path d="M748.83,807.04c-.51,0-.92-.13-1.22-.4s-.46-.63-.46-1.09c0-.36.09-.64.26-.87s.39-.39.66-.53c.27-.13.55-.24.85-.32.3-.09.59-.16.86-.23s.49-.15.67-.27c.17-.11.27-.27.27-.46l.05.57c-.06.14-.18.26-.37.35-.19.09-.39.18-.63.26-.23.08-.46.17-.68.27-.22.1-.4.24-.55.41-.14.17-.22.4-.22.69s.08.5.25.67c.17.16.4.25.7.25s.57-.08.83-.24.48-.39.69-.7l.02.47c-.24.4-.53.7-.85.88-.33.19-.71.28-1.14.28ZM750.7,803.96v-1.54c0-.38-.1-.66-.31-.84s-.53-.27-.97-.27c-.29,0-.53.04-.73.11-.2.08-.3.18-.3.31,0,.07.02.14.07.23.05.08.1.17.15.26.05.09.08.19.08.29,0,.15-.06.28-.18.38-.12.1-.27.15-.45.15-.21,0-.38-.07-.51-.21-.13-.14-.19-.32-.19-.54,0-.29.1-.54.3-.76.2-.21.48-.39.84-.51.36-.12.77-.19,1.22-.19.73,0,1.26.17,1.58.51.33.34.49.88.49,1.62v.98h-1.11ZM751.8,805.94c0,.18.03.31.09.39.06.09.16.13.29.13s.26-.04.39-.1c.13-.07.26-.15.39-.24l.21.38c-.2.17-.41.3-.63.39-.22.09-.46.14-.73.14-.37,0-.65-.08-.83-.26-.18-.17-.27-.43-.27-.78v-2.04h1.11v1.98Z" fill="#0d1a1e" />
    <path d="M755.2,803.96v-1.5c0-.34-.06-.58-.19-.72-.13-.14-.36-.22-.68-.26h-.4v-.46c.15,0,.29.01.41.02.12,0,.25,0,.38,0,.33,0,.62-.01.88-.04.26-.03.5-.07.7-.12v3.08h-1.09ZM754.78,806.85c-.28,0-.57.02-.85.02v-.45l.41-.02c.32-.03.54-.11.67-.25.13-.13.19-.36.19-.69v-1.52h1.09v1.52c0,.22.03.39.09.53.06.13.16.22.3.28.14.06.34.1.59.12l.49.03v.45c-.22,0-.43-.01-.64-.02s-.42,0-.64-.01c-.22,0-.46,0-.73,0-.37,0-.69,0-.97.01ZM758.46,802.85c-.17,0-.31-.05-.41-.15-.1-.1-.15-.22-.15-.38,0-.09.02-.18.06-.26s.08-.16.12-.23c.04-.07.06-.14.06-.21,0-.15-.11-.23-.34-.23-.18,0-.38.04-.58.14-.21.09-.39.21-.56.37s-.29.34-.37.54l-.03-.47c.2-.37.46-.65.78-.85.32-.19.66-.29,1.02-.29s.64.1.85.3.31.47.31.8c0,.27-.07.48-.21.65-.14.17-.32.25-.55.25Z" fill="#0d1a1e" />
  </g>
  <g isolation="isolate">
    <path d="M914.5,749.53l.19,1.21-14.46,18.54.65-1.58h14.74c1.27,0,2.07-.15,2.41-.46.34-.31.57-.85.7-1.62h.97c0,1.85.02,3.3.05,4.33.03,1.04.08,1.96.14,2.76-.22-.06-.62-.1-1.21-.12s-1.28-.04-2.08-.07c-.8-.03-1.62-.04-2.43-.04h-16.94v-.97l17.29-21.97ZM915.24,749.53v31.14h-5.38v-24.61l4.63-6.54h.74Z" fill="#237c3e" />
    <path d="M936.51,749.53c2.47,0,4.65.5,6.53,1.51s3.37,2.43,4.45,4.26c1.08,1.84,1.62,3.99,1.62,6.46s-.55,4.69-1.65,6.65c-1.1,1.96-2.63,3.52-4.59,4.66s-4.26,1.71-6.88,1.71c-2.41,0-4.57-.51-6.46-1.53-1.9-1.02-3.4-2.45-4.5-4.29s-1.64-3.99-1.64-6.46.54-4.64,1.62-6.6c1.08-1.96,2.61-3.52,4.59-4.66,1.98-1.14,4.28-1.71,6.91-1.71ZM936.1,750.36c-1.67,0-3.04,1.06-4.1,3.17-1.07,2.12-1.6,5.06-1.6,8.83,0,2.78.28,5.02.83,6.72.56,1.7,1.29,2.94,2.2,3.71.91.77,1.91,1.16,2.99,1.16,1.67,0,3.04-1.07,4.1-3.2,1.07-2.13,1.6-5.08,1.6-8.85,0-2.78-.28-5.02-.83-6.72-.56-1.7-1.29-2.93-2.2-3.69-.91-.76-1.91-1.13-2.99-1.13Z" fill="#237c3e" />
    <path d="M964.27,749.67v19.97c0,1.36.25,2.29.76,2.78s1.37.74,2.57.74v.97c-.62-.03-1.52-.07-2.71-.12-1.19-.04-2.42-.07-3.68-.07-1.58,0-3.1.02-4.57.07-1.47.05-2.6.09-3.41.12v-.97c1.36,0,2.42-.25,3.2-.76.77-.51,1.16-1.52,1.16-3.04v-11.31c0-1.48-.13-2.58-.39-3.29-.26-.71-.73-1.17-1.39-1.39-.67-.21-1.58-.32-2.76-.32v-1.02c2.66-.06,4.86-.26,6.6-.6,1.75-.34,3.28-.93,4.61-1.76Z" fill="#237c3e" />
  </g>
  <g isolation="isolate">
    <path d="M875.06,803.96v-4.44c0-.35-.06-.59-.19-.72s-.36-.22-.68-.26l-.4-.02v-.45c.15,0,.29.01.41.02.12,0,.25,0,.38,0,.33,0,.62-.01.88-.04.26-.03.5-.07.7-.12v6.03h-1.09ZM874.64,806.85c-.28,0-.57.02-.85.02v-.45l.41-.02c.32-.03.54-.11.67-.25s.19-.36.19-.69v-1.52h1.09v1.52c0,.33.06.56.19.69s.36.21.68.25l.39.02v.45l-.84-.02c-.28,0-.6-.01-.97-.01s-.69,0-.97.01Z" fill="#0d1a1e" />
    <path d="M879.44,803.96v-1.5c0-.34-.06-.58-.19-.72s-.36-.22-.68-.26h-.4v-.46c.15,0,.29.01.41.02.12,0,.25,0,.38,0,.33,0,.62-.01.88-.04.26-.03.5-.07.7-.12v3.08h-1.09ZM879.01,806.85c-.28,0-.57.02-.85.02v-.45l.41-.02c.32-.03.54-.11.67-.25s.19-.36.19-.69v-1.52h1.09v1.52c0,.33.06.56.19.69s.36.21.68.25l.39.02v.45l-.84-.02c-.28,0-.6-.01-.97-.01s-.69,0-.97.01ZM879.98,799.68c-.22,0-.41-.07-.56-.22-.15-.15-.23-.34-.23-.56,0-.21.08-.39.23-.55.16-.15.34-.23.56-.23s.4.07.55.22.22.33.22.55-.08.41-.23.56c-.15.15-.34.23-.56.23Z" fill="#0d1a1e" />
    <path d="M885.17,806.99l-2.02-4.69c-.09-.19-.17-.34-.25-.45-.08-.11-.16-.19-.26-.24s-.23-.08-.4-.09l-.3-.03v-.45c.18,0,.38.02.58.02s.41,0,.62,0h.05-.01c.24,0,.48,0,.71,0,.23,0,.44,0,.64-.02s.36-.01.48-.01v.43l-.23.03c-.29.03-.46.11-.52.25-.06.13-.03.38.1.73l1.42,3.24-.17.06.97-2.47c.19-.43.3-.78.33-1.03.03-.25,0-.44-.1-.56-.09-.12-.24-.19-.43-.22l-.15-.02v-.45c.2,0,.4.02.62.02.21,0,.41,0,.59,0,.24,0,.47,0,.67,0s.39-.02.56-.02v.45l-.17.02c-.18.03-.35.1-.5.21-.15.11-.29.27-.42.5s-.28.55-.45.97l-1.55,3.82h-.41Z" fill="#0d1a1e" />
    <path d="M892.19,807.04c-.55,0-1.02-.12-1.43-.37-.41-.25-.72-.6-.94-1.07-.22-.47-.33-1.02-.33-1.66s.11-1.17.34-1.63c.22-.46.54-.81.95-1.07.41-.26.9-.39,1.49-.39.49,0,.91.1,1.28.29.37.2.65.5.84.91.19.41.28.94.26,1.6h-4.41v-.45s3.28,0,3.28,0c.02-.36-.01-.68-.11-.97-.09-.29-.24-.52-.44-.69-.2-.17-.45-.26-.76-.26-.38,0-.72.16-1.01.49-.29.33-.46.84-.52,1.55h.03c0,.09-.02.17-.02.27,0,.09-.01.19-.01.29,0,.81.16,1.43.47,1.86.31.44.76.66,1.34.66.39,0,.73-.09,1.03-.28.3-.19.55-.48.75-.88l.4.25c-.2.49-.52.87-.96,1.14s-.95.41-1.52.41Z" fill="#0d1a1e" />
    <path d="M898.79,807.04c-.33,0-.6-.04-.83-.11-.22-.07-.41-.14-.56-.21-.15-.06-.27-.1-.37-.1-.17,0-.3.12-.39.35h-.43c.02-.17.03-.37.03-.59,0-.22.01-.46.01-.74s0-.6-.01-.96h.44c.11.64.32,1.11.65,1.42.33.31.76.47,1.3.47.4,0,.71-.09.93-.26.22-.18.33-.42.33-.73s-.11-.54-.34-.72c-.22-.18-.62-.35-1.18-.49-.68-.21-1.18-.46-1.5-.76-.32-.3-.47-.69-.47-1.16s.16-.88.48-1.17c.32-.29.75-.44,1.29-.44.31,0,.57.03.77.1s.38.14.52.21c.14.07.27.1.39.1.08,0,.14-.03.19-.08.05-.05.09-.14.13-.26h.44c-.02.16-.03.33-.03.51,0,.18-.01.39-.02.62,0,.23,0,.5,0,.82h-.43c-.08-.49-.28-.87-.61-1.16s-.72-.43-1.18-.43c-.34,0-.6.08-.78.23s-.27.37-.27.66.12.53.36.72.66.38,1.25.55c.68.19,1.16.43,1.45.71.29.28.44.66.44,1.13,0,.54-.18.97-.55,1.28-.37.32-.87.47-1.5.47Z" fill="#0d1a1e" />
    <path d="M908.02,807.04c-.33,0-.6-.04-.83-.11-.22-.07-.41-.14-.56-.21-.15-.06-.27-.1-.37-.1-.17,0-.3.12-.39.35h-.43c.02-.17.03-.37.03-.59,0-.22.01-.46.01-.74s0-.6-.01-.96h.44c.11.64.32,1.11.65,1.42.33.31.76.47,1.3.47.4,0,.71-.09.93-.26.22-.18.33-.42.33-.73s-.11-.54-.34-.72c-.22-.18-.62-.35-1.18-.49-.68-.21-1.18-.46-1.5-.76-.32-.3-.47-.69-.47-1.16s.16-.88.48-1.17c.32-.29.75-.44,1.29-.44.31,0,.57.03.77.1s.38.14.52.21c.14.07.27.1.39.1.08,0,.14-.03.19-.08.05-.05.09-.14.13-.26h.44c-.02.16-.03.33-.03.51,0,.18-.01.39-.02.62,0,.23,0,.5,0,.82h-.43c-.08-.49-.28-.87-.61-1.16s-.72-.43-1.18-.43c-.34,0-.6.08-.78.23s-.27.37-.27.66.12.53.36.72.66.38,1.25.55c.68.19,1.16.43,1.45.71.29.28.44.66.44,1.13,0,.54-.18.97-.55,1.28-.37.32-.87.47-1.5.47Z" fill="#0d1a1e" />
    <path d="M913.47,807.04c-.51,0-.92-.13-1.22-.4s-.46-.63-.46-1.09c0-.36.09-.64.26-.87s.4-.39.66-.53c.27-.13.55-.24.85-.32.3-.09.59-.16.86-.23s.49-.15.67-.27c.17-.11.27-.27.27-.46l.04.57c-.06.14-.18.26-.37.35-.19.09-.39.18-.63.26-.23.08-.46.17-.68.27-.22.1-.4.24-.55.41-.14.17-.22.4-.22.69s.08.5.25.67c.17.16.4.25.7.25s.57-.08.83-.24c.25-.16.48-.39.69-.7l.02.47c-.24.4-.53.7-.85.88-.33.19-.71.28-1.14.28ZM915.34,803.96v-1.54c0-.38-.1-.66-.31-.84s-.53-.27-.97-.27c-.29,0-.53.04-.73.11s-.3.18-.3.31c0,.07.02.14.07.23.05.08.1.17.15.26.05.09.08.19.08.29,0,.15-.06.28-.18.38-.12.1-.27.15-.45.15-.21,0-.38-.07-.51-.21s-.19-.32-.19-.54c0-.29.1-.54.3-.76.2-.21.48-.39.84-.51.36-.12.77-.19,1.22-.19.73,0,1.26.17,1.58.51.33.34.49.88.49,1.62v.98h-1.1ZM916.44,805.94c0,.18.03.31.09.39.06.09.16.13.29.13s.26-.04.39-.1.26-.15.39-.24l.21.38c-.2.17-.41.3-.63.39-.22.09-.46.14-.73.14-.37,0-.65-.08-.83-.26-.18-.17-.27-.43-.27-.78v-2.04h1.1v1.98Z" fill="#0d1a1e" />
    <path d="M921,806.99l-2.02-4.69c-.09-.19-.17-.34-.25-.45-.08-.11-.16-.19-.26-.24s-.23-.08-.4-.09l-.3-.03v-.45c.18,0,.38.02.58.02s.41,0,.62,0h.05-.01c.24,0,.48,0,.71,0,.23,0,.44,0,.64-.02s.36-.01.48-.01v.43l-.23.03c-.29.03-.46.11-.52.25-.06.13-.03.38.1.73l1.42,3.24-.17.06.97-2.47c.19-.43.3-.78.33-1.03.03-.25,0-.44-.1-.56-.09-.12-.24-.19-.43-.22l-.15-.02v-.45c.2,0,.4.02.62.02.21,0,.41,0,.59,0,.24,0,.47,0,.67,0s.39-.02.56-.02v.45l-.17.02c-.18.03-.35.1-.5.21-.15.11-.29.27-.42.5s-.28.55-.45.97l-1.55,3.82h-.41Z" fill="#0d1a1e" />
    <path d="M928.02,807.04c-.55,0-1.02-.12-1.43-.37-.41-.25-.72-.6-.94-1.07-.22-.47-.33-1.02-.33-1.66s.11-1.17.34-1.63c.22-.46.54-.81.95-1.07.41-.26.9-.39,1.49-.39.49,0,.91.1,1.28.29.37.2.65.5.84.91.19.41.28.94.26,1.6h-4.41v-.45s3.28,0,3.28,0c.02-.36-.01-.68-.11-.97-.09-.29-.24-.52-.44-.69-.2-.17-.45-.26-.76-.26-.38,0-.72.16-1.01.49-.29.33-.46.84-.52,1.55h.03c0,.09-.02.17-.02.27,0,.09-.01.19-.01.29,0,.81.16,1.43.47,1.86.31.44.76.66,1.34.66.39,0,.73-.09,1.03-.28.3-.19.55-.48.75-.88l.4.25c-.2.49-.52.87-.96,1.14s-.95.41-1.52.41Z" fill="#0d1a1e" />
    <path d="M934.45,807.04c-.47,0-.89-.12-1.25-.37-.36-.25-.64-.6-.83-1.06-.19-.46-.29-1-.29-1.61s.11-1.19.32-1.66c.21-.47.52-.84.91-1.09.4-.26.86-.39,1.4-.39.45,0,.82.1,1.12.29.3.2.52.45.65.76l-.14.31c-.09-.26-.26-.46-.51-.62s-.54-.23-.88-.23c-.55,0-.98.22-1.26.67-.29.45-.43,1.08-.43,1.9s.13,1.42.4,1.85c.27.43.66.64,1.18.64.37,0,.68-.1.96-.31s.47-.48.58-.83l.1.29c-.12.43-.36.77-.72,1.04-.36.27-.8.4-1.32.4ZM936.27,803.96v-4.44c0-.35-.07-.59-.2-.72-.13-.13-.37-.22-.7-.26l-.35-.02v-.45c.13,0,.25.01.38.02.12,0,.25,0,.4,0,.31,0,.6-.01.87-.04.27-.03.51-.07.71-.12v6.03h-1.11ZM936.27,806.88v-2.92h1.11v1.48c0,.34.06.58.19.71.13.13.36.22.7.26l.4.02v.45c-.16,0-.3-.01-.42-.02-.12,0-.25,0-.4,0-.31,0-.6.01-.87.04-.27.03-.5.07-.7.12v-.14Z" fill="#0d1a1e" />
    <path d="M943.62,803.96v-1.5c0-.34-.06-.58-.19-.72s-.36-.22-.68-.26h-.4v-.46c.15,0,.29.01.41.02.12,0,.25,0,.38,0,.33,0,.62-.01.88-.04.26-.03.5-.07.7-.12v3.08h-1.09ZM943.2,809.49c-.28,0-.57.01-.85.02v-.44l.41-.02c.32-.03.54-.11.67-.24s.19-.36.19-.69v-4.15h1.09v4.15c0,.22.03.39.1.52s.17.22.32.27c.15.06.36.1.62.12l.56.04v.44c-.23,0-.45-.01-.68-.02-.22,0-.45,0-.69-.01s-.49,0-.77,0c-.37,0-.69,0-.97.01ZM946.55,800.87c.49,0,.9.12,1.25.38.35.25.62.6.82,1.06.2.46.3,1,.3,1.62s-.11,1.18-.32,1.66-.52.84-.93,1.1c-.41.26-.87.39-1.4.39-.43,0-.79-.1-1.11-.3s-.53-.45-.66-.76l.15-.31c.08.25.24.45.48.61s.54.23.88.23c.55,0,.98-.22,1.27-.67.29-.45.44-1.09.44-1.91s-.14-1.41-.41-1.85c-.27-.43-.66-.65-1.17-.65-.37,0-.68.1-.96.31s-.47.49-.58.84l-.14-.31c.14-.42.39-.77.75-1.04.36-.27.8-.4,1.32-.4Z" fill="#0d1a1e" />
    <path d="M953.33,807.04c-.55,0-1.02-.12-1.43-.37-.41-.25-.72-.6-.94-1.07-.22-.47-.33-1.02-.33-1.66s.11-1.17.34-1.63c.22-.46.54-.81.95-1.07.41-.26.9-.39,1.49-.39.49,0,.91.1,1.28.29.37.2.65.5.84.91.19.41.28.94.26,1.6h-4.41v-.45s3.28,0,3.28,0c.02-.36-.01-.68-.11-.97-.09-.29-.24-.52-.44-.69-.2-.17-.45-.26-.76-.26-.38,0-.72.16-1.01.49-.29.33-.46.84-.52,1.55h.03c0,.09-.02.17-.02.27,0,.09-.01.19-.01.29,0,.81.16,1.43.47,1.86.31.44.76.66,1.34.66.39,0,.73-.09,1.03-.28.3-.19.55-.48.75-.88l.4.25c-.2.49-.52.87-.96,1.14s-.95.41-1.52.41Z" fill="#0d1a1e" />
    <path d="M958.18,803.96v-1.5c0-.34-.06-.58-.19-.72s-.36-.22-.68-.26h-.4v-.46c.15,0,.29.01.41.02.12,0,.25,0,.38,0,.33,0,.62-.01.88-.04.26-.03.5-.07.7-.12v3.08h-1.09ZM957.76,806.85c-.28,0-.57.02-.85.02v-.45l.41-.02c.32-.03.54-.11.67-.25s.19-.36.19-.69v-1.52h1.09v1.52c0,.22.03.39.09.53.06.13.16.22.3.28.14.06.34.1.59.12l.49.03v.45c-.22,0-.44-.01-.64-.02s-.42,0-.64-.01-.46,0-.73,0c-.37,0-.69,0-.97.01ZM961.44,802.85c-.17,0-.31-.05-.41-.15-.1-.1-.15-.22-.15-.38,0-.09.02-.18.06-.26s.08-.16.12-.23.06-.14.06-.21c0-.15-.11-.23-.34-.23-.18,0-.38.04-.58.14-.21.09-.39.21-.56.37s-.29.34-.37.54l-.03-.47c.2-.37.46-.65.78-.85.32-.19.66-.29,1.02-.29s.64.1.85.3c.21.2.31.47.31.8,0,.27-.07.48-.21.65-.14.17-.32.25-.55.25Z" fill="#0d1a1e" />
    <path d="M968.98,807.08l-2.06-4.78c-.09-.2-.17-.35-.25-.46-.08-.11-.16-.19-.26-.24s-.23-.08-.4-.09l-.3-.03v-.45c.18,0,.38.02.58.02s.41,0,.62,0h.05c.24,0,.47,0,.7,0,.23,0,.44,0,.64-.02s.36-.01.48-.01v.45l-.21.02c-.31.03-.5.12-.55.25s-.02.38.12.72l1.44,3.29-.21.04.99-2.49c.17-.45.28-.8.31-1.04s0-.43-.09-.55-.25-.19-.45-.22l-.15-.02v-.45c.2,0,.4.02.62.02.21,0,.41,0,.6,0,.24,0,.46,0,.66,0s.38-.02.55-.02v.45l-.15.02c-.2.03-.36.1-.5.21-.14.11-.27.27-.4.5-.13.23-.29.55-.46.98l-1.53,3.9h-.39ZM967.4,809.6c-.37,0-.67-.1-.89-.29s-.33-.44-.33-.74c0-.24.07-.43.21-.58.14-.15.33-.22.56-.22.17,0,.3.04.4.12s.15.2.15.35c0,.11-.02.2-.05.28-.03.08-.07.15-.11.22s-.06.14-.06.21c0,.14.08.21.25.21s.33-.06.46-.19.25-.31.36-.54l.71-1.75.38.21-.64,1.6c-.11.24-.22.45-.35.62-.12.17-.28.29-.45.37-.17.08-.38.11-.6.11Z" fill="#0d1a1e" />
    <path d="M975.96,807.04c-.55,0-1.02-.12-1.43-.37-.41-.25-.72-.6-.94-1.07-.22-.47-.33-1.02-.33-1.66s.11-1.17.34-1.63c.22-.46.54-.81.95-1.07.41-.26.9-.39,1.49-.39.49,0,.91.1,1.28.29.37.2.65.5.84.91.19.41.28.94.26,1.6h-4.41v-.45s3.28,0,3.28,0c.02-.36-.01-.68-.11-.97-.09-.29-.24-.52-.44-.69-.2-.17-.45-.26-.76-.26-.38,0-.72.16-1.01.49-.29.33-.46.84-.52,1.55h.03c0,.09-.02.17-.02.27,0,.09-.01.19-.01.29,0,.81.16,1.43.47,1.86.31.44.76.66,1.34.66.39,0,.73-.09,1.03-.28.3-.19.55-.48.75-.88l.4.25c-.2.49-.52.87-.96,1.14s-.95.41-1.52.41Z" fill="#0d1a1e" />
    <path d="M981.65,807.04c-.51,0-.92-.13-1.22-.4s-.46-.63-.46-1.09c0-.36.09-.64.26-.87s.4-.39.66-.53c.27-.13.55-.24.85-.32.3-.09.59-.16.86-.23s.49-.15.67-.27c.17-.11.27-.27.27-.46l.04.57c-.06.14-.18.26-.37.35-.19.09-.39.18-.63.26-.23.08-.46.17-.68.27-.22.1-.4.24-.55.41-.14.17-.22.4-.22.69s.08.5.25.67c.17.16.4.25.7.25s.57-.08.83-.24c.25-.16.48-.39.69-.7l.02.47c-.24.4-.53.7-.85.88-.33.19-.71.28-1.14.28ZM983.52,803.96v-1.54c0-.38-.1-.66-.31-.84s-.53-.27-.97-.27c-.29,0-.53.04-.73.11s-.3.18-.3.31c0,.07.02.14.07.23.05.08.1.17.15.26.05.09.08.19.08.29,0,.15-.06.28-.18.38-.12.1-.27.15-.45.15-.21,0-.38-.07-.51-.21s-.19-.32-.19-.54c0-.29.1-.54.3-.76.2-.21.48-.39.84-.51.36-.12.77-.19,1.22-.19.73,0,1.26.17,1.58.51.33.34.49.88.49,1.62v.98h-1.1ZM984.63,805.94c0,.18.03.31.09.39.06.09.16.13.29.13s.26-.04.39-.1.26-.15.39-.24l.21.38c-.2.17-.41.3-.63.39-.22.09-.46.14-.73.14-.37,0-.65-.08-.83-.26-.18-.17-.27-.43-.27-.78v-2.04h1.1v1.98Z" fill="#0d1a1e" />
    <path d="M988.02,803.96v-1.5c0-.34-.06-.58-.19-.72s-.36-.22-.68-.26h-.4v-.46c.15,0,.29.01.41.02.12,0,.25,0,.38,0,.33,0,.62-.01.88-.04.26-.03.5-.07.7-.12v3.08h-1.09ZM987.6,806.85c-.28,0-.57.02-.85.02v-.45l.41-.02c.32-.03.54-.11.67-.25s.19-.36.19-.69v-1.52h1.09v1.52c0,.22.03.39.09.53.06.13.16.22.3.28.14.06.34.1.59.12l.49.03v.45c-.22,0-.44-.01-.64-.02s-.42,0-.64-.01-.46,0-.73,0c-.37,0-.69,0-.97.01ZM991.28,802.85c-.17,0-.31-.05-.41-.15-.1-.1-.15-.22-.15-.38,0-.09.02-.18.06-.26s.08-.16.12-.23.06-.14.06-.21c0-.15-.11-.23-.34-.23-.18,0-.38.04-.58.14-.21.09-.39.21-.56.37s-.29.34-.37.54l-.03-.47c.2-.37.46-.65.78-.85.32-.19.66-.29,1.02-.29s.64.1.85.3c.21.2.31.47.31.8,0,.27-.07.48-.21.65-.14.17-.32.25-.55.25Z" fill="#0d1a1e" />
  </g>
  <g>
    <circle cx="609.79" cy="605.84" r="2.83" fill="#a51e23" isolation="isolate" opacity=".85" />
    <circle cx="714.77" cy="671.59" r="2.83" fill="#a51e23" isolation="isolate" opacity=".85" />
    <circle cx="671.33" cy="612.94" r="2.83" fill="#a51e23" isolation="isolate" opacity=".85" />
    <circle cx="584.96" cy="599.83" r="2.83" fill="#a51e23" isolation="isolate" opacity=".85" />
    <circle cx="655.24" cy="683.37" r="2.83" fill="#a51e23" isolation="isolate" opacity=".85" />
    <circle cx="689.99" cy="664.09" r="2.83" fill="#a51e23" isolation="isolate" opacity=".85" />
    <circle cx="667.53" cy="548.88" r="2.83" fill="#a51e23" isolation="isolate" opacity=".85" />
    <circle cx="750.45" cy="676.99" r="2.83" fill="#a51e23" isolation="isolate" opacity=".85" />
    <circle cx="655.96" cy="532.89" r="2.83" fill="#a51e23" isolation="isolate" opacity=".85" />
    <circle cx="683.1" cy="612.47" r="2.83" fill="#a51e23" isolation="isolate" opacity=".85" />
    <circle cx="734.82" cy="632.63" r="2.83" fill="#a51e23" isolation="isolate" opacity=".85" />
    <circle cx="681.97" cy="628.26" r="2.83" fill="#a51e23" isolation="isolate" opacity=".85" />
    <circle cx="656.16" cy="523.54" r="2.83" fill="#a51e23" isolation="isolate" opacity=".85" />
    <circle cx="748.08" cy="572.74" r="2.83" fill="#a51e23" isolation="isolate" opacity=".85" />
    <circle cx="757.95" cy="617.72" r="2.83" fill="#a51e23" isolation="isolate" opacity=".85" />
    <circle cx="697.44" cy="699.4" r="2.83" fill="#a51e23" isolation="isolate" opacity=".85" />
    <circle cx="716.31" cy="532.53" r="2.83" fill="#a51e23" isolation="isolate" opacity=".85" />
    <circle cx="705.05" cy="670.36" r="2.83" fill="#a51e23" isolation="isolate" opacity=".85" />
    <circle cx="760.01" cy="579.73" r="2.83" fill="#a51e23" isolation="isolate" opacity=".85" />
    <circle cx="686.39" cy="653.29" r="2.83" fill="#a51e23" isolation="isolate" opacity=".85" />
    <circle cx="614.37" cy="682.59" r="2.83" fill="#a51e23" isolation="isolate" opacity=".85" />
    <circle cx="698.83" cy="587.03" r="2.83" fill="#a51e23" isolation="isolate" opacity=".85" />
    <circle cx="618.17" cy="634.06" r="2.83" fill="#a51e23" isolation="isolate" opacity=".85" />
    <circle cx="773.99" cy="623.63" r="2.83" fill="#a51e23" isolation="isolate" opacity=".85" />
    <circle cx="603.68" cy="612.27" r="2.83" fill="#a51e23" isolation="isolate" opacity=".85" />
    <circle cx="773.48" cy="633.55" r="2.83" fill="#a51e23" isolation="isolate" opacity=".85" />
    <circle cx="598.33" cy="646.09" r="2.83" fill="#a51e23" isolation="isolate" opacity=".85" />
    <circle cx="611.8" cy="674.47" r="2.83" fill="#a51e23" isolation="isolate" opacity=".85" />
    <circle cx="602.85" cy="620.29" r="2.83" fill="#a51e23" isolation="isolate" opacity=".85" />
    <circle cx="669.32" cy="521.38" r="2.83" fill="#a51e23" isolation="isolate" opacity=".85" />
    <circle cx="648.35" cy="656.53" r="2.83" fill="#a51e23" isolation="isolate" opacity=".85" />
    <circle cx="680.27" cy="700.33" r="2.83" fill="#a51e23" isolation="isolate" opacity=".85" />
    <circle cx="721.04" cy="681.67" r="2.83" fill="#a51e23" isolation="isolate" opacity=".85" />
    <circle cx="751.68" cy="590.52" r="2.83" fill="#a51e23" isolation="isolate" opacity=".85" />
    <circle cx="722.89" cy="532.33" r="2.83" fill="#a51e23" isolation="isolate" opacity=".85" />
    <circle cx="661.66" cy="650.1" r="2.83" fill="#a51e23" isolation="isolate" opacity=".85" />
    <circle cx="695.7" cy="565.59" r="2.83" fill="#a51e23" isolation="isolate" opacity=".85" />
    <circle cx="646.29" cy="582.86" r="2.83" fill="#a51e23" isolation="isolate" opacity=".85" />
    <circle cx="618.12" cy="549.19" r="2.83" fill="#a51e23" isolation="isolate" opacity=".85" />
    <circle cx="745.77" cy="654.32" r="2.83" fill="#a51e23" isolation="isolate" opacity=".85" />
    <circle cx="773.17" cy="647.07" r="2.83" fill="#a51e23" isolation="isolate" opacity=".85" />
    <circle cx="618.53" cy="556.9" r="2.83" fill="#a51e23" isolation="isolate" opacity=".85" />
    <circle cx="625.88" cy="605.02" r="2.83" fill="#a51e23" isolation="isolate" opacity=".85" />
    <circle cx="689.73" cy="635.81" r="2.83" fill="#a51e23" isolation="isolate" opacity=".85" />
    <circle cx="607.02" cy="665.89" r="2.83" fill="#a51e23" isolation="isolate" opacity=".85" />
    <circle cx="720.27" cy="538.6" r="2.83" fill="#a51e23" isolation="isolate" opacity=".85" />
    <circle cx="705" cy="553.82" r="2.83" fill="#a51e23" isolation="isolate" opacity=".85" />
    <circle cx="656.01" cy="579.16" r="2.83" fill="#a51e23" isolation="isolate" opacity=".85" />
    <circle cx="633.13" cy="540.45" r="2.83" fill="#a51e23" isolation="isolate" opacity=".85" />
    <circle cx="695.7" cy="651.6" r="2.83" fill="#a51e23" isolation="isolate" opacity=".85" />
    <circle cx="634.52" cy="652.93" r="2.83" fill="#a51e23" isolation="isolate" opacity=".85" />
    <circle cx="635.55" cy="642.65" r="2.83" fill="#a51e23" isolation="isolate" opacity=".85" />
    <circle cx="595.81" cy="653.75" r="2.83" fill="#a51e23" isolation="isolate" opacity=".85" />
    <circle cx="609.43" cy="558.24" r="2.83" fill="#a51e23" isolation="isolate" opacity=".85" />
    <circle cx="726.34" cy="608.31" r="2.83" fill="#a51e23" isolation="isolate" opacity=".85" />
    <circle cx="708.55" cy="570.73" r="2.83" fill="#a51e23" isolation="isolate" opacity=".85" />
    <circle cx="714.15" cy="573.3" r="2.83" fill="#a51e23" isolation="isolate" opacity=".85" />
    <circle cx="676.83" cy="602.14" r="2.83" fill="#a51e23" isolation="isolate" opacity=".85" />
    <circle cx="762.63" cy="663.47" r="2.83" fill="#a51e23" isolation="isolate" opacity=".85" />
    <circle cx="690.3" cy="682.03" r="2.83" fill="#a51e23" isolation="isolate" opacity=".85" />
    <circle cx="702.53" cy="657.82" r="2.83" fill="#a51e23" isolation="isolate" opacity=".85" />
    <circle cx="708.34" cy="676.89" r="2.83" fill="#a51e23" isolation="isolate" opacity=".85" />
    <circle cx="701.81" cy="518.76" r="2.83" fill="#a51e23" isolation="isolate" opacity=".85" />
    <circle cx="720.37" cy="693.75" r="2.83" fill="#a51e23" isolation="isolate" opacity=".85" />
    <circle cx="758.93" cy="559.83" r="2.83" fill="#a51e23" isolation="isolate" opacity=".85" />
    <circle cx="726.39" cy="616.59" r="2.83" fill="#a51e23" isolation="isolate" opacity=".85" />
    <circle cx="632.16" cy="610.52" r="2.83" fill="#a51e23" isolation="isolate" opacity=".85" />
    <circle cx="673.08" cy="572.94" r="2.83" fill="#a51e23" isolation="isolate" opacity=".85" />
    <circle cx="649.17" cy="601.94" r="2.83" fill="#a51e23" isolation="isolate" opacity=".85" />
    <circle cx="741.19" cy="585.07" r="2.83" fill="#a51e23" isolation="isolate" opacity=".85" />
    <circle cx="653.75" cy="669.69" r="2.83" fill="#a51e23" isolation="isolate" opacity=".85" />
    <circle cx="720.06" cy="602.86" r="2.83" fill="#a51e23" isolation="isolate" opacity=".85" />
    <circle cx="642.75" cy="672.21" r="2.83" fill="#a51e23" isolation="isolate" opacity=".85" />
    <circle cx="628.87" cy="631.91" r="2.83" fill="#a51e23" isolation="isolate" opacity=".85" />
    <circle cx="686.03" cy="523.49" r="2.83" fill="#a51e23" isolation="isolate" opacity=".85" />
    <circle cx="738.06" cy="556.28" r="2.83" fill="#a51e23" isolation="isolate" opacity=".85" />
    <circle cx="761.6" cy="565.74" r="2.83" fill="#a51e23" isolation="isolate" opacity=".85" />
    <circle cx="618.23" cy="564.51" r="2.83" fill="#a51e23" isolation="isolate" opacity=".85" />
    <circle cx="683.72" cy="540.45" r="2.83" fill="#a51e23" isolation="isolate" opacity=".85" />
    <circle cx="731.84" cy="564.51" r="2.83" fill="#a51e23" isolation="isolate" opacity=".85" />
    <circle cx="611.8" cy="651.75" r="2.83" fill="#a51e23" isolation="isolate" opacity=".85" />
    <circle cx="659.35" cy="588.62" r="2.83" fill="#a51e23" isolation="isolate" opacity=".85" />
    <circle cx="668.55" cy="605.17" r="2.83" fill="#a51e23" isolation="isolate" opacity=".85" />
    <circle cx="674.83" cy="642.8" r="2.83" fill="#a51e23" isolation="isolate" opacity=".85" />
    <circle cx="677.96" cy="676.63" r="2.83" fill="#a51e23" isolation="isolate" opacity=".85" />
    <circle cx="622.08" cy="652.88" r="2.83" fill="#a51e23" isolation="isolate" opacity=".85" />
    <circle cx="716.62" cy="622.04" r="2.83" fill="#a51e23" isolation="isolate" opacity=".85" />
    <circle cx="647.01" cy="522.36" r="2.83" fill="#a51e23" isolation="isolate" opacity=".85" />
    <circle cx="621.93" cy="683.93" r="2.83" fill="#a51e23" isolation="isolate" opacity=".85" />
    <circle cx="663.62" cy="525.54" r="2.83" fill="#a51e23" isolation="isolate" opacity=".85" />
    <circle cx="707.42" cy="530.43" r="2.83" fill="#a51e23" isolation="isolate" opacity=".85" />
    <circle cx="703.3" cy="562.51" r="2.83" fill="#a51e23" isolation="isolate" opacity=".85" />
    <circle cx="603.21" cy="574.33" r="2.83" fill="#a51e23" isolation="isolate" opacity=".85" />
    <circle cx="711.89" cy="558.5" r="2.83" fill="#a51e23" isolation="isolate" opacity=".85" />
    <circle cx="636.53" cy="634.78" r="2.83" fill="#a51e23" isolation="isolate" opacity=".85" />
    <circle cx="738.57" cy="638.18" r="2.83" fill="#a51e23" isolation="isolate" opacity=".85" />
    <circle cx="662.8" cy="638.74" r="2.83" fill="#a51e23" isolation="isolate" opacity=".85" />
    <circle cx="750.19" cy="645.84" r="2.83" fill="#a51e23" isolation="isolate" opacity=".85" />
    <circle cx="672.56" cy="631.34" r="2.83" fill="#a51e23" isolation="isolate" opacity=".85" />
    <circle cx="746.85" cy="610.31" r="2.83" fill="#a51e23" isolation="isolate" opacity=".85" />
    <circle cx="696.26" cy="666.61" r="2.83" fill="#a51e23" isolation="isolate" opacity=".85" />
    <circle cx="603.52" cy="602.09" r="2.83" fill="#a51e23" isolation="isolate" opacity=".85" />
    <circle cx="672.97" cy="538.29" r="2.83" fill="#a51e23" isolation="isolate" opacity=".85" />
    <circle cx="718.73" cy="613.81" r="2.83" fill="#a51e23" isolation="isolate" opacity=".85" />
    <circle cx="685.47" cy="559.83" r="2.83" fill="#a51e23" isolation="isolate" opacity=".85" />
    <circle cx="643.47" cy="534.18" r="2.83" fill="#a51e23" isolation="isolate" opacity=".85" />
    <circle cx="716.41" cy="554.07" r="2.83" fill="#a51e23" isolation="isolate" opacity=".85" />
    <circle cx="637.45" cy="598.49" r="2.83" fill="#a51e23" isolation="isolate" opacity=".85" />
    <circle cx="598.74" cy="635.71" r="2.83" fill="#a51e23" isolation="isolate" opacity=".85" />
    <circle cx="592.88" cy="598.8" r="2.83" fill="#a51e23" isolation="isolate" opacity=".85" />
    <circle cx="635.09" cy="576.03" r="2.83" fill="#a51e23" isolation="isolate" opacity=".85" />
    <circle cx="624.19" cy="538.45" r="2.83" fill="#a51e23" isolation="isolate" opacity=".85" />
    <circle cx="646.91" cy="627.23" r="2.83" fill="#a51e23" isolation="isolate" opacity=".85" />
    <circle cx="637.35" cy="535.62" r="2.83" fill="#a51e23" isolation="isolate" opacity=".85" />
    <circle cx="652.26" cy="704.96" r="2.83" fill="#a51e23" isolation="isolate" opacity=".85" />
    <circle cx="759.39" cy="602.29" r="2.83" fill="#a51e23" isolation="isolate" opacity=".85" />
    <circle cx="714.67" cy="657.35" r="2.83" fill="#a51e23" isolation="isolate" opacity=".85" />
    <circle cx="704.18" cy="615.51" r="2.83" fill="#a51e23" isolation="isolate" opacity=".85" />
    <circle cx="668.19" cy="623.63" r="2.83" fill="#a51e23" isolation="isolate" opacity=".85" />
    <circle cx="676.98" cy="565.08" r="2.83" fill="#a51e23" isolation="isolate" opacity=".85" />
    <circle cx="746.44" cy="672.36" r="2.83" fill="#a51e23" isolation="isolate" opacity=".85" />
    <circle cx="733.53" cy="547.44" r="2.83" fill="#a51e23" isolation="isolate" opacity=".85" />
    <circle cx="619" cy="583.43" r="2.83" fill="#a51e23" isolation="isolate" opacity=".85" />
    <circle cx="705.26" cy="577.46" r="2.83" fill="#a51e23" isolation="isolate" opacity=".85" />
    <circle cx="764.22" cy="629.08" r="2.83" fill="#a51e23" isolation="isolate" opacity=".85" />
    <circle cx="691.79" cy="574.17" r="2.83" fill="#a51e23" isolation="isolate" opacity=".85" />
    <circle cx="671.18" cy="662.19" r="2.83" fill="#a51e23" isolation="isolate" opacity=".85" />
    <circle cx="634.11" cy="548.06" r="2.83" fill="#a51e23" isolation="isolate" opacity=".85" />
    <circle cx="657.04" cy="622.09" r="2.83" fill="#a51e23" isolation="isolate" opacity=".85" />
    <circle cx="670.2" cy="585.33" r="2.83" fill="#a51e23" isolation="isolate" opacity=".85" />
    <circle cx="637.86" cy="567.85" r="2.83" fill="#a51e23" isolation="isolate" opacity=".85" />
    <circle cx="672.15" cy="652.78" r="2.83" fill="#a51e23" isolation="isolate" opacity=".85" />
    <circle cx="774.35" cy="583.07" r="2.83" fill="#a51e23" isolation="isolate" opacity=".85" />
    <circle cx="745.82" cy="602.29" r="2.83" fill="#a51e23" isolation="isolate" opacity=".85" />
    <circle cx="708.03" cy="589.7" r="2.83" fill="#a51e23" isolation="isolate" opacity=".85" />
    <circle cx="764.38" cy="618.13" r="2.83" fill="#a51e23" isolation="isolate" opacity=".85" />
    <circle cx="629.28" cy="599" r="2.83" fill="#a51e23" isolation="isolate" opacity=".85" />
    <circle cx="646.5" cy="639.05" r="2.83" fill="#a51e23" isolation="isolate" opacity=".85" />
    <circle cx="644.65" cy="610.88" r="2.83" fill="#a51e23" isolation="isolate" opacity=".85" />
    <circle cx="597.87" cy="577.16" r="2.83" fill="#a51e23" isolation="isolate" opacity=".85" />
    <circle cx="592.73" cy="608.21" r="2.83" fill="#a51e23" isolation="isolate" opacity=".85" />
    <circle cx="747.31" cy="561.17" r="2.83" fill="#a51e23" isolation="isolate" opacity=".85" />
    <circle cx="719.6" cy="665.63" r="2.83" fill="#a51e23" isolation="isolate" opacity=".85" />
    <circle cx="740.32" cy="674.57" r="2.83" fill="#a51e23" isolation="isolate" opacity=".85" />
    <circle cx="671.28" cy="669.9" r="2.83" fill="#a51e23" isolation="isolate" opacity=".85" />
    <circle cx="646.19" cy="693.34" r="2.83" fill="#a51e23" isolation="isolate" opacity=".85" />
    <circle cx="729.52" cy="637.87" r="2.83" fill="#a51e23" isolation="isolate" opacity=".85" />
    <circle cx="753.43" cy="583.99" r="2.83" fill="#a51e23" isolation="isolate" opacity=".85" />
    <circle cx="667.78" cy="575.87" r="2.83" fill="#a51e23" isolation="isolate" opacity=".85" />
    <circle cx="740.47" cy="661.11" r="2.83" fill="#a51e23" isolation="isolate" opacity=".85" />
    <circle cx="598.54" cy="583.58" r="2.83" fill="#a51e23" isolation="isolate" opacity=".85" />
    <circle cx="676.47" cy="548.93" r="2.83" fill="#a51e23" isolation="isolate" opacity=".85" />
    <circle cx="689.84" cy="537.16" r="2.83" fill="#a51e23" isolation="isolate" opacity=".85" />
    <circle cx="663.36" cy="690.05" r="2.83" fill="#a51e23" isolation="isolate" opacity=".85" />
    <circle cx="707.83" cy="602.29" r="2.83" fill="#a51e23" isolation="isolate" opacity=".85" />
    <circle cx="652.62" cy="539.78" r="2.83" fill="#a51e23" isolation="isolate" opacity=".85" />
    <circle cx="687.68" cy="605.89" r="2.83" fill="#a51e23" isolation="isolate" opacity=".85" />
    <circle cx="583.94" cy="626.35" r="2.83" fill="#a51e23" isolation="isolate" opacity=".85" />
    <circle cx="763.71" cy="649.95" r="2.83" fill="#a51e23" isolation="isolate" opacity=".85" />
    <circle cx="683.77" cy="588.72" r="2.83" fill="#a51e23" isolation="isolate" opacity=".85" />
    <circle cx="599.26" cy="562.25" r="2.83" fill="#a51e23" isolation="isolate" opacity=".85" />
    <circle cx="632.67" cy="531.56" r="2.83" fill="#a51e23" isolation="isolate" opacity=".85" />
    <circle cx="642.7" cy="647.48" r="2.83" fill="#a51e23" isolation="isolate" opacity=".85" />
    <circle cx="678.32" cy="616.43" r="2.83" fill="#a51e23" isolation="isolate" opacity=".85" />
    <circle cx="663.26" cy="672.11" r="2.83" fill="#a51e23" isolation="isolate" opacity=".85" />
    <circle cx="701.92" cy="707.27" r="2.83" fill="#a51e23" isolation="isolate" opacity=".85" />
    <circle cx="647.99" cy="569.45" r="2.83" fill="#a51e23" isolation="isolate" opacity=".85" />
    <circle cx="679.81" cy="518.09" r="2.83" fill="#a51e23" isolation="isolate" opacity=".85" />
    <circle cx="623.57" cy="592.73" r="2.83" fill="#a51e23" isolation="isolate" opacity=".85" />
    <circle cx="655.8" cy="654.06" r="2.83" fill="#a51e23" isolation="isolate" opacity=".85" />
    <circle cx="661.61" cy="679.72" r="2.83" fill="#a51e23" isolation="isolate" opacity=".85" />
    <circle cx="727.42" cy="673.96" r="2.83" fill="#a51e23" isolation="isolate" opacity=".85" />
    <circle cx="658.63" cy="548.63" r="2.83" fill="#a51e23" isolation="isolate" opacity=".85" />
    <circle cx="627.38" cy="676.12" r="2.83" fill="#a51e23" isolation="isolate" opacity=".85" />
    <circle cx="727.16" cy="658.64" r="2.83" fill="#a51e23" isolation="isolate" opacity=".85" />
    <circle cx="697.19" cy="613.66" r="2.83" fill="#a51e23" isolation="isolate" opacity=".85" />
    <circle cx="723.87" cy="574.02" r="2.83" fill="#a51e23" isolation="isolate" opacity=".85" />
    <circle cx="625.52" cy="583.84" r="2.83" fill="#a51e23" isolation="isolate" opacity=".85" />
    <circle cx="639.76" cy="615.35" r="2.83" fill="#a51e23" isolation="isolate" opacity=".85" />
    <circle cx="695.75" cy="691.33" r="2.83" fill="#a51e23" isolation="isolate" opacity=".85" />
    <circle cx="623.88" cy="614.89" r="2.83" fill="#a51e23" isolation="isolate" opacity=".85" />
    <circle cx="732.97" cy="576.9" r="2.83" fill="#a51e23" isolation="isolate" opacity=".85" />
    <circle cx="612.26" cy="582.86" r="2.83" fill="#a51e23" isolation="isolate" opacity=".85" />
    <circle cx="705.67" cy="652.21" r="2.83" fill="#a51e23" isolation="isolate" opacity=".85" />
    <circle cx="747.88" cy="686.24" r="2.83" fill="#a51e23" isolation="isolate" opacity=".85" />
    <circle cx="752.5" cy="637.3" r="2.83" fill="#a51e23" isolation="isolate" opacity=".85" />
    <circle cx="613.14" cy="571.14" r="2.83" fill="#a51e23" isolation="isolate" opacity=".85" />
    <circle cx="617.25" cy="616.89" r="2.83" fill="#a51e23" isolation="isolate" opacity=".85" />
    <circle cx="741.19" cy="681.87" r="2.83" fill="#a51e23" isolation="isolate" opacity=".85" />
    <circle cx="687.68" cy="546.21" r="2.83" fill="#a51e23" isolation="isolate" opacity=".85" />
    <circle cx="741.86" cy="622.19" r="2.83" fill="#a51e23" isolation="isolate" opacity=".85" />
    <circle cx="648.97" cy="674.68" r="2.83" fill="#a51e23" isolation="isolate" opacity=".85" />
    <circle cx="687.57" cy="578.9" r="2.83" fill="#a51e23" isolation="isolate" opacity=".85" />
    <circle cx="607.02" cy="628.15" r="2.83" fill="#a51e23" isolation="isolate" opacity=".85" />
    <circle cx="748.13" cy="580.55" r="2.83" fill="#a51e23" isolation="isolate" opacity=".85" />
    <circle cx="677.5" cy="689.53" r="2.83" fill="#a51e23" isolation="isolate" opacity=".85" />
    <circle cx="732.66" cy="529.4" r="2.83" fill="#a51e23" isolation="isolate" opacity=".85" />
    <circle cx="684.49" cy="570.88" r="2.83" fill="#a51e23" isolation="isolate" opacity=".85" />
    <circle cx="628.2" cy="625.58" r="2.83" fill="#a51e23" isolation="isolate" opacity=".85" />
    <circle cx="600.75" cy="672.26" r="2.83" fill="#a51e23" isolation="isolate" opacity=".85" />
    <circle cx="740.63" cy="565.9" r="2.83" fill="#a51e23" isolation="isolate" opacity=".85" />
    <circle cx="664.29" cy="540.61" r="2.83" fill="#a51e23" isolation="isolate" opacity=".85" />
    <circle cx="624.09" cy="670.62" r="2.83" fill="#a51e23" isolation="isolate" opacity=".85" />
    <circle cx="656.88" cy="637.36" r="2.83" fill="#a51e23" isolation="isolate" opacity=".85" />
    <circle cx="596.48" cy="613.91" r="2.83" fill="#a51e23" isolation="isolate" opacity=".85" />
    <circle cx="687.68" cy="517.27" r="2.83" fill="#a51e23" isolation="isolate" opacity=".85" />
    <circle cx="679.71" cy="662.08" r="2.83" fill="#a51e23" isolation="isolate" opacity=".85" />
    <circle cx="651.95" cy="559.22" r="2.83" fill="#a51e23" isolation="isolate" opacity=".85" />
    <circle cx="687.06" cy="698.58" r="2.83" fill="#a51e23" isolation="isolate" opacity=".85" />
    <circle cx="701.4" cy="531.87" r="2.83" fill="#a51e23" isolation="isolate" opacity=".85" />
    <circle cx="756.87" cy="665.83" r="2.83" fill="#a51e23" isolation="isolate" opacity=".85" />
    <circle cx="647.12" cy="590.37" r="2.83" fill="#a51e23" isolation="isolate" opacity=".85" />
    <circle cx="591.29" cy="643.16" r="2.83" fill="#a51e23" isolation="isolate" opacity=".85" />
    <circle cx="674.83" cy="625.02" r="2.83" fill="#a51e23" isolation="isolate" opacity=".85" />
    <circle cx="730.19" cy="697.3" r="2.83" fill="#a51e23" isolation="isolate" opacity=".85" />
    <circle cx="617.2" cy="666.71" r="2.83" fill="#a51e23" isolation="isolate" opacity=".85" />
    <circle cx="637.45" cy="626.3" r="2.83" fill="#a51e23" isolation="isolate" opacity=".85" />
    <circle cx="631.95" cy="591.09" r="2.83" fill="#a51e23" isolation="isolate" opacity=".85" />
    <circle cx="707.47" cy="546.72" r="2.83" fill="#a51e23" isolation="isolate" opacity=".85" />
    <circle cx="660.33" cy="556.85" r="2.83" fill="#a51e23" isolation="isolate" opacity=".85" />
    <circle cx="658.73" cy="663.83" r="2.83" fill="#a51e23" isolation="isolate" opacity=".85" />
    <circle cx="701.76" cy="605.94" r="2.83" fill="#a51e23" isolation="isolate" opacity=".85" />
    <circle cx="728.29" cy="628.82" r="2.83" fill="#a51e23" isolation="isolate" opacity=".85" />
    <circle cx="654.57" cy="570.52" r="2.83" fill="#a51e23" isolation="isolate" opacity=".85" />
    <circle cx="656.27" cy="631.19" r="2.83" fill="#a51e23" isolation="isolate" opacity=".85" />
    <circle cx="707.88" cy="628.67" r="2.83" fill="#a51e23" isolation="isolate" opacity=".85" />
    <circle cx="725.62" cy="550.42" r="2.83" fill="#a51e23" isolation="isolate" opacity=".85" />
    <circle cx="638.02" cy="663.73" r="2.83" fill="#a51e23" isolation="isolate" opacity=".85" />
    <circle cx="697.24" cy="551.66" r="2.83" fill="#a51e23" isolation="isolate" opacity=".85" />
    <circle cx="663.93" cy="532.79" r="2.83" fill="#a51e23" isolation="isolate" opacity=".85" />
    <circle cx="718.26" cy="589.7" r="2.83" fill="#a51e23" isolation="isolate" opacity=".85" />
    <circle cx="742.27" cy="630.83" r="2.83" fill="#a51e23" isolation="isolate" opacity=".85" />
    <circle cx="671.48" cy="598.75" r="2.83" fill="#a51e23" isolation="isolate" opacity=".85" />
    <circle cx="685.57" cy="644.91" r="2.83" fill="#a51e23" isolation="isolate" opacity=".85" />
    <circle cx="711.12" cy="646.61" r="2.83" fill="#a51e23" isolation="isolate" opacity=".85" />
    <circle cx="692.92" cy="589.91" r="2.83" fill="#a51e23" isolation="isolate" opacity=".85" />
    <circle cx="723.71" cy="642.08" r="2.83" fill="#a51e23" isolation="isolate" opacity=".85" />
    <circle cx="727.47" cy="601.42" r="2.83" fill="#a51e23" isolation="isolate" opacity=".85" />
    <circle cx="664.29" cy="566.67" r="2.83" fill="#a51e23" isolation="isolate" opacity=".85" />
    <circle cx="722.84" cy="631.55" r="2.83" fill="#a51e23" isolation="isolate" opacity=".85" />
    <circle cx="714.2" cy="694.01" r="2.83" fill="#a51e23" isolation="isolate" opacity=".85" />
    <circle cx="773.89" cy="607.64" r="2.83" fill="#a51e23" isolation="isolate" opacity=".85" />
    <circle cx="697.65" cy="599.93" r="2.83" fill="#a51e23" isolation="isolate" opacity=".85" />
    <circle cx="699.14" cy="623.94" r="2.83" fill="#a51e23" isolation="isolate" opacity=".85" />
    <circle cx="734.97" cy="688.97" r="2.83" fill="#a51e23" isolation="isolate" opacity=".85" />
    <circle cx="769.67" cy="592.78" r="2.83" fill="#a51e23" isolation="isolate" opacity=".85" />
    <circle cx="619.61" cy="573.66" r="2.83" fill="#a51e23" isolation="isolate" opacity=".85" />
    <circle cx="702.07" cy="678.48" r="2.83" fill="#a51e23" isolation="isolate" opacity=".85" />
    <circle cx="612.98" cy="639.62" r="2.83" fill="#a51e23" isolation="isolate" opacity=".85" />
    <circle cx="736.05" cy="540.45" r="2.83" fill="#a51e23" isolation="isolate" opacity=".85" />
    <circle cx="635.24" cy="672" r="2.83" fill="#a51e23" isolation="isolate" opacity=".85" />
    <circle cx="622.18" cy="622.19" r="2.83" fill="#a51e23" isolation="isolate" opacity=".85" />
    <circle cx="660.17" cy="596.18" r="2.83" fill="#a51e23" isolation="isolate" opacity=".85" />
    <circle cx="733.94" cy="617.82" r="2.83" fill="#a51e23" isolation="isolate" opacity=".85" />
    <circle cx="690.4" cy="674.42" r="2.83" fill="#a51e23" isolation="isolate" opacity=".85" />
    <circle cx="754.61" cy="568.78" r="2.83" fill="#a51e23" isolation="isolate" opacity=".85" />
    <circle cx="604.76" cy="640.65" r="2.83" fill="#a51e23" isolation="isolate" opacity=".85" />
    <circle cx="659.92" cy="698.43" r="2.83" fill="#a51e23" isolation="isolate" opacity=".85" />
    <circle cx="641.1" cy="527.81" r="2.83" fill="#a51e23" isolation="isolate" opacity=".85" />
    <circle cx="631.39" cy="697.6" r="2.83" fill="#a51e23" isolation="isolate" opacity=".85" />
    <circle cx="670.1" cy="554.9" r="2.83" fill="#a51e23" isolation="isolate" opacity=".85" />
    <circle cx="706.85" cy="538.29" r="2.83" fill="#a51e23" isolation="isolate" opacity=".85" />
    <circle cx="687.16" cy="709.22" r="2.83" fill="#a51e23" isolation="isolate" opacity=".85" />
    <circle cx="649.64" cy="618.95" r="2.83" fill="#a51e23" isolation="isolate" opacity=".85" />
    <circle cx="592.01" cy="572.68" r="2.83" fill="#a51e23" isolation="isolate" opacity=".85" />
    <circle cx="657.91" cy="516.65" r="2.83" fill="#a51e23" isolation="isolate" opacity=".85" />
    <circle cx="724.13" cy="700.59" r="2.83" fill="#a51e23" isolation="isolate" opacity=".85" />
    <circle cx="770.55" cy="571.3" r="2.83" fill="#a51e23" isolation="isolate" opacity=".85" />
    <circle cx="653.85" cy="696.11" r="2.83" fill="#a51e23" isolation="isolate" opacity=".85" />
    <circle cx="713.74" cy="640.29" r="2.83" fill="#a51e23" isolation="isolate" opacity=".85" />
    <circle cx="763.45" cy="593.66" r="2.83" fill="#a51e23" isolation="isolate" opacity=".85" />
    <circle cx="609.49" cy="545.69" r="2.83" fill="#a51e23" isolation="isolate" opacity=".85" />
    <circle cx="720.53" cy="651.6" r="2.83" fill="#a51e23" isolation="isolate" opacity=".85" />
    <circle cx="710.71" cy="518.96" r="2.83" fill="#a51e23" isolation="isolate" opacity=".85" />
    <circle cx="777.18" cy="613.71" r="2.83" fill="#a51e23" isolation="isolate" opacity=".85" />
    <circle cx="686.39" cy="691.08" r="2.83" fill="#a51e23" isolation="isolate" opacity=".85" />
    <circle cx="750.09" cy="623.01" r="2.83" fill="#a51e23" isolation="isolate" opacity=".85" />
    <circle cx="725.77" cy="557.31" r="2.83" fill="#a51e23" isolation="isolate" opacity=".85" />
    <circle cx="630.51" cy="560.71" r="2.83" fill="#a51e23" isolation="isolate" opacity=".85" />
    <circle cx="684.18" cy="675.71" r="2.83" fill="#a51e23" isolation="isolate" opacity=".85" />
    <circle cx="640.07" cy="583.22" r="2.83" fill="#a51e23" isolation="isolate" opacity=".85" />
    <circle cx="682.64" cy="594.79" r="2.83" fill="#a51e23" isolation="isolate" opacity=".85" />
    <circle cx="616.43" cy="625.12" r="2.83" fill="#a51e23" isolation="isolate" opacity=".85" />
    <circle cx="730.45" cy="646.92" r="2.83" fill="#a51e23" isolation="isolate" opacity=".85" />
    <circle cx="695.23" cy="630.88" r="2.83" fill="#a51e23" isolation="isolate" opacity=".85" />
    <circle cx="597.4" cy="628.56" r="2.83" fill="#a51e23" isolation="isolate" opacity=".85" />
    <circle cx="702.28" cy="594.02" r="2.83" fill="#a51e23" isolation="isolate" opacity=".85" />
    <circle cx="682.02" cy="621.62" r="2.83" fill="#a51e23" isolation="isolate" opacity=".85" />
    <circle cx="727.72" cy="688.92" r="2.83" fill="#a51e23" isolation="isolate" opacity=".85" />
    <circle cx="674.05" cy="531.35" r="2.83" fill="#a51e23" isolation="isolate" opacity=".85" />
    <circle cx="664.95" cy="665.22" r="2.83" fill="#a51e23" isolation="isolate" opacity=".85" />
    <circle cx="627.12" cy="547.7" r="2.83" fill="#a51e23" isolation="isolate" opacity=".85" />
    <circle cx="728.65" cy="681.82" r="2.83" fill="#a51e23" isolation="isolate" opacity=".85" />
    <circle cx="776.25" cy="601.01" r="2.83" fill="#a51e23" isolation="isolate" opacity=".85" />
    <circle cx="616.37" cy="537.78" r="2.83" fill="#a51e23" isolation="isolate" opacity=".85" />
    <circle cx="640.9" cy="544.77" r="2.83" fill="#a51e23" isolation="isolate" opacity=".85" />
    <circle cx="735.85" cy="570.68" r="2.83" fill="#a51e23" isolation="isolate" opacity=".85" />
  </g>
  <g>
    <circle cx="887.34" cy="610.8" r="2.57" fill="#237c3e" isolation="isolate" opacity=".85" />
    <circle cx="849.45" cy="580.99" r="2.57" fill="#237c3e" isolation="isolate" opacity=".85" />
    <circle cx="889.71" cy="536.93" r="2.57" fill="#237c3e" isolation="isolate" opacity=".85" />
    <circle cx="895.16" cy="661.75" r="2.57" fill="#237c3e" isolation="isolate" opacity=".85" />
    <circle cx="840.25" cy="638.1" r="2.57" fill="#237c3e" isolation="isolate" opacity=".85" />
    <circle cx="860.04" cy="672.03" r="2.57" fill="#237c3e" isolation="isolate" opacity=".85" />
    <circle cx="980.08" cy="555.54" r="2.57" fill="#237c3e" isolation="isolate" opacity=".85" />
    <circle cx="1002.29" cy="656.5" r="2.57" fill="#237c3e" isolation="isolate" opacity=".85" />
    <circle cx="848.07" cy="594.87" r="2.57" fill="#237c3e" isolation="isolate" opacity=".85" />
    <circle cx="972.83" cy="697.53" r="2.57" fill="#237c3e" isolation="isolate" opacity=".85" />
    <circle cx="867.45" cy="563.66" r="2.57" fill="#237c3e" isolation="isolate" opacity=".85" />
    <circle cx="982.96" cy="576.67" r="2.57" fill="#237c3e" isolation="isolate" opacity=".85" />
    <circle cx="910.27" cy="688.22" r="2.57" fill="#237c3e" isolation="isolate" opacity=".85" />
    <circle cx="981.88" cy="645.25" r="2.57" fill="#237c3e" isolation="isolate" opacity=".85" />
    <circle cx="994.73" cy="641.75" r="2.57" fill="#237c3e" isolation="isolate" opacity=".85" />
    <circle cx="951.4" cy="525.36" r="2.57" fill="#237c3e" isolation="isolate" opacity=".85" />
    <circle cx="903.17" cy="638.36" r="2.57" fill="#237c3e" isolation="isolate" opacity=".85" />
    <circle cx="836.5" cy="613.17" r="2.57" fill="#237c3e" isolation="isolate" opacity=".85" />
    <circle cx="957.46" cy="572.04" r="2.57" fill="#237c3e" isolation="isolate" opacity=".85" />
    <circle cx="915.77" cy="680.1" r="2.57" fill="#237c3e" isolation="isolate" opacity=".85" />
    <circle cx="861.74" cy="604.27" r="2.57" fill="#237c3e" isolation="isolate" opacity=".85" />
    <circle cx="1009.13" cy="635.58" r="2.57" fill="#237c3e" isolation="isolate" opacity=".85" />
    <circle cx="964.4" cy="617.28" r="2.57" fill="#237c3e" isolation="isolate" opacity=".85" />
    <circle cx="890.63" cy="573.43" r="2.57" fill="#237c3e" isolation="isolate" opacity=".85" />
    <circle cx="869.61" cy="637.53" r="2.57" fill="#237c3e" isolation="isolate" opacity=".85" />
    <circle cx="853.62" cy="637.89" r="2.57" fill="#237c3e" isolation="isolate" opacity=".85" />
    <circle cx="948" cy="585.72" r="2.57" fill="#237c3e" isolation="isolate" opacity=".85" />
    <circle cx="888.63" cy="601.04" r="2.57" fill="#237c3e" isolation="isolate" opacity=".85" />
    <circle cx="989.69" cy="691.82" r="2.57" fill="#237c3e" isolation="isolate" opacity=".85" />
    <circle cx="911.35" cy="633.68" r="2.57" fill="#237c3e" isolation="isolate" opacity=".85" />
    <circle cx="849.61" cy="652.24" r="2.57" fill="#237c3e" isolation="isolate" opacity=".85" />
    <circle cx="983.63" cy="602.58" r="2.57" fill="#237c3e" isolation="isolate" opacity=".85" />
    <circle cx="1002.44" cy="591.01" r="2.57" fill="#237c3e" isolation="isolate" opacity=".85" />
    <circle cx="913.35" cy="588.65" r="2.57" fill="#237c3e" isolation="isolate" opacity=".85" />
    <circle cx="974.68" cy="689.56" r="2.57" fill="#237c3e" isolation="isolate" opacity=".85" />
    <circle cx="847.5" cy="631.11" r="2.57" fill="#237c3e" isolation="isolate" opacity=".85" />
    <circle cx="999.77" cy="651.47" r="2.57" fill="#237c3e" isolation="isolate" opacity=".85" />
    <circle cx="879.78" cy="586.13" r="2.57" fill="#237c3e" isolation="isolate" opacity=".85" />
    <circle cx="1009.9" cy="556.46" r="2.57" fill="#237c3e" isolation="isolate" opacity=".85" />
    <circle cx="1023.37" cy="591.58" r="2.57" fill="#237c3e" isolation="isolate" opacity=".85" />
    <circle cx="936.9" cy="654.65" r="2.57" fill="#237c3e" isolation="isolate" opacity=".85" />
    <circle cx="968.98" cy="631.21" r="2.57" fill="#237c3e" isolation="isolate" opacity=".85" />
    <circle cx="1006.14" cy="641.18" r="2.57" fill="#237c3e" isolation="isolate" opacity=".85" />
    <circle cx="1015.86" cy="643.4" r="2.57" fill="#237c3e" isolation="isolate" opacity=".85" />
    <circle cx="957.05" cy="587.31" r="2.57" fill="#237c3e" isolation="isolate" opacity=".85" />
    <circle cx="963.27" cy="675.68" r="2.57" fill="#237c3e" isolation="isolate" opacity=".85" />
    <circle cx="1031.59" cy="605.76" r="2.57" fill="#237c3e" isolation="isolate" opacity=".85" />
    <circle cx="1012.47" cy="626.28" r="2.57" fill="#237c3e" isolation="isolate" opacity=".85" />
    <circle cx="909.96" cy="679.38" r="2.57" fill="#237c3e" isolation="isolate" opacity=".85" />
    <circle cx="845.55" cy="585.77" r="2.57" fill="#237c3e" isolation="isolate" opacity=".85" />
    <circle cx="971.91" cy="529.73" r="2.57" fill="#237c3e" isolation="isolate" opacity=".85" />
    <circle cx="943.58" cy="590.96" r="2.57" fill="#237c3e" isolation="isolate" opacity=".85" />
    <circle cx="877.01" cy="594.46" r="2.57" fill="#237c3e" isolation="isolate" opacity=".85" />
    <circle cx="951.09" cy="668.23" r="2.57" fill="#237c3e" isolation="isolate" opacity=".85" />
    <circle cx="914.74" cy="629.21" r="2.57" fill="#237c3e" isolation="isolate" opacity=".85" />
    <circle cx="852.95" cy="645.09" r="2.57" fill="#237c3e" isolation="isolate" opacity=".85" />
    <circle cx="966.2" cy="638.36" r="2.57" fill="#237c3e" isolation="isolate" opacity=".85" />
    <circle cx="963.63" cy="568.85" r="2.57" fill="#237c3e" isolation="isolate" opacity=".85" />
    <circle cx="1005.89" cy="646.94" r="2.57" fill="#237c3e" isolation="isolate" opacity=".85" />
    <circle cx="958.18" cy="542.53" r="2.57" fill="#237c3e" isolation="isolate" opacity=".85" />
    <circle cx="948.05" cy="697.68" r="2.57" fill="#237c3e" isolation="isolate" opacity=".85" />
    <circle cx="909.24" cy="517.34" r="2.57" fill="#237c3e" isolation="isolate" opacity=".85" />
    <circle cx="857.42" cy="620.88" r="2.57" fill="#237c3e" isolation="isolate" opacity=".85" />
    <circle cx="915.26" cy="581.04" r="2.57" fill="#237c3e" isolation="isolate" opacity=".85" />
    <circle cx="921.12" cy="638.56" r="2.57" fill="#237c3e" isolation="isolate" opacity=".85" />
    <circle cx="933.4" cy="567.62" r="2.57" fill="#237c3e" isolation="isolate" opacity=".85" />
    <circle cx="1006.5" cy="674.96" r="2.57" fill="#237c3e" isolation="isolate" opacity=".85" />
    <circle cx="939.83" cy="560.53" r="2.57" fill="#237c3e" isolation="isolate" opacity=".85" />
    <circle cx="964.66" cy="604.48" r="2.57" fill="#237c3e" isolation="isolate" opacity=".85" />
    <circle cx="985.89" cy="682.72" r="2.57" fill="#237c3e" isolation="isolate" opacity=".85" />
    <circle cx="926" cy="534.87" r="2.57" fill="#237c3e" isolation="isolate" opacity=".85" />
    <circle cx="1012.93" cy="614.56" r="2.57" fill="#237c3e" isolation="isolate" opacity=".85" />
    <circle cx="916.49" cy="552.1" r="2.57" fill="#237c3e" isolation="isolate" opacity=".85" />
    <circle cx="936.85" cy="686.53" r="2.57" fill="#237c3e" isolation="isolate" opacity=".85" />
    <circle cx="937.52" cy="639.9" r="2.57" fill="#237c3e" isolation="isolate" opacity=".85" />
    <circle cx="971.7" cy="595.74" r="2.57" fill="#237c3e" isolation="isolate" opacity=".85" />
    <circle cx="957.51" cy="518.01" r="2.57" fill="#237c3e" isolation="isolate" opacity=".85" />
    <circle cx="951.5" cy="662.16" r="2.57" fill="#237c3e" isolation="isolate" opacity=".85" />
    <circle cx="902.35" cy="586.44" r="2.57" fill="#237c3e" isolation="isolate" opacity=".85" />
    <circle cx="901.38" cy="572.04" r="2.57" fill="#237c3e" isolation="isolate" opacity=".85" />
    <circle cx="941.83" cy="521.87" r="2.57" fill="#237c3e" isolation="isolate" opacity=".85" />
    <circle cx="960.39" cy="705.75" r="2.57" fill="#237c3e" isolation="isolate" opacity=".85" />
    <circle cx="983.73" cy="634.5" r="2.57" fill="#237c3e" isolation="isolate" opacity=".85" />
    <circle cx="969.54" cy="588.29" r="2.57" fill="#237c3e" isolation="isolate" opacity=".85" />
    <circle cx="999.1" cy="682.88" r="2.57" fill="#237c3e" isolation="isolate" opacity=".85" />
    <circle cx="906.67" cy="665.5" r="2.57" fill="#237c3e" isolation="isolate" opacity=".85" />
    <circle cx="1020.28" cy="602.47" r="2.57" fill="#237c3e" isolation="isolate" opacity=".85" />
    <circle cx="1020.64" cy="572.76" r="2.57" fill="#237c3e" isolation="isolate" opacity=".85" />
    <circle cx="837.53" cy="619.7" r="2.57" fill="#237c3e" isolation="isolate" opacity=".85" />
    <circle cx="880.71" cy="602.89" r="2.57" fill="#237c3e" isolation="isolate" opacity=".85" />
    <circle cx="915.15" cy="699.28" r="2.57" fill="#237c3e" isolation="isolate" opacity=".85" />
    <circle cx="1019.1" cy="613.48" r="2.57" fill="#237c3e" isolation="isolate" opacity=".85" />
    <circle cx="961.32" cy="524.75" r="2.57" fill="#237c3e" isolation="isolate" opacity=".85" />
    <circle cx="870.58" cy="677.99" r="2.57" fill="#237c3e" isolation="isolate" opacity=".85" />
    <circle cx="924.56" cy="611.93" r="2.57" fill="#237c3e" isolation="isolate" opacity=".85" />
    <circle cx="867.19" cy="606.28" r="2.57" fill="#237c3e" isolation="isolate" opacity=".85" />
    <circle cx="1003.63" cy="583.2" r="2.57" fill="#237c3e" isolation="isolate" opacity=".85" />
    <circle cx="889.45" cy="557.29" r="2.57" fill="#237c3e" isolation="isolate" opacity=".85" />
    <circle cx="963.27" cy="662.88" r="2.57" fill="#237c3e" isolation="isolate" opacity=".85" />
    <circle cx="886.98" cy="647.66" r="2.57" fill="#237c3e" isolation="isolate" opacity=".85" />
    <circle cx="887.75" cy="530.5" r="2.57" fill="#237c3e" isolation="isolate" opacity=".85" />
    <circle cx="876.13" cy="684.52" r="2.57" fill="#237c3e" isolation="isolate" opacity=".85" />
    <circle cx="907.39" cy="643.65" r="2.57" fill="#237c3e" isolation="isolate" opacity=".85" />
    <circle cx="922.5" cy="560.32" r="2.57" fill="#237c3e" isolation="isolate" opacity=".85" />
    <circle cx="895.26" cy="650.03" r="2.57" fill="#237c3e" isolation="isolate" opacity=".85" />
    <circle cx="999.62" cy="612.6" r="2.57" fill="#237c3e" isolation="isolate" opacity=".85" />
    <circle cx="936.02" cy="516.98" r="2.57" fill="#237c3e" isolation="isolate" opacity=".85" />
    <circle cx="901.22" cy="683.7" r="2.57" fill="#237c3e" isolation="isolate" opacity=".85" />
    <circle cx="983.17" cy="670.33" r="2.57" fill="#237c3e" isolation="isolate" opacity=".85" />
    <circle cx="901.07" cy="615.38" r="2.57" fill="#237c3e" isolation="isolate" opacity=".85" />
    <circle cx="930.27" cy="656.4" r="2.57" fill="#237c3e" isolation="isolate" opacity=".85" />
    <circle cx="945.74" cy="558.68" r="2.57" fill="#237c3e" isolation="isolate" opacity=".85" />
    <circle cx="1007.12" cy="621.14" r="2.57" fill="#237c3e" isolation="isolate" opacity=".85" />
    <circle cx="867.7" cy="629.26" r="2.57" fill="#237c3e" isolation="isolate" opacity=".85" />
    <circle cx="1004.35" cy="545.36" r="2.57" fill="#237c3e" isolation="isolate" opacity=".85" />
    <circle cx="860.56" cy="665.76" r="2.57" fill="#237c3e" isolation="isolate" opacity=".85" />
    <circle cx="954.58" cy="608.28" r="2.57" fill="#237c3e" isolation="isolate" opacity=".85" />
    <circle cx="923.43" cy="707.71" r="2.57" fill="#237c3e" isolation="isolate" opacity=".85" />
    <circle cx="893.77" cy="626.48" r="2.57" fill="#237c3e" isolation="isolate" opacity=".85" />
    <circle cx="921.73" cy="621.96" r="2.57" fill="#237c3e" isolation="isolate" opacity=".85" />
    <circle cx="959.36" cy="679.69" r="2.57" fill="#237c3e" isolation="isolate" opacity=".85" />
    <circle cx="964.76" cy="597.13" r="2.57" fill="#237c3e" isolation="isolate" opacity=".85" />
    <circle cx="1017.25" cy="661.65" r="2.57" fill="#237c3e" isolation="isolate" opacity=".85" />
    <circle cx="916.13" cy="593.68" r="2.57" fill="#237c3e" isolation="isolate" opacity=".85" />
    <circle cx="1000.8" cy="570.04" r="2.57" fill="#237c3e" isolation="isolate" opacity=".85" />
    <circle cx="932.89" cy="607.1" r="2.57" fill="#237c3e" isolation="isolate" opacity=".85" />
    <circle cx="976.74" cy="649.67" r="2.57" fill="#237c3e" isolation="isolate" opacity=".85" />
    <circle cx="902.76" cy="699.84" r="2.57" fill="#237c3e" isolation="isolate" opacity=".85" />
    <circle cx="1012.78" cy="564.69" r="2.57" fill="#237c3e" isolation="isolate" opacity=".85" />
    <circle cx="897.78" cy="641.08" r="2.57" fill="#237c3e" isolation="isolate" opacity=".85" />
    <circle cx="859.12" cy="570.29" r="2.57" fill="#237c3e" isolation="isolate" opacity=".85" />
    <circle cx="856.24" cy="654.6" r="2.57" fill="#237c3e" isolation="isolate" opacity=".85" />
    <circle cx="1000.13" cy="621.65" r="2.57" fill="#237c3e" isolation="isolate" opacity=".85" />
    <circle cx="964.14" cy="561.45" r="2.57" fill="#237c3e" isolation="isolate" opacity=".85" />
    <circle cx="968.93" cy="580.58" r="2.57" fill="#237c3e" isolation="isolate" opacity=".85" />
    <circle cx="842.41" cy="591.11" r="2.57" fill="#237c3e" isolation="isolate" opacity=".85" />
    <circle cx="984.04" cy="622.78" r="2.57" fill="#237c3e" isolation="isolate" opacity=".85" />
    <circle cx="971.8" cy="548.24" r="2.57" fill="#237c3e" isolation="isolate" opacity=".85" />
    <circle cx="924.61" cy="578.57" r="2.57" fill="#237c3e" isolation="isolate" opacity=".85" />
    <circle cx="926.62" cy="591.32" r="2.57" fill="#237c3e" isolation="isolate" opacity=".85" />
    <circle cx="866.47" cy="550.76" r="2.57" fill="#237c3e" isolation="isolate" opacity=".85" />
    <circle cx="933.97" cy="612.71" r="2.57" fill="#237c3e" isolation="isolate" opacity=".85" />
    <circle cx="941.63" cy="628.33" r="2.57" fill="#237c3e" isolation="isolate" opacity=".85" />
    <circle cx="993.81" cy="620" r="2.57" fill="#237c3e" isolation="isolate" opacity=".85" />
    <circle cx="872.43" cy="691.36" r="2.57" fill="#237c3e" isolation="isolate" opacity=".85" />
    <circle cx="959.57" cy="691.77" r="2.57" fill="#237c3e" isolation="isolate" opacity=".85" />
    <circle cx="962.91" cy="583.92" r="2.57" fill="#237c3e" isolation="isolate" opacity=".85" />
    <circle cx="942.04" cy="679.95" r="2.57" fill="#237c3e" isolation="isolate" opacity=".85" />
    <circle cx="1010.82" cy="659.9" r="2.57" fill="#237c3e" isolation="isolate" opacity=".85" />
    <circle cx="852.64" cy="664.99" r="2.57" fill="#237c3e" isolation="isolate" opacity=".85" />
    <circle cx="939.57" cy="538.47" r="2.57" fill="#237c3e" isolation="isolate" opacity=".85" />
    <circle cx="970.47" cy="647.92" r="2.57" fill="#237c3e" isolation="isolate" opacity=".85" />
    <circle cx="897.52" cy="535.18" r="2.57" fill="#237c3e" isolation="isolate" opacity=".85" />
    <circle cx="939.31" cy="646.84" r="2.57" fill="#237c3e" isolation="isolate" opacity=".85" />
    <circle cx="1021.52" cy="644.94" r="2.57" fill="#237c3e" isolation="isolate" opacity=".85" />
    <circle cx="879.01" cy="620.83" r="2.57" fill="#237c3e" isolation="isolate" opacity=".85" />
    <circle cx="1019.2" cy="623.6" r="2.57" fill="#237c3e" isolation="isolate" opacity=".85" />
    <circle cx="992.21" cy="612.4" r="2.57" fill="#237c3e" isolation="isolate" opacity=".85" />
    <circle cx="922.04" cy="601.65" r="2.57" fill="#237c3e" isolation="isolate" opacity=".85" />
    <circle cx="979.67" cy="564.23" r="2.57" fill="#237c3e" isolation="isolate" opacity=".85" />
    <circle cx="953.45" cy="654.96" r="2.57" fill="#237c3e" isolation="isolate" opacity=".85" />
    <circle cx="845.65" cy="660.62" r="2.57" fill="#237c3e" isolation="isolate" opacity=".85" />
    <circle cx="879.73" cy="678.25" r="2.57" fill="#237c3e" isolation="isolate" opacity=".85" />
    <circle cx="991.9" cy="630.7" r="2.57" fill="#237c3e" isolation="isolate" opacity=".85" />
    <circle cx="878.5" cy="672.7" r="2.57" fill="#237c3e" isolation="isolate" opacity=".85" />
    <circle cx="887.75" cy="545.46" r="2.57" fill="#237c3e" isolation="isolate" opacity=".85" />
    <circle cx="873.15" cy="670.38" r="2.57" fill="#237c3e" isolation="isolate" opacity=".85" />
    <circle cx="995.97" cy="688.74" r="2.57" fill="#237c3e" isolation="isolate" opacity=".85" />
    <circle cx="928.72" cy="526.91" r="2.57" fill="#237c3e" isolation="isolate" opacity=".85" />
    <circle cx="841.95" cy="597.23" r="2.57" fill="#237c3e" isolation="isolate" opacity=".85" />
    <circle cx="899.01" cy="595.02" r="2.57" fill="#237c3e" isolation="isolate" opacity=".85" />
    <circle cx="1000.13" cy="670.44" r="2.57" fill="#237c3e" isolation="isolate" opacity=".85" />
    <circle cx="903.23" cy="552.4" r="2.57" fill="#237c3e" isolation="isolate" opacity=".85" />
    <circle cx="887.65" cy="670.02" r="2.57" fill="#237c3e" isolation="isolate" opacity=".85" />
    <circle cx="881.12" cy="552.51" r="2.57" fill="#237c3e" isolation="isolate" opacity=".85" />
    <circle cx="893" cy="615.69" r="2.57" fill="#237c3e" isolation="isolate" opacity=".85" />
    <circle cx="908.52" cy="569.47" r="2.57" fill="#237c3e" isolation="isolate" opacity=".85" />
    <circle cx="988.72" cy="644.83" r="2.57" fill="#237c3e" isolation="isolate" opacity=".85" />
    <circle cx="907.49" cy="562.94" r="2.57" fill="#237c3e" isolation="isolate" opacity=".85" />
    <circle cx="986.35" cy="535.23" r="2.57" fill="#237c3e" isolation="isolate" opacity=".85" />
    <circle cx="1010.41" cy="584.02" r="2.57" fill="#237c3e" isolation="isolate" opacity=".85" />
    <circle cx="931.5" cy="541.56" r="2.57" fill="#237c3e" isolation="isolate" opacity=".85" />
    <circle cx="875.16" cy="634.76" r="2.57" fill="#237c3e" isolation="isolate" opacity=".85" />
    <circle cx="941.58" cy="606.79" r="2.57" fill="#237c3e" isolation="isolate" opacity=".85" />
    <circle cx="1005.01" cy="607.67" r="2.57" fill="#237c3e" isolation="isolate" opacity=".85" />
    <circle cx="851.25" cy="605.71" r="2.57" fill="#237c3e" isolation="isolate" opacity=".85" />
    <circle cx="996.69" cy="553.02" r="2.57" fill="#237c3e" isolation="isolate" opacity=".85" />
    <circle cx="931.14" cy="600.83" r="2.57" fill="#237c3e" isolation="isolate" opacity=".85" />
    <circle cx="895.87" cy="549.16" r="2.57" fill="#237c3e" isolation="isolate" opacity=".85" />
    <circle cx="907.24" cy="593.68" r="2.57" fill="#237c3e" isolation="isolate" opacity=".85" />
    <circle cx="867.6" cy="578.16" r="2.57" fill="#237c3e" isolation="isolate" opacity=".85" />
    <circle cx="886.26" cy="635.22" r="2.57" fill="#237c3e" isolation="isolate" opacity=".85" />
    <circle cx="946.67" cy="535.23" r="2.57" fill="#237c3e" isolation="isolate" opacity=".85" />
    <circle cx="887.75" cy="584.79" r="2.57" fill="#237c3e" isolation="isolate" opacity=".85" />
    <circle cx="866.93" cy="588.59" r="2.57" fill="#237c3e" isolation="isolate" opacity=".85" />
    <circle cx="889.45" cy="661.7" r="2.57" fill="#237c3e" isolation="isolate" opacity=".85" />
    <circle cx="914.74" cy="523.15" r="2.57" fill="#237c3e" isolation="isolate" opacity=".85" />
    <circle cx="971.8" cy="662.21" r="2.57" fill="#237c3e" isolation="isolate" opacity=".85" />
    <circle cx="977.05" cy="603.4" r="2.57" fill="#237c3e" isolation="isolate" opacity=".85" />
    <circle cx="938.34" cy="528.45" r="2.57" fill="#237c3e" isolation="isolate" opacity=".85" />
    <circle cx="1026.3" cy="597.75" r="2.57" fill="#237c3e" isolation="isolate" opacity=".85" />
    <circle cx="894.8" cy="526.91" r="2.57" fill="#237c3e" isolation="isolate" opacity=".85" />
    <circle cx="867.6" cy="684.83" r="2.57" fill="#237c3e" isolation="isolate" opacity=".85" />
    <circle cx="864.82" cy="634.55" r="2.57" fill="#237c3e" isolation="isolate" opacity=".85" />
    <circle cx="1025.42" cy="617.9" r="2.57" fill="#237c3e" isolation="isolate" opacity=".85" />
    <circle cx="951.76" cy="560.01" r="2.57" fill="#237c3e" isolation="isolate" opacity=".85" />
    <circle cx="991.49" cy="604.43" r="2.57" fill="#237c3e" isolation="isolate" opacity=".85" />
    <circle cx="979" cy="680.82" r="2.57" fill="#237c3e" isolation="isolate" opacity=".85" />
    <circle cx="929.14" cy="710.02" r="2.57" fill="#237c3e" isolation="isolate" opacity=".85" />
    <circle cx="918.91" cy="653.32" r="2.57" fill="#237c3e" isolation="isolate" opacity=".85" />
    <circle cx="947.44" cy="641.13" r="2.57" fill="#237c3e" isolation="isolate" opacity=".85" />
    <circle cx="944.15" cy="548.19" r="2.57" fill="#237c3e" isolation="isolate" opacity=".85" />
    <circle cx="982.86" cy="659.02" r="2.57" fill="#237c3e" isolation="isolate" opacity=".85" />
    <circle cx="1010.82" cy="595.74" r="2.57" fill="#237c3e" isolation="isolate" opacity=".85" />
    <circle cx="941.17" cy="701.38" r="2.57" fill="#237c3e" isolation="isolate" opacity=".85" />
    <circle cx="953.25" cy="579.08" r="2.57" fill="#237c3e" isolation="isolate" opacity=".85" />
    <circle cx="935.87" cy="586.13" r="2.57" fill="#237c3e" isolation="isolate" opacity=".85" />
    <circle cx="881.89" cy="614.14" r="2.57" fill="#237c3e" isolation="isolate" opacity=".85" />
    <circle cx="888.47" cy="524.23" r="2.57" fill="#237c3e" isolation="isolate" opacity=".85" />
    <circle cx="940.24" cy="568.65" r="2.57" fill="#237c3e" isolation="isolate" opacity=".85" />
    <circle cx="937.67" cy="672.85" r="2.57" fill="#237c3e" isolation="isolate" opacity=".85" />
    <circle cx="928.98" cy="677.84" r="2.57" fill="#237c3e" isolation="isolate" opacity=".85" />
    <circle cx="867.39" cy="600.32" r="2.57" fill="#237c3e" isolation="isolate" opacity=".85" />
    <circle cx="990.93" cy="578.52" r="2.57" fill="#237c3e" isolation="isolate" opacity=".85" />
    <circle cx="980.9" cy="692.39" r="2.57" fill="#237c3e" isolation="isolate" opacity=".85" />
    <circle cx="873" cy="535.13" r="2.57" fill="#237c3e" isolation="isolate" opacity=".85" />
    <circle cx="948.47" cy="682.36" r="2.57" fill="#237c3e" isolation="isolate" opacity=".85" />
    <circle cx="920.45" cy="646.22" r="2.57" fill="#237c3e" isolation="isolate" opacity=".85" />
    <circle cx="924.51" cy="631.01" r="2.57" fill="#237c3e" isolation="isolate" opacity=".85" />
    <circle cx="906.31" cy="544.33" r="2.57" fill="#237c3e" isolation="isolate" opacity=".85" />
    <circle cx="863.64" cy="558.62" r="2.57" fill="#237c3e" isolation="isolate" opacity=".85" />
    <circle cx="874.28" cy="566.34" r="2.57" fill="#237c3e" isolation="isolate" opacity=".85" />
    <circle cx="930.68" cy="694.55" r="2.57" fill="#237c3e" isolation="isolate" opacity=".85" />
    <circle cx="843.13" cy="610.19" r="2.57" fill="#237c3e" isolation="isolate" opacity=".85" />
    <circle cx="893.92" cy="608.39" r="2.57" fill="#237c3e" isolation="isolate" opacity=".85" />
    <circle cx="869.14" cy="619.59" r="2.57" fill="#237c3e" isolation="isolate" opacity=".85" />
    <circle cx="918.39" cy="687.14" r="2.57" fill="#237c3e" isolation="isolate" opacity=".85" />
    <circle cx="880.04" cy="542.38" r="2.57" fill="#237c3e" isolation="isolate" opacity=".85" />
    <circle cx="939.78" cy="662.67" r="2.57" fill="#237c3e" isolation="isolate" opacity=".85" />
    <circle cx="920.5" cy="673.31" r="2.57" fill="#237c3e" isolation="isolate" opacity=".85" />
    <circle cx="880.3" cy="691.56" r="2.57" fill="#237c3e" isolation="isolate" opacity=".85" />
    <circle cx="988.61" cy="568.08" r="2.57" fill="#237c3e" isolation="isolate" opacity=".85" />
    <circle cx="842.67" cy="580.22" r="2.57" fill="#237c3e" isolation="isolate" opacity=".85" />
    <circle cx="934.12" cy="666.84" r="2.57" fill="#237c3e" isolation="isolate" opacity=".85" />
    <circle cx="902.56" cy="524.54" r="2.57" fill="#237c3e" isolation="isolate" opacity=".85" />
    <circle cx="896.65" cy="703.59" r="2.57" fill="#237c3e" isolation="isolate" opacity=".85" />
    <circle cx="943.53" cy="615.74" r="2.57" fill="#237c3e" isolation="isolate" opacity=".85" />
    <circle cx="985.22" cy="651.67" r="2.57" fill="#237c3e" isolation="isolate" opacity=".85" />
    <circle cx="850.07" cy="573.94" r="2.57" fill="#237c3e" isolation="isolate" opacity=".85" />
    <circle cx="940.45" cy="579.24" r="2.57" fill="#237c3e" isolation="isolate" opacity=".85" />
    <circle cx="933.04" cy="530.97" r="2.57" fill="#237c3e" isolation="isolate" opacity=".85" />
    <circle cx="955.56" cy="646.69" r="2.57" fill="#237c3e" isolation="isolate" opacity=".85" />
    <circle cx="860.04" cy="547.42" r="2.57" fill="#237c3e" isolation="isolate" opacity=".85" />
    <circle cx="869.66" cy="542.58" r="2.57" fill="#237c3e" isolation="isolate" opacity=".85" />
    <circle cx="886.26" cy="590.55" r="2.57" fill="#237c3e" isolation="isolate" opacity=".85" />
    <circle cx="874.9" cy="615.84" r="2.57" fill="#237c3e" isolation="isolate" opacity=".85" />
    <circle cx="852.85" cy="592.04" r="2.57" fill="#237c3e" isolation="isolate" opacity=".85" />
    <circle cx="853.41" cy="555.28" r="2.57" fill="#237c3e" isolation="isolate" opacity=".85" />
    <circle cx="985.02" cy="542.84" r="2.57" fill="#237c3e" isolation="isolate" opacity=".85" />
    <circle cx="994.63" cy="592.09" r="2.57" fill="#237c3e" isolation="isolate" opacity=".85" />
    <circle cx="996.58" cy="666.01" r="2.57" fill="#237c3e" isolation="isolate" opacity=".85" />
    <circle cx="856.55" cy="579.29" r="2.57" fill="#237c3e" isolation="isolate" opacity=".85" />
    <circle cx="906.31" cy="603.76" r="2.57" fill="#237c3e" isolation="isolate" opacity=".85" />
    <circle cx="897.83" cy="689.25" r="2.57" fill="#237c3e" isolation="isolate" opacity=".85" />
    <circle cx="957.46" cy="662.57" r="2.57" fill="#237c3e" isolation="isolate" opacity=".85" />
    <circle cx="880.4" cy="575.02" r="2.57" fill="#237c3e" isolation="isolate" opacity=".85" />
    <circle cx="989.44" cy="661.65" r="2.57" fill="#237c3e" isolation="isolate" opacity=".85" />
    <circle cx="929.55" cy="515.13" r="2.57" fill="#237c3e" isolation="isolate" opacity=".85" />
    <circle cx="1024.14" cy="606.59" r="2.57" fill="#237c3e" isolation="isolate" opacity=".85" />
    <circle cx="986.56" cy="615.79" r="2.57" fill="#237c3e" isolation="isolate" opacity=".85" />
    <circle cx="967.07" cy="542.58" r="2.57" fill="#237c3e" isolation="isolate" opacity=".85" />
    <circle cx="894.02" cy="542.33" r="2.57" fill="#237c3e" isolation="isolate" opacity=".85" />
    <circle cx="874.13" cy="577.29" r="2.57" fill="#237c3e" isolation="isolate" opacity=".85" />
    <circle cx="994.48" cy="567.93" r="2.57" fill="#237c3e" isolation="isolate" opacity=".85" />
    <circle cx="914.48" cy="599.29" r="2.57" fill="#237c3e" isolation="isolate" opacity=".85" />
    <circle cx="885.28" cy="684.93" r="2.57" fill="#237c3e" isolation="isolate" opacity=".85" />
    <circle cx="878.29" cy="627.51" r="2.57" fill="#237c3e" isolation="isolate" opacity=".85" />
    <circle cx="933.2" cy="645.71" r="2.57" fill="#237c3e" isolation="isolate" opacity=".85" />
    <circle cx="863.49" cy="653.37" r="2.57" fill="#237c3e" isolation="isolate" opacity=".85" />
    <circle cx="935.82" cy="572.66" r="2.57" fill="#237c3e" isolation="isolate" opacity=".85" />
    <circle cx="915.05" cy="569.06" r="2.57" fill="#237c3e" isolation="isolate" opacity=".85" />
    <circle cx="845.24" cy="622.22" r="2.57" fill="#237c3e" isolation="isolate" opacity=".85" />
    <circle cx="908.47" cy="694.08" r="2.57" fill="#237c3e" isolation="isolate" opacity=".85" />
    <circle cx="977.25" cy="670.69" r="2.57" fill="#237c3e" isolation="isolate" opacity=".85" />
    <circle cx="991.24" cy="650.03" r="2.57" fill="#237c3e" isolation="isolate" opacity=".85" />
    <circle cx="986.61" cy="551.94" r="2.57" fill="#237c3e" isolation="isolate" opacity=".85" />
    <circle cx="872.54" cy="609.47" r="2.57" fill="#237c3e" isolation="isolate" opacity=".85" />
    <circle cx="864.1" cy="678.3" r="2.57" fill="#237c3e" isolation="isolate" opacity=".85" />
    <circle cx="914.54" cy="557.9" r="2.57" fill="#237c3e" isolation="isolate" opacity=".85" />
    <circle cx="947.95" cy="653.01" r="2.57" fill="#237c3e" isolation="isolate" opacity=".85" />
    <circle cx="850.33" cy="618.87" r="2.57" fill="#237c3e" isolation="isolate" opacity=".85" />
    <circle cx="972.99" cy="637.53" r="2.57" fill="#237c3e" isolation="isolate" opacity=".85" />
    <circle cx="883.69" cy="655.48" r="2.57" fill="#237c3e" isolation="isolate" opacity=".85" />
    <circle cx="959.41" cy="669.05" r="2.57" fill="#237c3e" isolation="isolate" opacity=".85" />
    <circle cx="947.8" cy="673.52" r="2.57" fill="#237c3e" isolation="isolate" opacity=".85" />
    <circle cx="977" cy="579.44" r="2.57" fill="#237c3e" isolation="isolate" opacity=".85" />
    <circle cx="973.3" cy="679.59" r="2.57" fill="#237c3e" isolation="isolate" opacity=".85" />
    <circle cx="958.39" cy="554.46" r="2.57" fill="#237c3e" isolation="isolate" opacity=".85" />
    <circle cx="1029.23" cy="637.64" r="2.57" fill="#237c3e" isolation="isolate" opacity=".85" />
    <circle cx="838.3" cy="605.76" r="2.57" fill="#237c3e" isolation="isolate" opacity=".85" />
    <circle cx="969.03" cy="692.08" r="2.57" fill="#237c3e" isolation="isolate" opacity=".85" />
    <circle cx="942.19" cy="636.76" r="2.57" fill="#237c3e" isolation="isolate" opacity=".85" />
    <circle cx="872.33" cy="556.11" r="2.57" fill="#237c3e" isolation="isolate" opacity=".85" />
    <circle cx="907.85" cy="651.47" r="2.57" fill="#237c3e" isolation="isolate" opacity=".85" />
    <circle cx="989.49" cy="677.74" r="2.57" fill="#237c3e" isolation="isolate" opacity=".85" />
    <circle cx="905.54" cy="625.25" r="2.57" fill="#237c3e" isolation="isolate" opacity=".85" />
    <circle cx="966" cy="685.14" r="2.57" fill="#237c3e" isolation="isolate" opacity=".85" />
    <circle cx="924.15" cy="566.85" r="2.57" fill="#237c3e" isolation="isolate" opacity=".85" />
    <circle cx="953.76" cy="627.2" r="2.57" fill="#237c3e" isolation="isolate" opacity=".85" />
    <circle cx="943.07" cy="621.29" r="2.57" fill="#237c3e" isolation="isolate" opacity=".85" />
    <circle cx="944.2" cy="712.02" r="2.57" fill="#237c3e" isolation="isolate" opacity=".85" />
    <circle cx="970.26" cy="565.05" r="2.57" fill="#237c3e" isolation="isolate" opacity=".85" />
    <circle cx="966.71" cy="555.18" r="2.57" fill="#237c3e" isolation="isolate" opacity=".85" />
    <circle cx="942.19" cy="652.7" r="2.57" fill="#237c3e" isolation="isolate" opacity=".85" />
    <circle cx="890.73" cy="680.41" r="2.57" fill="#237c3e" isolation="isolate" opacity=".85" />
    <circle cx="900.45" cy="676.55" r="2.57" fill="#237c3e" isolation="isolate" opacity=".85" />
    <circle cx="971.24" cy="619.59" r="2.57" fill="#237c3e" isolation="isolate" opacity=".85" />
    <circle cx="961.37" cy="611.57" r="2.57" fill="#237c3e" isolation="isolate" opacity=".85" />
    <circle cx="957.31" cy="633.27" r="2.57" fill="#237c3e" isolation="isolate" opacity=".85" />
    <circle cx="892.48" cy="656.14" r="2.57" fill="#237c3e" isolation="isolate" opacity=".85" />
    <circle cx="993.29" cy="534.15" r="2.57" fill="#237c3e" isolation="isolate" opacity=".85" />
    <circle cx="947.85" cy="553.23" r="2.57" fill="#237c3e" isolation="isolate" opacity=".85" />
    <circle cx="896.85" cy="589.52" r="2.57" fill="#237c3e" isolation="isolate" opacity=".85" />
    <circle cx="927.13" cy="638.31" r="2.57" fill="#237c3e" isolation="isolate" opacity=".85" />
    <circle cx="999.72" cy="579.03" r="2.57" fill="#237c3e" isolation="isolate" opacity=".85" />
    <circle cx="884.57" cy="699.58" r="2.57" fill="#237c3e" isolation="isolate" opacity=".85" />
    <circle cx="937.16" cy="548.45" r="2.57" fill="#237c3e" isolation="isolate" opacity=".85" />
    <circle cx="914.28" cy="643.6" r="2.57" fill="#237c3e" isolation="isolate" opacity=".85" />
    <circle cx="869.76" cy="645.14" r="2.57" fill="#237c3e" isolation="isolate" opacity=".85" />
    <circle cx="908.01" cy="610.13" r="2.57" fill="#237c3e" isolation="isolate" opacity=".85" />
    <circle cx="887.55" cy="623.14" r="2.57" fill="#237c3e" isolation="isolate" opacity=".85" />
    <circle cx="872.02" cy="655.99" r="2.57" fill="#237c3e" isolation="isolate" opacity=".85" />
    <circle cx="908.06" cy="556.77" r="2.57" fill="#237c3e" isolation="isolate" opacity=".85" />
    <circle cx="834.8" cy="625.25" r="2.57" fill="#237c3e" isolation="isolate" opacity=".85" />
    <circle cx="942.86" cy="601.19" r="2.57" fill="#237c3e" isolation="isolate" opacity=".85" />
    <circle cx="925.64" cy="549.52" r="2.57" fill="#237c3e" isolation="isolate" opacity=".85" />
    <circle cx="874.39" cy="583.76" r="2.57" fill="#237c3e" isolation="isolate" opacity=".85" />
    <circle cx="937.98" cy="595.33" r="2.57" fill="#237c3e" isolation="isolate" opacity=".85" />
    <circle cx="934.64" cy="679.9" r="2.57" fill="#237c3e" isolation="isolate" opacity=".85" />
    <circle cx="951.29" cy="598.72" r="2.57" fill="#237c3e" isolation="isolate" opacity=".85" />
    <circle cx="921.32" cy="540.48" r="2.57" fill="#237c3e" isolation="isolate" opacity=".85" />
    <circle cx="854.29" cy="632.14" r="2.57" fill="#237c3e" isolation="isolate" opacity=".85" />
    <circle cx="1023.67" cy="629.82" r="2.57" fill="#237c3e" isolation="isolate" opacity=".85" />
    <circle cx="932.99" cy="625.71" r="2.57" fill="#237c3e" isolation="isolate" opacity=".85" />
    <circle cx="998.43" cy="606.43" r="2.57" fill="#237c3e" isolation="isolate" opacity=".85" />
    <circle cx="1004.96" cy="564.23" r="2.57" fill="#237c3e" isolation="isolate" opacity=".85" />
    <circle cx="992.83" cy="636.35" r="2.57" fill="#237c3e" isolation="isolate" opacity=".85" />
    <circle cx="902.61" cy="579.86" r="2.57" fill="#237c3e" isolation="isolate" opacity=".85" />
    <circle cx="945.89" cy="692.08" r="2.57" fill="#237c3e" isolation="isolate" opacity=".85" />
    <circle cx="894.74" cy="695.01" r="2.57" fill="#237c3e" isolation="isolate" opacity=".85" />
    <circle cx="1023.16" cy="578.47" r="2.57" fill="#237c3e" isolation="isolate" opacity=".85" />
    <circle cx="904.2" cy="536.78" r="2.57" fill="#237c3e" isolation="isolate" opacity=".85" />
    <circle cx="877.16" cy="560.06" r="2.57" fill="#237c3e" isolation="isolate" opacity=".85" />
    <circle cx="934.89" cy="633.32" r="2.57" fill="#237c3e" isolation="isolate" opacity=".85" />
    <circle cx="981.57" cy="595.33" r="2.57" fill="#237c3e" isolation="isolate" opacity=".85" />
    <circle cx="852.69" cy="599.24" r="2.57" fill="#237c3e" isolation="isolate" opacity=".85" />
    <circle cx="915.67" cy="537.96" r="2.57" fill="#237c3e" isolation="isolate" opacity=".85" />
    <circle cx="950.98" cy="572.09" r="2.57" fill="#237c3e" isolation="isolate" opacity=".85" />
    <circle cx="857.63" cy="609.47" r="2.57" fill="#237c3e" isolation="isolate" opacity=".85" />
    <circle cx="932.73" cy="560.83" r="2.57" fill="#237c3e" isolation="isolate" opacity=".85" />
    <circle cx="1011.08" cy="671.57" r="2.57" fill="#237c3e" isolation="isolate" opacity=".85" />
    <circle cx="840.3" cy="626.07" r="2.57" fill="#237c3e" isolation="isolate" opacity=".85" />
    <circle cx="962.96" cy="548.65" r="2.57" fill="#237c3e" isolation="isolate" opacity=".85" />
    <circle cx="981.88" cy="609.31" r="2.57" fill="#237c3e" isolation="isolate" opacity=".85" />
    <circle cx="925.59" cy="649.62" r="2.57" fill="#237c3e" isolation="isolate" opacity=".85" />
    <circle cx="860.15" cy="644.78" r="2.57" fill="#237c3e" isolation="isolate" opacity=".85" />
    <circle cx="963.73" cy="576.46" r="2.57" fill="#237c3e" isolation="isolate" opacity=".85" />
    <circle cx="885.39" cy="562.89" r="2.57" fill="#237c3e" isolation="isolate" opacity=".85" />
    <circle cx="834.96" cy="631.57" r="2.57" fill="#237c3e" isolation="isolate" opacity=".85" />
    <circle cx="962.71" cy="656.35" r="2.57" fill="#237c3e" isolation="isolate" opacity=".85" />
    <circle cx="997.66" cy="563.35" r="2.57" fill="#237c3e" isolation="isolate" opacity=".85" />
    <circle cx="890.94" cy="565.1" r="2.57" fill="#237c3e" isolation="isolate" opacity=".85" />
    <circle cx="968.41" cy="609.57" r="2.57" fill="#237c3e" isolation="isolate" opacity=".85" />
    <circle cx="881.12" cy="638.31" r="2.57" fill="#237c3e" isolation="isolate" opacity=".85" />
    <circle cx="848.32" cy="565.72" r="2.57" fill="#237c3e" isolation="isolate" opacity=".85" />
    <circle cx="993.65" cy="674.03" r="2.57" fill="#237c3e" isolation="isolate" opacity=".85" />
    <circle cx="1013.86" cy="651.21" r="2.57" fill="#237c3e" isolation="isolate" opacity=".85" />
    <circle cx="891.71" cy="689.82" r="2.57" fill="#237c3e" isolation="isolate" opacity=".85" />
    <circle cx="950.21" cy="706.68" r="2.57" fill="#237c3e" isolation="isolate" opacity=".85" />
    <circle cx="874.34" cy="550.09" r="2.57" fill="#237c3e" isolation="isolate" opacity=".85" />
    <circle cx="872.23" cy="664.16" r="2.57" fill="#237c3e" isolation="isolate" opacity=".85" />
    <circle cx="912.74" cy="660.31" r="2.57" fill="#237c3e" isolation="isolate" opacity=".85" />
    <circle cx="918.7" cy="693.21" r="2.57" fill="#237c3e" isolation="isolate" opacity=".85" />
    <circle cx="912.94" cy="621.8" r="2.57" fill="#237c3e" isolation="isolate" opacity=".85" />
    <circle cx="865.9" cy="672.65" r="2.57" fill="#237c3e" isolation="isolate" opacity=".85" />
    <circle cx="978.08" cy="629" r="2.57" fill="#237c3e" isolation="isolate" opacity=".85" />
    <circle cx="920.81" cy="702.05" r="2.57" fill="#237c3e" isolation="isolate" opacity=".85" />
    <circle cx="975.25" cy="573.33" r="2.57" fill="#237c3e" isolation="isolate" opacity=".85" />
    <circle cx="1012.16" cy="573.74" r="2.57" fill="#237c3e" isolation="isolate" opacity=".85" />
    <circle cx="916.95" cy="529.06" r="2.57" fill="#237c3e" isolation="isolate" opacity=".85" />
    <circle cx="967.02" cy="533.18" r="2.57" fill="#237c3e" isolation="isolate" opacity=".85" />
    <circle cx="972.37" cy="625.76" r="2.57" fill="#237c3e" isolation="isolate" opacity=".85" />
    <circle cx="855.83" cy="676.04" r="2.57" fill="#237c3e" isolation="isolate" opacity=".85" />
    <circle cx="859.74" cy="630.54" r="2.57" fill="#237c3e" isolation="isolate" opacity=".85" />
    <circle cx="902.25" cy="659.38" r="2.57" fill="#237c3e" isolation="isolate" opacity=".85" />
    <circle cx="918.34" cy="617.28" r="2.57" fill="#237c3e" isolation="isolate" opacity=".85" />
    <circle cx="987.18" cy="591.11" r="2.57" fill="#237c3e" isolation="isolate" opacity=".85" />
    <circle cx="959.57" cy="626.89" r="2.57" fill="#237c3e" isolation="isolate" opacity=".85" />
    <circle cx="949.85" cy="518.99" r="2.57" fill="#237c3e" isolation="isolate" opacity=".85" />
    <circle cx="860.4" cy="638.46" r="2.57" fill="#237c3e" isolation="isolate" opacity=".85" />
    <circle cx="912.33" cy="543.66" r="2.57" fill="#237c3e" isolation="isolate" opacity=".85" />
  </g>
  </svg>