<?xml version='1.0' encoding='utf-8'?>
<svg xmlns="http://www.w3.org/2000/svg" id="Layer_1" version="1.1" viewBox="421.60 640.12 455.51 306.85">
  
  <g isolation="isolate">
    <path d="M833.78,908.41c-.47-.47-.78-.98-.93-1.53-.15-.55-.13-1.1.05-1.66s.52-1.09,1.03-1.59,1.07-.87,1.65-1.06,1.17-.21,1.74-.06c.57.15,1.1.47,1.58.95.23.23.41.45.53.66.12.21.22.41.28.6.06.18.11.34.15.47.04.13.1.23.17.3.06.06.15.08.26.07.11-.02.24-.1.41-.22l.27.27c-.15.14-.3.29-.48.45-.17.16-.37.35-.58.56-.22.21-.49.48-.81.8l-.27-.27c.28-.37.46-.74.56-1.12s.08-.74-.02-1.09-.29-.66-.56-.93c-.33-.33-.7-.52-1.1-.58-.4-.05-.83.03-1.28.24s-.92.56-1.39,1.03c-.7.7-1.11,1.37-1.24,2.01-.13.64.04,1.19.5,1.66.18.18.37.31.55.38.18.07.36.1.54.07.17-.02.33-.11.48-.25l.59-.59c.15-.15.24-.27.29-.37.05-.1.05-.2.01-.31-.04-.11-.12-.25-.26-.41l-.23-.27.26-.26c.1.09.21.21.34.35s.27.29.41.44c.15.15.29.3.44.44l.08.08.05.05c.12.12.26.25.42.4.16.15.3.28.43.41l-.26.26-.08-.04c-.15-.11-.28-.14-.38-.1-.11.04-.26.16-.48.38l-1.36,1.34-.27-.27c.04-.09.06-.18.06-.25,0-.07-.04-.14-.11-.21-.09-.09-.2-.16-.33-.22-.13-.06-.29-.12-.47-.19-.18-.07-.38-.16-.58-.29-.21-.13-.43-.31-.65-.54Z" fill="#0d1a1e" />
    <path d="M838.02,912.65c-.3-.3-.46-.62-.49-.96s.09-.65.36-.91c.21-.21.44-.33.67-.36.24-.02.47,0,.71.08.24.08.47.18.71.3.23.12.45.24.66.36.21.12.4.19.57.22.17.03.32,0,.45-.12l-.34.36c-.11.06-.24.08-.38.04-.15-.04-.3-.08-.46-.13-.16-.05-.32-.1-.49-.14s-.33-.05-.49-.03c-.17.03-.33.12-.48.27s-.24.33-.24.5.07.34.23.5c.13.13.28.22.47.26.19.05.4.05.63,0l-.27.29c-.36.08-.69.07-.99-.01-.3-.09-.57-.26-.83-.51ZM840.73,914.02c-.11.11-.17.2-.18.28-.02.08.01.17.09.24.06.06.14.11.23.14.09.03.2.05.32.07l-.11.34c-.22-.03-.43-.09-.64-.19s-.4-.24-.58-.41c-.25-.25-.39-.49-.41-.72-.02-.23.08-.46.3-.67l1.22-1.22.95.95-1.19,1.19ZM840.98,911.88l.9-.9c.24-.24.36-.46.36-.68,0-.22-.11-.44-.34-.67-.16-.16-.31-.27-.45-.33-.14-.06-.25-.05-.32.02-.05.05-.08.12-.1.22-.02.1-.04.2-.07.29-.03.09-.07.17-.14.24-.11.11-.23.15-.39.12s-.3-.1-.43-.23c-.16-.16-.24-.33-.24-.51s.07-.34.21-.49c.19-.19.42-.29.68-.3s.54.06.85.22c.31.16.61.39.91.69.5.5.74.96.73,1.39s-.25.89-.74,1.37l-.49.49-.95-.95Z" fill="#0d1a1e" />
    <path d="M842.89,917.52c-.2-.2-.34-.38-.43-.55-.09-.17-.16-.32-.21-.45s-.11-.22-.18-.29c-.11-.11-.26-.12-.44-.03l-.26-.26c.13-.11.26-.23.4-.36.13-.12.28-.27.45-.43s.35-.35.55-.57l.27.27c-.29.45-.43.87-.43,1.26,0,.39.16.74.46,1.04.21.21.41.32.62.35.21.03.4-.04.56-.21.15-.15.21-.33.18-.56-.03-.23-.16-.55-.39-.96-.27-.53-.41-.99-.4-1.38,0-.39.16-.73.45-1.02.32-.32.68-.48,1.08-.46s.77.2,1.12.55c.19.19.33.37.42.53.09.16.15.31.2.44.05.13.1.23.17.29.05.05.11.07.17.07s.15-.03.25-.07l.27.27c-.11.09-.23.18-.34.28-.11.1-.24.22-.39.37s-.32.32-.51.53l-.26-.26c.23-.4.34-.77.31-1.13-.02-.35-.16-.66-.41-.91-.19-.19-.38-.29-.57-.31-.18-.02-.35.05-.51.21s-.22.36-.19.6c.03.24.17.58.41,1.02.28.51.42.95.42,1.3,0,.36-.15.69-.46.99-.35.35-.73.51-1.16.48s-.84-.24-1.24-.64Z" fill="#0d1a1e" />
    <path d="M821.62,918.47c-.27-.27-.47-.54-.6-.82-.13-.28-.19-.54-.18-.79.01-.25.1-.46.26-.62.14-.14.3-.21.47-.22.17,0,.31.05.44.18.11.11.17.22.18.33,0,.11-.04.21-.13.3-.06.06-.14.11-.22.14s-.16.05-.24.06c-.08.01-.14.04-.19.09-.08.08-.09.21-.02.38.07.17.2.36.4.55.34.34.69.52,1.05.53.36.02.7-.13,1-.43.25-.25.39-.52.44-.81.04-.3-.03-.6-.21-.9-.1-.06-.19-.11-.26-.15s-.13-.09-.18-.14c-.06-.06-.09-.13-.1-.2s.02-.14.07-.19c.05-.05.12-.07.19-.06.08.02.15.06.22.13.05.05.09.1.14.16.05.06.1.13.16.21.31.09.6.1.87.04.27-.07.52-.21.74-.44.28-.28.42-.57.41-.86,0-.3-.15-.59-.43-.87-.19-.19-.37-.31-.55-.38s-.31-.06-.4.03c-.05.05-.08.12-.09.2-.01.08-.03.17-.05.26-.02.09-.06.17-.14.25-.1.1-.2.14-.32.13-.12,0-.23-.07-.34-.18-.13-.13-.19-.27-.19-.44,0-.16.07-.32.21-.46.17-.17.4-.27.67-.28.28-.01.57.05.88.18.31.13.6.33.87.6.39.39.61.8.66,1.23.05.43-.08.8-.4,1.11-.25.25-.56.39-.95.43-.38.04-.8-.02-1.25-.19.27.42.41.83.41,1.24,0,.4-.14.74-.42,1.02-.25.25-.53.39-.85.44-.32.05-.66,0-1.01-.13-.35-.14-.69-.37-1-.68Z" fill="#0d1a1e" />
    <path d="M826.83,921.83c-.35-.35-.57-.72-.68-1.14-.11-.41-.1-.82.02-1.24.13-.42.37-.81.73-1.17.38-.38.79-.63,1.23-.76s.88-.14,1.31-.03c.43.11.83.35,1.19.7s.58.73.68,1.14.1.82-.02,1.24c-.12.42-.37.8-.73,1.16s-.79.63-1.23.77c-.44.13-.88.14-1.32.03-.44-.11-.83-.35-1.19-.7ZM827.13,921.59c.34.34.76.47,1.25.38.49-.09.98-.38,1.48-.88s.77-.97.86-1.44-.05-.88-.39-1.23-.77-.48-1.26-.39c-.49.09-.99.38-1.48.88s-.77.97-.85,1.45c-.08.48.05.88.39,1.23Z" fill="#0d1a1e" />
    <path d="M829.98,924.97c-.15-.15-.23-.32-.23-.51,0-.19.07-.36.22-.51s.31-.22.5-.22c.19,0,.36.08.51.23s.23.32.23.52c0,.2-.06.36-.21.51s-.32.22-.51.21c-.2,0-.37-.08-.52-.23Z" fill="#0d1a1e" />
    <path d="M831.65,925.99l.29-.29,5.31-.78.03.38-4.78.71.04-.21,2.99,2.99-.54.54-3.34-3.34ZM832.42,929.16l3.79-3.79,1.03-.45.27.27-4.53,4.53-.56-.56Z" fill="#0d1a1e" />
    <path d="M836.28,931.27v-.38s6.73-.32,6.73-.32v.37s-6.73.33-6.73.33ZM837.77,929.59c-.34-.34-.51-.7-.53-1.1-.01-.39.14-.75.45-1.06s.69-.48,1.11-.47c.42.01.79.19,1.14.53s.51.7.52,1.09c0,.39-.14.75-.46,1.06s-.69.47-1.1.46c-.41-.01-.79-.19-1.13-.53ZM838.01,929.39c.43.43.93.36,1.49-.21.27-.27.42-.53.45-.8.03-.26-.06-.5-.27-.71s-.45-.3-.7-.27c-.25.04-.51.19-.78.46s-.43.55-.47.8c-.04.26.06.5.28.72ZM839.34,934.33c-.34-.34-.52-.71-.53-1.1-.01-.39.14-.75.45-1.06s.69-.48,1.11-.47c.42.01.79.19,1.14.53s.51.7.52,1.09-.14.75-.45,1.06-.69.48-1.1.47c-.41,0-.79-.18-1.13-.53ZM839.59,934.14c.43.42.92.35,1.49-.21.27-.27.42-.53.45-.79.03-.26-.06-.5-.27-.71s-.44-.3-.69-.27c-.25.03-.52.18-.79.45s-.43.54-.46.81c-.03.26.06.5.28.72ZM841.14,929.87c-.16-.16-.29-.34-.39-.55-.11-.21-.19-.44-.26-.69h-.12s-.03-.53-.03-.53c.11.24.27.5.47.79.21.29.42.54.64.77s.47.42.75.58.54.28.81.33l-.52.1.02-.13c-.26-.05-.51-.12-.74-.23-.23-.11-.44-.25-.63-.45Z" fill="#0d1a1e" />
  </g>
  <g isolation="isolate">
    <path d="M752.31,907.07c-.21.21-.32.38-.32.52s.09.32.27.56l.36.42-.27.27c-.08-.09-.18-.19-.29-.31-.12-.12-.24-.25-.36-.38s-.25-.25-.37-.38c-.09-.09-.19-.19-.31-.3-.11-.11-.22-.21-.32-.3s-.19-.18-.26-.24l.27-.27.25.22c.16.12.29.2.4.24.11.03.21.03.3-.02s.22-.15.36-.29l.85-.85.27.27-.85.85ZM754.47,911.03l1.26-7.18-.1-.1-2.46,2.46-.27-.27,2.28-2.28c.15-.15.25-.27.3-.37s.05-.2.01-.3c-.04-.11-.12-.24-.24-.4l-.21-.23.27-.27c.09.09.19.2.32.33.12.13.26.28.4.42.14.15.28.29.41.42l.1.1c.13.13.25.24.36.34.11.1.21.19.29.27l-.94,5.13.1.1,2.18-2.18c.21-.21.33-.39.34-.52.01-.13-.07-.31-.24-.53l-.21-.24.27-.27c.09.1.21.23.36.39.15.16.31.32.45.46.1.1.2.2.31.3.11.1.21.2.32.3.11.1.19.18.26.24l-.27.27-.25-.22c-.16-.12-.29-.19-.39-.23-.11-.03-.21-.03-.3.02s-.22.15-.36.29l-4.04,4.04-.31-.31Z" fill="#0d1a1e" />
    <path d="M759.1,912.03l-.71.71c-.23.23-.36.46-.38.68-.02.22.06.43.24.61.21.21.46.32.76.34.3.02.64-.06,1.04-.23l-.05.18c-.55.26-1.04.37-1.46.32-.42-.05-.8-.25-1.14-.58-.36-.36-.53-.74-.51-1.14.01-.4.22-.8.63-1.21l.64-.64.94.94ZM760.87,910.28l-1.77,1.77-.94-.94.95-.95c.19-.19.29-.36.29-.5s-.07-.31-.23-.51l-.17-.18.27-.27c.1.11.19.21.27.29.08.09.18.19.29.3.2.2.39.38.57.52.18.15.36.28.54.39l-.08.08ZM758.67,915.13l1.76-1.76.95.94-.94.94c-.19.19-.29.35-.29.49,0,.14.06.32.22.53l.17.19-.27.27c-.1-.11-.19-.21-.28-.3-.08-.09-.18-.19-.28-.29-.21-.21-.4-.38-.58-.53s-.36-.28-.53-.4l.08-.08ZM763.14,912.55l-1.77,1.77-.95-.94.95-.95c.19-.19.29-.35.3-.49s-.05-.29-.2-.47l-.1-.13.27-.27c.09.1.18.2.26.28.08.08.16.17.25.25.2.2.38.37.55.51.17.14.34.26.51.36l-.08.08Z" fill="#0d1a1e" />
    <path d="M762.27,918.93c-.34-.34-.55-.7-.65-1.09-.1-.39-.08-.8.06-1.21s.4-.81.78-1.19.79-.64,1.21-.78c.43-.14.85-.15,1.26-.04.41.11.8.34,1.15.69.26.27.46.54.59.82.13.28.18.55.14.81-.03.26-.14.48-.33.66-.17.17-.36.25-.58.26-.22,0-.42-.08-.6-.26-.14-.14-.21-.28-.23-.42-.01-.14.03-.27.14-.38.1-.1.21-.16.34-.18.12-.02.25-.03.37-.03.12,0,.22-.04.29-.11.06-.06.08-.16.04-.27s-.12-.24-.24-.36c-.31-.31-.68-.42-1.12-.32-.44.1-.88.37-1.34.83s-.76.92-.84,1.34.03.79.36,1.12c.2.2.44.32.71.36.27.04.57,0,.91-.11l.1.38c-.46.21-.91.27-1.34.19s-.83-.3-1.2-.66Z" fill="#0d1a1e" />
    <path d="M764.84,921.28c-.17-.16-.36-.34-.56-.53l.27-.27.2.19c.19.16.36.23.5.22.14-.01.3-.11.48-.29l.96-.96.95.94-.96.96c-.18.18-.28.34-.29.48-.01.14.07.31.23.51l.18.19-.27.27c-.19-.2-.37-.38-.53-.56-.17-.18-.36-.37-.57-.58s-.4-.4-.58-.56ZM766.69,919.62l2.7-2.7c.19-.19.29-.36.3-.5s-.06-.31-.22-.51l-.17-.19.27-.27c.1.11.19.21.28.3.08.09.18.19.29.3.21.21.39.38.57.52.18.14.35.28.52.39l-.08.08-3.52,3.52-.95-.94Z" fill="#0d1a1e" />
    <path d="M768.53,925.19c-.35-.35-.57-.72-.67-1.12-.1-.4-.08-.81.05-1.22.14-.42.4-.82.79-1.21s.8-.66,1.22-.79c.42-.13.83-.14,1.24-.03s.79.34,1.15.7c.32.32.54.66.64,1,.11.34.09.69-.03,1.06-.13.37-.4.74-.8,1.12l-2.56-2.56.27-.27,1.71,1.71c.23-.21.41-.43.54-.65.13-.22.19-.42.2-.63,0-.2-.07-.38-.23-.53-.19-.19-.45-.25-.79-.2-.34.05-.73.28-1.16.67v.04c-.05.03-.1.06-.15.11-.06.05-.11.1-.18.16-.46.46-.72.9-.8,1.33-.08.43.04.81.36,1.12.23.23.48.37.76.42.28.06.59.02.94-.09l.11.38c-.47.21-.93.26-1.38.16-.45-.1-.86-.33-1.23-.7Z" fill="#0d1a1e" />
    <path d="M771.82,928.48c-.3-.3-.46-.62-.49-.96-.03-.34.09-.64.36-.91.21-.21.44-.33.67-.36.23-.03.47,0,.71.08s.47.18.71.3.45.24.66.36.4.19.57.22c.17.03.32,0,.45-.12l-.34.36c-.11.06-.24.08-.38.04-.15-.04-.3-.08-.46-.13-.16-.05-.32-.1-.49-.14s-.33-.05-.49-.03c-.17.03-.33.12-.48.27s-.24.33-.24.5c0,.17.07.34.23.5.13.13.28.22.47.26s.4.05.63,0l-.27.29c-.36.08-.69.07-.99-.01-.3-.09-.57-.26-.83-.51ZM774.53,929.85c-.1.1-.17.2-.18.28s.01.17.09.24c.06.06.14.11.23.14.09.03.2.05.32.07l-.11.34c-.22-.03-.43-.09-.64-.19-.21-.1-.4-.24-.58-.41-.25-.25-.39-.49-.41-.72-.02-.23.08-.46.3-.67l1.22-1.22.95.94-1.19,1.19ZM774.78,927.71l.9-.9c.24-.24.36-.47.36-.68,0-.22-.11-.44-.34-.67-.16-.16-.31-.27-.45-.33s-.25-.05-.32.02c-.05.05-.08.12-.1.22-.02.1-.04.2-.07.29s-.07.18-.14.24c-.1.1-.24.15-.39.12-.16-.02-.3-.1-.43-.23-.16-.16-.24-.33-.24-.51,0-.18.07-.34.21-.49.19-.19.42-.29.68-.3.26,0,.54.07.85.22s.61.39.91.69c.5.5.74.96.73,1.39s-.25.89-.74,1.37l-.49.49-.95-.94Z" fill="#0d1a1e" />
    <path d="M775.58,932.02c-.17-.16-.36-.34-.56-.53l.27-.27.2.19c.19.15.36.23.5.22.14-.01.3-.11.48-.29l.96-.96.95.94-.96.96c-.13.13-.21.24-.25.34-.04.1-.03.21.02.32s.13.24.25.39l.21.25-.27.27c-.13-.14-.26-.28-.39-.41-.13-.13-.26-.27-.39-.4-.13-.13-.27-.28-.43-.44-.21-.21-.4-.4-.58-.56ZM777.43,930.37l.95-.95c.19-.19.29-.36.3-.5,0-.14-.07-.31-.22-.51l-.17-.19.27-.27c.1.11.19.21.28.3.08.09.18.19.29.3.21.21.4.38.57.52.18.15.35.28.52.39l-.08.08-1.77,1.77-.95-.94ZM780.05,931.97c-.12-.12-.19-.25-.19-.38,0-.13.05-.25.15-.35.06-.06.13-.1.2-.13s.15-.06.22-.09c.07-.03.13-.06.18-.11.1-.1.09-.22-.04-.36-.09-.09-.21-.16-.36-.21-.15-.05-.3-.08-.46-.08-.16,0-.31.03-.46.1l.27-.3c.32-.1.63-.11.92-.04.3.07.55.22.77.43s.32.45.32.69c0,.25-.12.48-.34.71-.2.2-.41.31-.63.33-.22.02-.41-.05-.57-.21Z" fill="#0d1a1e" />
    <path d="M740.59,919.47c-.27-.27-.47-.54-.6-.82-.13-.28-.19-.54-.18-.79.01-.25.1-.46.26-.62.14-.14.3-.21.46-.22.17,0,.31.05.44.18.11.11.17.22.18.33,0,.11-.04.21-.13.3-.06.06-.14.11-.22.14s-.16.05-.24.06c-.08.01-.14.04-.19.09-.08.08-.09.21-.02.38.07.17.2.36.4.56.34.34.69.51,1.05.53.36.01.7-.13,1-.43.25-.25.39-.52.44-.81.05-.3-.02-.6-.21-.9-.1-.06-.19-.11-.26-.15-.07-.04-.13-.09-.18-.14-.06-.06-.09-.13-.1-.2s.01-.14.06-.19c.05-.05.12-.07.2-.06.08.02.15.06.21.13.05.04.09.1.14.16s.1.13.16.21c.31.09.6.1.87.04s.52-.21.74-.44c.28-.28.42-.57.41-.86,0-.3-.15-.59-.43-.87-.19-.19-.37-.31-.55-.38s-.31-.06-.4.03c-.05.05-.08.12-.09.2-.01.08-.03.17-.04.26s-.06.17-.14.25c-.1.1-.2.14-.32.13-.12,0-.23-.07-.34-.18-.13-.13-.19-.27-.19-.44,0-.17.07-.32.21-.46.17-.17.4-.27.67-.28.28-.01.57.05.88.18.31.13.6.33.87.6.39.39.61.8.66,1.23.05.43-.08.8-.4,1.11-.25.25-.56.39-.95.43-.39.04-.8-.02-1.26-.19.27.42.41.83.41,1.24,0,.4-.14.74-.42,1.02-.25.25-.53.39-.85.44-.32.05-.66,0-1.01-.13-.35-.14-.69-.37-1-.68Z" fill="#0d1a1e" />
    <path d="M745.8,922.83c-.35-.35-.58-.73-.68-1.14s-.1-.82.02-1.24c.13-.42.37-.81.73-1.17s.79-.63,1.23-.76.88-.14,1.31-.03c.44.11.83.35,1.19.7s.58.73.68,1.14c.11.41.1.82-.02,1.24-.12.42-.36.8-.72,1.16-.38.38-.79.63-1.23.77-.44.13-.88.14-1.32.03-.44-.11-.83-.34-1.19-.7ZM746.1,922.59c.34.34.76.47,1.25.38.49-.09.98-.38,1.48-.88s.77-.97.86-1.44c.08-.47-.05-.88-.39-1.23-.35-.35-.77-.48-1.26-.39-.49.09-.99.38-1.48.88s-.77.97-.85,1.45c-.08.48.05.89.39,1.23Z" fill="#0d1a1e" />
    <path d="M749.77,926.79v-.38s6.73-.32,6.73-.32v.37s-6.73.33-6.73.33ZM751.26,925.11c-.34-.34-.51-.7-.53-1.09s.14-.75.45-1.06.69-.48,1.11-.46c.42.01.79.19,1.14.53s.51.7.52,1.1c0,.39-.14.75-.46,1.06s-.69.47-1.1.46c-.42-.01-.79-.19-1.13-.53ZM751.51,924.92c.43.43.92.36,1.49-.21.27-.27.42-.53.45-.8.03-.26-.06-.5-.27-.71-.21-.21-.45-.3-.7-.27s-.51.19-.78.46-.44.54-.47.8c-.04.26.06.5.28.71ZM752.84,929.86c-.34-.34-.52-.71-.53-1.1-.01-.39.14-.75.45-1.06s.69-.48,1.11-.47c.42.01.79.19,1.14.53s.51.7.52,1.09c.01.39-.14.75-.45,1.06s-.69.48-1.1.47c-.41,0-.79-.19-1.13-.53ZM753.08,929.67c.42.42.92.35,1.49-.21.27-.27.42-.53.45-.79.03-.26-.06-.5-.27-.71s-.44-.3-.7-.27c-.25.03-.52.18-.79.46s-.43.54-.46.8.06.5.28.72ZM754.64,925.39c-.16-.16-.29-.34-.39-.55-.11-.21-.19-.44-.26-.69h-.12s-.04-.53-.04-.53c.11.24.27.5.47.79.21.29.42.54.64.77.22.22.47.42.75.58.27.16.54.28.81.33l-.52.1.02-.13c-.26-.05-.51-.12-.74-.23s-.44-.25-.63-.44Z" fill="#0d1a1e" />
  </g>
  <g isolation="isolate">
    <path d="M671.7,909.17l2.44-5.79c.06-.17.11-.31.14-.42.03-.11.04-.21,0-.31-.03-.09-.1-.2-.2-.33l-.19-.22.26-.27c.08.1.17.2.28.3s.22.22.33.34c.11.12.22.23.33.34l.04.04.03.03.36.36c.12.12.24.24.36.35.12.11.23.22.33.31.1.09.18.17.25.24l-.27.27-.15-.14c-.18-.14-.34-.19-.46-.15-.12.04-.25.21-.38.52l-1.69,3.95-.25-.12,3.63-1.65-.2.5-4.74,2.09-.25-.25ZM674.33,911.8l2.46-5.79c.08-.14.13-.27.15-.38.02-.11.03-.21.02-.3,0-.09-.07-.19-.17-.3l-.14-.17.27-.27c.1.11.23.25.38.41.15.16.31.32.46.48l.04.04h.01c.12.13.24.25.36.38s.25.24.37.36c.12.12.23.22.33.32.1.09.19.18.27.27l-.27.27-.17-.14c-.2-.17-.37-.24-.49-.2-.13.04-.26.22-.41.53l-1.64,3.79-.15-.11,2.98-1.45c.47-.22.75-.47.85-.75.1-.28.03-.58-.21-.89l-.13-.16.27-.27c.19.2.38.4.56.59.18.19.36.37.53.54s.34.34.49.48c.15.14.29.28.44.41l-.27.27-.14-.12c-.19-.13-.37-.21-.54-.23-.17-.03-.37,0-.6.05-.23.06-.53.18-.9.36l-4.78,2.24-.25-.25Z" fill="#0d1a1e" />
    <path d="M677.65,915c-.17-.16-.36-.34-.56-.53l.27-.27.2.19c.19.16.36.23.5.21s.3-.11.48-.29l.97-.96.94.94-.96.96c-.18.18-.28.34-.29.48-.01.14.07.31.23.51l.18.19-.27.27c-.19-.2-.37-.38-.53-.56-.17-.18-.36-.37-.57-.58s-.4-.4-.58-.56ZM679.5,913.35l.95-.95c.19-.19.29-.36.3-.5s-.07-.31-.22-.51l-.17-.19.27-.27c.1.11.19.21.28.3s.18.19.29.3c.21.21.39.38.57.52s.35.28.52.39l-.08.08-1.77,1.77-.94-.94ZM682.44,911.34c-.16-.16-.26-.35-.27-.57-.02-.21.06-.41.23-.57s.35-.24.57-.22c.22.02.41.11.57.28.17.17.27.37.29.58.02.21-.05.4-.22.57s-.36.24-.58.22c-.22-.02-.41-.12-.58-.29Z" fill="#0d1a1e" />
    <path d="M680.31,917.67c-.17-.16-.36-.34-.56-.53l.27-.27.2.19c.19.15.36.23.5.21s.3-.11.48-.29l.96-.96.94.94-.96.96c-.18.18-.29.34-.3.48-.02.14.04.28.18.44l.08.1-.27.27c-.17-.17-.32-.33-.46-.49-.14-.15-.3-.31-.48-.49-.21-.21-.4-.4-.58-.56ZM682.16,916.01l.95-.95c.19-.19.29-.36.3-.5,0-.14-.07-.31-.22-.51l-.17-.19.27-.27c.1.11.19.21.28.3s.18.19.29.3c.21.21.4.38.57.52s.35.28.52.39l-.08.08-1.77,1.77-.94-.94ZM682.73,920.08c-.15-.14-.31-.29-.49-.46l.27-.27.1.07c.16.15.3.21.44.18.14-.02.3-.12.48-.31l.96-.96.95.95-.96.96c-.18.18-.28.34-.29.48-.01.14.06.3.22.5l.18.19-.27.27c-.19-.2-.37-.38-.54-.56-.17-.18-.35-.37-.55-.56-.18-.18-.34-.34-.49-.48ZM684.49,918.34l.69-.69c.25-.25.38-.48.4-.71.02-.22-.07-.44-.27-.64s-.45-.31-.75-.34-.65.04-1.05.2l.05-.16c.56-.25,1.05-.35,1.47-.3.42.05.79.24,1.12.57.38.38.56.77.54,1.18-.02.41-.23.82-.64,1.23l-.62.62-.95-.95Z" fill="#0d1a1e" />
    <path d="M686.14,923.71c-.29-.29-.46-.61-.53-.97-.07-.36-.02-.74.14-1.14.16-.4.42-.78.79-1.15.39-.39.79-.67,1.21-.82.41-.15.81-.19,1.2-.1.39.08.75.29,1.08.63.25.25.41.5.49.76.08.26.09.5.03.73l-.27.15c.05-.16.05-.33,0-.52-.05-.19-.15-.35-.3-.5-.3-.3-.65-.39-1.06-.28s-.86.41-1.36.91c-.47.47-.77.9-.88,1.29s-.04.7.21.96c.17.17.37.27.61.3.24.03.47,0,.72-.12l-.14.25c-.34.16-.67.22-1.01.15-.33-.06-.65-.24-.93-.52ZM687.28,924.66l1.77-1.77.94.94-.94.94c-.19.19-.29.35-.29.49-.01.14.06.31.21.52l.17.18-.27.27c-.1-.11-.19-.21-.27-.29-.08-.09-.18-.18-.29-.29-.2-.2-.4-.38-.58-.53s-.36-.29-.52-.39l.08-.08ZM689.05,922.89l2.7-2.7c.19-.19.29-.36.29-.51,0-.15-.07-.32-.22-.51l-.17-.18.27-.27c.1.1.19.2.27.29.08.09.18.19.29.3.2.2.39.37.57.52.18.15.36.29.54.41l-.08.08-3.52,3.52-.94-.94Z" fill="#0d1a1e" />
    <path d="M662.38,920.19s-.08-.12-.2-.25-.24-.25-.37-.39l-2.34-2.34.25-.25c.51.07.98.13,1.41.17.43.04.83.05,1.18.03s.67-.08.95-.18c.27-.1.51-.25.72-.46.23-.23.34-.47.33-.71s-.14-.48-.37-.72c-.2-.2-.38-.32-.55-.38-.17-.06-.3-.04-.38.04-.05.05-.09.13-.11.22s-.04.19-.06.29-.08.19-.16.28c-.1.1-.21.14-.32.13-.12-.01-.24-.07-.35-.18-.13-.13-.19-.27-.19-.44,0-.17.08-.33.23-.48.19-.19.43-.3.7-.32.28-.02.57.04.88.17.31.13.6.33.87.6.35.35.55.7.6,1.07.05.37-.07.7-.37,1-.16.16-.37.29-.61.36-.24.08-.53.12-.86.12-.33,0-.7-.02-1.12-.05s-.88-.09-1.39-.15l-.04.04,1.4,1.39c.2.2.37.29.51.29s.32-.08.53-.25l.25.25c-.28.27-.5.49-.64.65-.15.16-.28.3-.4.43Z" fill="#0d1a1e" />
    <path d="M663.5,923.3c-.33-.33-.52-.68-.58-1.06s.03-.68.26-.92c.14-.14.29-.21.46-.22.16,0,.31.06.44.19.11.11.16.22.17.33s-.04.22-.14.32c-.07.07-.14.11-.22.14-.08.02-.16.04-.23.05-.08.01-.14.04-.18.09-.08.08-.1.18-.05.32.04.13.14.27.29.42.38.38.85.5,1.39.34s1.16-.58,1.86-1.28c.66-.66,1.08-1.24,1.27-1.75.18-.5.12-.92-.2-1.23-.23-.23-.52-.32-.86-.25s-.69.27-1.04.62-.55.68-.6,1c-.05.32.04.6.29.86.23.23.51.36.83.38.33.03.65-.05.95-.23l-.23.32c-.33.19-.68.25-1.05.18-.37-.07-.7-.25-.99-.54-.38-.38-.56-.81-.54-1.29.02-.48.23-.92.63-1.32.29-.29.61-.48.94-.58.33-.09.67-.09,1.01.01s.65.29.94.58c.51.51.71,1.09.61,1.75-.1.66-.5,1.34-1.21,2.04-.5.5-1.01.86-1.52,1.09-.51.22-1,.3-1.46.25-.46-.06-.87-.27-1.24-.64Z" fill="#0d1a1e" />
    <path d="M667.7,925.64c-.15-.15-.23-.32-.23-.51s.07-.36.22-.51.31-.22.5-.21.36.08.51.23.23.32.23.52-.06.37-.21.51-.32.22-.51.21-.37-.08-.52-.23Z" fill="#0d1a1e" />
    <path d="M669.47,929.26c-.27-.27-.47-.54-.6-.82s-.19-.54-.18-.79c.01-.25.1-.46.26-.62.14-.14.3-.21.47-.22.17,0,.31.05.44.18.11.11.18.22.18.33,0,.11-.04.21-.13.3-.06.06-.14.11-.22.14s-.16.05-.24.06c-.08.01-.14.04-.19.09-.08.08-.09.21-.02.38.07.17.2.36.4.55.34.34.69.51,1.05.53.36.02.69-.13,1-.43.25-.25.39-.52.44-.82.04-.3-.03-.6-.21-.9-.1-.06-.19-.11-.26-.15s-.13-.09-.18-.14c-.06-.06-.09-.13-.1-.2,0-.07.01-.14.06-.19.05-.05.12-.07.2-.06.08.02.15.06.22.13.04.05.09.1.14.16.05.06.1.13.16.21.31.09.6.1.87.04s.52-.21.74-.44c.28-.28.42-.57.41-.86,0-.3-.15-.59-.43-.87-.19-.19-.37-.31-.55-.38-.18-.07-.31-.06-.4.03-.05.05-.08.12-.09.2,0,.08-.03.17-.04.26s-.06.17-.14.25c-.1.1-.21.14-.32.13-.12,0-.23-.07-.34-.18-.13-.13-.19-.27-.19-.44,0-.16.07-.32.21-.46.17-.17.4-.27.67-.28.28-.01.57.05.88.18.31.13.6.33.87.6.39.39.61.8.66,1.23s-.08.8-.4,1.11c-.25.25-.56.39-.95.43-.39.04-.8-.02-1.26-.19.27.42.41.83.41,1.23,0,.4-.14.75-.42,1.02-.25.25-.53.39-.85.44-.32.05-.66,0-1.01-.13-.35-.14-.69-.37-1-.68Z" fill="#0d1a1e" />
    <path d="M674.07,932.01v-.38s6.73-.32,6.73-.32v.37s-6.73.33-6.73.33ZM675.56,930.33c-.34-.34-.51-.7-.53-1.09-.01-.39.14-.75.45-1.06s.69-.48,1.11-.47c.41.01.79.19,1.14.53s.51.7.52,1.09c0,.39-.14.75-.46,1.06s-.69.47-1.1.46c-.42-.01-.79-.19-1.13-.53ZM675.81,930.13c.43.43.93.36,1.49-.21.27-.27.42-.53.45-.8.03-.26-.06-.5-.27-.71-.21-.21-.45-.3-.7-.27s-.51.19-.78.46-.44.55-.47.8c-.04.26.06.5.28.71ZM677.14,935.08c-.34-.34-.52-.71-.53-1.1-.01-.39.14-.75.45-1.06s.69-.48,1.11-.47c.42.01.79.19,1.14.53.33.33.51.7.52,1.09.01.39-.14.75-.45,1.06-.32.32-.69.48-1.1.47s-.79-.18-1.13-.53ZM677.38,934.88c.42.42.92.35,1.49-.21.27-.27.42-.53.45-.79.03-.26-.06-.5-.27-.71-.21-.21-.44-.3-.69-.27-.25.03-.52.18-.79.46s-.43.54-.46.8c-.03.26.06.5.28.72ZM678.94,930.61c-.16-.16-.29-.34-.39-.55-.11-.21-.19-.44-.26-.69h-.12s-.03-.53-.03-.53c.11.24.27.5.47.79.21.29.42.54.64.77.22.22.47.42.75.58s.54.28.81.33l-.52.1.02-.13c-.27-.04-.51-.12-.74-.23-.23-.11-.44-.25-.63-.44Z" fill="#0d1a1e" />
  </g>
  <g isolation="isolate">
    <path d="M594.49,891.65c-.29-.29-.5-.55-.63-.79-.13-.24-.23-.45-.3-.62-.07-.17-.14-.3-.22-.38-.05-.05-.12-.08-.2-.07-.08.01-.18.06-.3.14l-.27-.27c.13-.11.27-.24.42-.39.15-.15.35-.35.59-.58.24-.24.55-.54.92-.91l.27.27c-.47.59-.71,1.17-.73,1.72-.02.55.19,1.05.62,1.48.31.31.62.47.94.5.32.03.6-.08.85-.33.17-.17.28-.36.32-.57.04-.21.02-.44-.06-.71-.08-.27-.23-.6-.45-.99-.25-.46-.42-.87-.51-1.23-.09-.37-.09-.7,0-1,.09-.3.26-.57.5-.82.42-.42.9-.62,1.44-.58.53.04,1.05.3,1.54.79.26.26.44.49.56.71s.2.41.26.58c.06.17.13.29.21.37.06.06.13.09.2.08s.17-.06.3-.14l.27.27c-.11.09-.23.2-.37.33-.13.12-.3.29-.5.48-.2.2-.47.46-.8.79l-.27-.27c.24-.33.4-.67.48-1,.08-.33.08-.66,0-.97-.08-.31-.25-.59-.5-.85-.27-.27-.55-.41-.83-.42-.28,0-.53.1-.75.32-.16.16-.25.33-.3.52-.04.19-.02.43.07.71.09.28.24.62.46,1.03.27.46.45.88.52,1.25.08.37.07.7-.01,1-.08.29-.25.57-.51.83-.45.45-.96.65-1.54.6-.57-.05-1.13-.35-1.69-.9Z" fill="#0d1a1e" />
    <path d="M598.82,895.98c-.35-.35-.58-.72-.71-1.12s-.13-.82,0-1.24c.13-.43.4-.85.81-1.26.42-.42.84-.69,1.27-.81s.84-.13,1.25,0c.4.13.78.36,1.12.71s.58.71.7,1.11c.12.4.12.81,0,1.24s-.4.85-.82,1.26-.84.69-1.26.82c-.42.13-.83.12-1.24,0s-.77-.36-1.11-.7ZM599.08,895.7c.21.21.52.27.92.15.4-.11.88-.44,1.43-1,.57-.57.9-1.05,1.01-1.44s.05-.7-.16-.91c-.22-.22-.53-.28-.93-.17s-.88.44-1.44,1.01-.9,1.04-1,1.43c-.11.39-.05.7.17.93Z" fill="#0d1a1e" />
    <path d="M601.72,898.66c-.17-.16-.36-.34-.56-.53l.27-.27.2.19c.19.15.36.23.5.21s.3-.11.48-.29l.96-.96.94.94-.96.96c-.18.18-.28.34-.29.48s.07.31.23.51l.18.19-.27.27c-.19-.2-.37-.38-.53-.56-.17-.18-.36-.37-.57-.58s-.4-.4-.58-.56ZM603.57,897l2.7-2.7c.19-.19.29-.36.3-.5,0-.14-.06-.31-.22-.51l-.17-.19.27-.27c.1.11.19.21.28.3.09.09.18.19.29.3.21.21.4.38.57.52.18.14.35.28.52.39l-.08.08-3.52,3.52-.94-.94Z" fill="#0d1a1e" />
    <path d="M604.79,901.95c-.3-.3-.46-.62-.49-.96-.03-.34.09-.64.36-.91.21-.21.44-.33.67-.36.24-.02.47,0,.71.08.24.08.47.18.71.3s.45.24.66.36c.21.12.4.19.57.22.17.03.32,0,.45-.12l-.34.36c-.11.06-.24.08-.38.04s-.3-.08-.46-.13c-.16-.05-.32-.1-.49-.14-.16-.04-.33-.05-.49-.03-.17.03-.33.12-.48.27s-.24.33-.24.5c0,.17.07.34.23.5.13.13.28.22.47.26.18.05.4.05.63,0l-.27.29c-.36.08-.69.07-.98-.01-.3-.09-.57-.26-.83-.51ZM607.5,903.32c-.1.11-.17.2-.18.29-.02.08.01.16.09.24.06.06.14.11.23.14.09.03.2.06.32.07l-.11.34c-.22-.03-.43-.09-.64-.19-.21-.1-.4-.24-.58-.41-.25-.25-.39-.49-.41-.72-.02-.23.08-.46.3-.67l1.22-1.22.94.94-1.19,1.19ZM607.75,901.18l.9-.9c.24-.24.36-.46.36-.68s-.11-.44-.34-.67c-.16-.16-.31-.27-.45-.33-.14-.06-.24-.05-.32.03-.05.04-.08.12-.1.21-.02.1-.04.2-.07.29-.03.09-.07.17-.14.24-.1.1-.23.15-.39.12-.16-.02-.3-.1-.43-.23-.16-.16-.24-.33-.24-.51,0-.18.07-.34.21-.49.19-.19.42-.29.68-.3.26,0,.54.07.85.22.31.16.61.39.92.69.5.5.74.96.73,1.39,0,.43-.26.88-.74,1.37l-.49.49-.94-.94Z" fill="#0d1a1e" />
    <path d="M608.56,905.5c-.17-.16-.36-.34-.56-.53l.27-.27.2.18c.19.16.36.23.5.21.14-.01.3-.11.48-.29l.96-.96.94.94-.96.96c-.13.13-.21.24-.25.34-.04.1-.03.21.02.32.05.11.13.24.25.39l.21.25-.27.27c-.13-.14-.26-.28-.39-.41-.13-.14-.26-.27-.39-.4-.13-.14-.27-.28-.43-.44-.21-.21-.4-.4-.58-.56ZM610.4,903.84l.95-.95c.19-.19.29-.36.3-.5,0-.14-.07-.31-.22-.51l-.16-.19.27-.27c.1.11.19.21.28.3.08.09.18.19.29.3.21.21.4.38.57.52.18.14.35.27.52.39l-.08.08-1.77,1.77-.94-.94ZM613.02,905.44c-.12-.12-.19-.25-.19-.38,0-.13.05-.25.15-.35.06-.06.13-.1.2-.13.08-.03.15-.06.22-.09.07-.03.13-.07.18-.11.1-.11.09-.22-.04-.36-.09-.09-.21-.16-.35-.21-.15-.05-.3-.08-.46-.08s-.31.03-.46.1l.27-.3c.32-.1.63-.12.92-.04.3.07.55.22.77.43s.32.45.32.69c0,.25-.12.48-.34.71-.2.2-.4.31-.63.33-.22.02-.41-.05-.57-.21Z" fill="#0d1a1e" />
    <path d="M582.61,901.99c-.25-.25-.43-.51-.55-.79-.12-.28-.17-.55-.14-.8.03-.25.13-.47.31-.65.14-.14.3-.22.46-.22.17,0,.32.05.45.19.1.11.16.21.17.32,0,.11-.04.21-.14.31-.07.07-.14.12-.22.15-.08.03-.16.05-.23.07-.07.01-.14.05-.2.11-.1.1-.12.23-.06.42.05.18.16.36.34.53.32.32.68.47,1.08.45s.78-.23,1.15-.6c.36-.36.55-.74.56-1.11.01-.38-.14-.73-.47-1.05-.15-.15-.3-.27-.45-.37-.15-.1-.31-.18-.47-.24l-.07-.07,2.47-1.8c.12.17.25.35.39.53.14.18.3.36.48.54.2.2.39.36.58.48s.38.2.55.23l.02.27c-.3.14-.6.17-.91.08-.31-.09-.62-.28-.92-.59-.12-.12-.23-.25-.35-.38-.11-.13-.21-.26-.28-.39l-1.42,1.03c.17.06.34.15.49.26.16.11.31.24.45.38.45.45.68.93.67,1.43,0,.5-.22.97-.65,1.41-.29.29-.62.48-.98.57s-.72.07-1.09-.04c-.36-.11-.71-.33-1.03-.66ZM583.91,898.88c-.11-.11-.12-.23,0-.34.08-.08.2-.12.35-.11.15,0,.31.07.47.17l-.08.17c-.14.13-.27.2-.4.22-.13.02-.24-.02-.33-.11Z" fill="#0d1a1e" />
    <path d="M586.63,904.15c-.15-.15-.23-.32-.23-.51,0-.19.07-.36.22-.51.15-.15.31-.22.5-.21.19,0,.36.08.51.23s.23.32.23.52c0,.2-.06.37-.21.51-.15.15-.32.22-.51.21-.2,0-.37-.08-.52-.23Z" fill="#0d1a1e" />
    <path d="M591.07,908.47s-.08-.13-.2-.25c-.12-.13-.24-.25-.37-.39l-2.34-2.34.25-.25c.51.07.98.13,1.41.17.43.04.83.05,1.18.03s.67-.08.95-.18c.27-.1.51-.25.72-.46.23-.23.34-.47.33-.71-.01-.24-.14-.49-.37-.72-.2-.2-.38-.32-.55-.38s-.3-.04-.38.04c-.05.05-.09.13-.11.22s-.04.19-.06.29c-.03.1-.08.19-.16.28-.1.1-.2.14-.32.13-.12-.01-.24-.07-.35-.18-.13-.13-.19-.27-.19-.44,0-.17.08-.32.23-.47.19-.19.43-.3.7-.32.28-.02.57.04.88.17.31.13.6.33.87.6.35.35.55.7.6,1.08.05.37-.07.7-.37,1-.16.16-.37.29-.61.36-.24.08-.53.12-.86.12-.33,0-.7-.02-1.12-.05s-.88-.09-1.39-.15l-.04.04,1.4,1.4c.2.2.37.29.51.29.14,0,.32-.08.53-.25l.25.25c-.28.27-.5.49-.64.65s-.28.3-.4.43Z" fill="#0d1a1e" />
    <path d="M592.93,910.46v-.38s6.73-.32,6.73-.32v.37l-6.73.33ZM594.42,908.77c-.34-.34-.51-.7-.53-1.09s.14-.75.45-1.06c.32-.32.69-.48,1.11-.46.41.01.79.19,1.14.53s.51.7.52,1.09c0,.39-.14.75-.46,1.06s-.69.47-1.1.46c-.41-.01-.79-.19-1.13-.53ZM594.67,908.58c.43.43.93.36,1.49-.21.27-.27.42-.54.45-.8.03-.26-.06-.5-.27-.71s-.45-.3-.7-.27c-.25.04-.51.19-.78.46-.28.28-.43.55-.47.8-.03.26.06.5.28.72ZM596,913.52c-.34-.34-.52-.71-.53-1.1-.01-.39.14-.75.45-1.06s.69-.48,1.11-.46c.42.01.79.19,1.14.53.33.33.51.7.52,1.09.01.39-.14.75-.45,1.06-.32.32-.69.48-1.1.47-.41,0-.79-.19-1.13-.53ZM596.24,913.33c.42.42.92.35,1.49-.21.27-.27.42-.53.45-.79.03-.26-.06-.5-.27-.71s-.44-.3-.69-.27c-.25.03-.52.18-.79.46-.27.27-.43.54-.46.8-.03.26.06.5.28.72ZM597.8,909.05c-.16-.16-.29-.34-.39-.55s-.19-.44-.26-.69h-.12s-.03-.53-.03-.53c.11.24.27.5.47.79.21.29.42.54.64.77s.47.42.75.58c.27.16.54.28.81.34l-.52.09.02-.13c-.26-.05-.51-.12-.74-.23-.23-.1-.44-.25-.63-.44Z" fill="#0d1a1e" />
  </g>
  <g isolation="isolate">
    <path d="M522.13,888.93c-.1-.1-.22-.23-.37-.39-.15-.17-.3-.32-.45-.47-.14-.14-.3-.29-.46-.45-.17-.16-.32-.31-.46-.44-.14-.14-.26-.25-.37-.35l.27-.27.26.23c.15.11.28.19.39.22.11.03.21.03.3-.02s.22-.15.36-.29l3.13-3.13c.15-.15.24-.27.29-.36.05-.1.06-.2.02-.3-.03-.11-.11-.24-.22-.39l-.23-.26.27-.27c.11.11.22.23.36.37.13.14.28.29.44.46.16.17.31.32.46.46.15.15.31.3.47.45.16.15.29.27.39.37l.29.29c.56.56.88,1.07.97,1.55.09.48-.04.9-.41,1.27-.31.3-.66.45-1.07.42-.41-.02-.85-.2-1.33-.54h-.01c.51.59.79,1.13.86,1.62.06.49-.08.91-.44,1.27-.42.42-.91.57-1.48.47-.57-.1-1.16-.45-1.75-1.05l-.46-.46ZM522.6,888.83c.36.36.72.54,1.09.54.36,0,.72-.17,1.06-.52s.52-.7.51-1.07c0-.37-.19-.72-.54-1.08l-.79-.79.24-.24.72.72c.28.28.59.41.91.38.33-.03.65-.2.96-.52.31-.31.47-.61.48-.91,0-.3-.14-.6-.43-.9l-.43-.46-3.74,3.74c-.15.15-.25.28-.3.39-.06.11-.06.22-.02.33.04.11.14.23.28.38Z" fill="#0d1a1e" />
    <path d="M525.62,892.38c-.17-.16-.36-.34-.56-.53l.27-.27.2.19c.19.15.36.23.5.21.14,0,.3-.11.48-.29l.96-.96.94.95-.96.96c-.18.18-.28.34-.29.48-.01.14.07.31.23.51l.18.19-.27.27c-.19-.2-.36-.38-.53-.56-.17-.18-.36-.37-.57-.58s-.4-.4-.58-.56ZM527.46,890.73l.95-.95c.19-.19.29-.36.3-.5,0-.14-.07-.31-.22-.51l-.17-.19.27-.27c.1.11.19.21.28.3.08.09.18.19.29.3.21.21.4.38.57.52.18.14.35.28.52.39l-.08.08-1.77,1.77-.94-.95ZM530.4,888.72c-.16-.16-.26-.35-.27-.57-.02-.21.06-.41.23-.57.16-.17.35-.24.57-.22.22.02.41.11.57.28.17.17.27.37.29.58.02.21-.05.4-.22.57-.17.17-.36.24-.58.22-.22-.02-.41-.12-.58-.29Z" fill="#0d1a1e" />
    <path d="M529.46,896.44c-.35-.35-.58-.72-.71-1.12-.13-.4-.13-.81,0-1.24.13-.43.4-.85.81-1.26.42-.42.84-.69,1.27-.81.43-.13.85-.13,1.25,0,.4.13.78.37,1.12.71.34.34.58.71.7,1.11.12.4.12.81,0,1.24-.13.43-.4.85-.82,1.26-.42.42-.84.69-1.26.82-.42.12-.83.12-1.23,0-.4-.13-.77-.36-1.11-.7ZM529.72,896.17c.21.21.52.27.92.15.4-.11.88-.44,1.43-1,.57-.57.9-1.05,1.01-1.44.11-.39.05-.7-.16-.91s-.53-.28-.93-.17c-.39.11-.88.44-1.44,1.01-.56.56-.9,1.04-1,1.43s-.05.7.17.93Z" fill="#0d1a1e" />
    <path d="M533.71,900.7c-.35-.35-.57-.72-.68-1.12-.1-.4-.08-.81.05-1.22.14-.42.4-.82.79-1.21.4-.4.8-.66,1.22-.79.42-.13.83-.14,1.24-.03s.79.34,1.15.7c.32.32.54.66.64,1,.11.34.09.7-.03,1.06-.13.37-.4.74-.8,1.12l-2.56-2.56.27-.27,1.71,1.71c.23-.21.41-.43.54-.65s.19-.42.2-.62c0-.2-.07-.38-.23-.53-.19-.19-.45-.25-.79-.2-.34.06-.73.28-1.16.67v.04c-.05.03-.1.06-.15.11-.06.05-.11.1-.18.16-.46.46-.72.9-.8,1.33-.08.43.04.81.36,1.13.23.23.48.37.76.42.28.06.59.03.94-.09l.11.38c-.47.21-.93.26-1.38.17-.45-.1-.86-.33-1.23-.71Z" fill="#0d1a1e" />
    <path d="M536.46,903.22c-.17-.16-.36-.34-.56-.53l.27-.27.2.18c.19.16.36.23.5.22.14-.01.3-.11.48-.29l.96-.96.94.94-.96.96c-.18.18-.28.34-.3.48-.02.14.04.28.18.43l.08.1-.27.27c-.16-.17-.32-.33-.46-.48-.14-.15-.3-.32-.48-.49-.21-.21-.4-.4-.58-.56ZM538.3,901.57l.95-.95c.19-.19.29-.36.3-.5,0-.14-.07-.31-.22-.51l-.16-.19.27-.27c.1.11.19.21.28.3.08.09.18.19.29.3.21.21.4.38.57.52.18.14.35.28.52.39l-.08.08-1.77,1.77-.94-.94ZM538.87,905.64c-.15-.14-.31-.29-.49-.46l.27-.27.1.07c.16.15.3.21.44.18.14-.02.3-.12.48-.31l.96-.96.95.95-.96.96c-.18.18-.28.34-.29.48-.01.14.06.3.22.5l.18.19-.27.27c-.19-.2-.37-.38-.54-.56-.17-.18-.35-.37-.55-.56-.18-.18-.34-.34-.49-.48ZM540.63,903.89l.69-.69c.25-.25.38-.48.4-.71.02-.22-.07-.44-.27-.64s-.45-.31-.75-.34c-.3-.03-.65.04-1.05.2l.06-.16c.56-.25,1.05-.35,1.47-.3.42.05.79.24,1.12.57.38.38.56.77.54,1.18-.02.41-.23.82-.64,1.23l-.62.62-.95-.95Z" fill="#0d1a1e" />
    <path d="M542.52,909.5c-.35-.35-.57-.72-.67-1.12-.1-.4-.08-.81.05-1.22.14-.41.4-.82.79-1.21.4-.4.8-.66,1.22-.79.42-.13.83-.14,1.24-.03.41.11.79.34,1.15.7.32.32.54.66.64,1,.11.34.09.7-.03,1.06-.13.37-.39.74-.8,1.12l-2.56-2.56.27-.27,1.71,1.71c.23-.21.41-.43.54-.65.12-.22.19-.43.19-.63,0-.2-.07-.38-.23-.53-.19-.19-.45-.25-.79-.2-.34.05-.73.28-1.16.67v.04c-.05.03-.1.06-.15.11-.06.05-.12.1-.18.16-.46.46-.72.9-.8,1.33-.08.43.04.81.36,1.13.23.23.48.37.76.42.28.05.59.02.94-.09l.11.38c-.47.21-.93.26-1.38.17-.45-.1-.86-.33-1.23-.71Z" fill="#0d1a1e" />
    <path d="M545.26,912.03c-.17-.16-.36-.34-.56-.53l.27-.27.2.19c.19.15.36.23.5.21.14,0,.3-.11.48-.29l.96-.96.94.95-.96.96c-.13.13-.21.24-.25.34s-.03.21.02.32c.05.11.13.24.25.39l.21.25-.27.27c-.13-.14-.26-.28-.39-.41-.13-.13-.26-.27-.39-.4-.13-.14-.27-.28-.43-.44-.21-.21-.4-.4-.58-.56ZM547.11,910.37l.95-.95c.19-.19.29-.36.3-.5,0-.14-.07-.31-.22-.51l-.17-.19.27-.27c.1.11.19.21.28.3.08.09.18.19.29.3.21.21.4.38.57.52.18.14.35.28.52.39l-.08.08-1.77,1.77-.94-.95ZM549.72,911.98c-.12-.12-.19-.25-.19-.38,0-.13.05-.25.15-.35.06-.06.13-.1.2-.13s.15-.06.22-.09c.07-.03.13-.06.18-.11.1-.1.09-.22-.04-.36-.09-.09-.21-.16-.36-.21s-.3-.08-.45-.08c-.16,0-.31.03-.46.1l.27-.3c.32-.1.63-.11.92-.04.3.07.55.22.77.43.21.21.32.45.32.7,0,.25-.12.48-.34.71-.2.2-.41.3-.63.33-.22.02-.41-.05-.57-.21Z" fill="#0d1a1e" />
    <path d="M548.19,918.25c-.48-.48-.78-.93-.89-1.36-.12-.43-.05-.77.21-1.02.21-.21.47-.3.8-.3.33,0,.7.12,1.12.33l.07.27c-.19-.04-.38-.03-.57.02-.18.05-.35.15-.49.29-.24.24-.34.5-.31.79s.19.58.49.88c.23.23.47.39.72.49s.49.14.72.11c.23-.03.44-.13.61-.3.16-.16.22-.33.2-.51-.02-.19-.14-.38-.34-.59l-.72-.72c-.29-.29-.47-.58-.53-.88-.06-.29,0-.53.18-.72.16-.16.37-.26.62-.28.25-.02.55.02.9.12l.2.27c-.15-.03-.28-.03-.36-.01-.09.02-.16.06-.23.12-.09.09-.12.2-.09.32.03.13.12.27.28.42l.75.75c.4.4.63.79.67,1.15s-.08.71-.39,1.02c-.3.3-.64.46-1.04.5-.39.04-.81-.04-1.26-.23-.44-.19-.88-.5-1.3-.92ZM551.34,915.38c-.45-.45-.7-.9-.75-1.35-.06-.45.09-.85.44-1.2.36-.36.77-.51,1.22-.46.45.05.9.31,1.35.75.44.44.69.88.74,1.33.05.44-.11.85-.47,1.21s-.75.51-1.2.46c-.44-.05-.89-.3-1.33-.74ZM551.6,915.12c.18.18.39.25.62.2.23-.05.5-.22.79-.51.3-.3.48-.57.53-.8.05-.23-.01-.44-.19-.62s-.39-.25-.63-.2c-.23.05-.5.23-.8.53-.3.3-.47.56-.52.79-.05.23.02.44.2.61ZM554.66,916.08c-.09-.09-.13-.19-.11-.29.02-.1.05-.21.1-.32.05-.1.09-.2.12-.29.03-.09.02-.16-.03-.21-.03-.03-.08-.05-.16-.07-.08-.02-.17-.03-.28-.02-.11,0-.22.02-.34.06l.07-.33c.26-.06.51-.06.77,0,.26.06.47.18.63.34.16.16.24.33.25.51,0,.18-.07.34-.23.5-.13.13-.27.21-.41.23-.15.02-.27-.01-.37-.11Z" fill="#0d1a1e" />
    <path d="M552.11,922.17c-.25-.25-.38-.5-.4-.76-.02-.26.06-.49.25-.68.16-.16.34-.24.53-.24s.37.08.53.24c.12.12.19.24.21.36.01.12-.03.23-.12.32-.06.06-.13.11-.21.15-.08.04-.15.06-.22.08-.07.02-.13.06-.18.11-.09.09-.09.18,0,.27.12.12.26.18.42.18.16,0,.34-.04.55-.12l1.33-.59.14.34-1.23.55c-.21.09-.4.15-.58.17s-.35,0-.52-.06-.32-.17-.47-.32ZM554.35,921.84l1.72-4.61c.05-.16.08-.29.1-.39.02-.1.01-.19-.01-.27-.03-.08-.08-.17-.16-.27l-.15-.18.27-.26c.11.12.23.25.38.4.14.15.28.3.43.44h0s.04.05.04.05c.14.14.29.29.44.44.15.15.3.29.43.41.13.12.24.23.34.32l-.27.27-.13-.12c-.18-.14-.32-.19-.44-.14-.12.04-.23.22-.35.52l-.99,2.66-.22-.08,1.79-.81c.38-.16.66-.31.83-.46.17-.15.28-.29.31-.44.03-.14-.02-.29-.14-.44l-.08-.1.27-.27c.14.15.26.28.38.41.12.13.24.25.36.37.14.14.27.26.39.37.12.11.24.22.35.33l-.27.27-.12-.08c-.13-.09-.26-.14-.4-.15-.14,0-.32.02-.55.09-.23.06-.52.17-.88.32l-3.51,1.58-.17-.17Z" fill="#0d1a1e" />
    <path d="M510.15,899.36c-.27-.27-.47-.54-.6-.82-.13-.28-.19-.54-.18-.79.01-.25.1-.45.26-.62.14-.14.3-.21.46-.22.17,0,.31.05.44.18.11.11.17.22.18.33,0,.11-.04.21-.13.3-.06.06-.14.11-.22.14s-.16.05-.24.06c-.08.01-.14.04-.19.09-.08.08-.09.21-.02.38.07.17.2.36.4.56.34.34.69.51,1.05.53.36.01.7-.13,1-.43.25-.25.39-.52.44-.82.04-.3-.03-.6-.21-.9-.1-.06-.19-.11-.26-.15-.07-.04-.13-.09-.18-.14-.06-.06-.09-.13-.1-.2,0-.08.01-.14.06-.19.05-.05.12-.07.2-.06.08.02.15.06.22.13.04.04.09.1.14.16s.1.13.16.21c.31.09.6.1.87.04s.52-.21.74-.44c.28-.28.42-.56.41-.86s-.15-.59-.43-.87c-.19-.19-.37-.31-.55-.38-.18-.07-.31-.06-.4.03-.05.05-.08.12-.09.2-.01.08-.03.17-.04.26s-.06.17-.14.25c-.1.1-.2.14-.32.13-.12,0-.23-.07-.34-.18-.13-.13-.19-.27-.19-.44,0-.17.07-.32.21-.46.17-.17.4-.27.67-.28.28-.01.57.05.88.18.31.13.6.33.87.6.39.39.61.8.66,1.23.05.43-.08.8-.4,1.11-.25.25-.56.39-.95.43-.39.04-.8-.02-1.26-.19.27.42.41.83.41,1.24,0,.4-.14.74-.42,1.02-.25.25-.53.39-.85.44-.32.05-.66,0-1.01-.13-.35-.14-.69-.37-1-.68Z" fill="#0d1a1e" />
    <path d="M514.19,901.54c-.15-.15-.23-.32-.23-.51s.07-.36.22-.51.31-.22.5-.22.36.08.51.23.23.32.23.52-.06.37-.21.51-.32.22-.51.21-.37-.08-.52-.23Z" fill="#0d1a1e" />
    <path d="M515.68,902.84l.27-.27c.31.3.58.49.8.56.22.07.43,0,.63-.2l1.5-1.5c.21-.21.35-.4.4-.56.05-.16.03-.33-.08-.5-.1-.18-.29-.4-.55-.66l.27-.27c.39.37.73.65,1.03.84.3.19.6.33.92.4l-2.87,2.87c-.2.2-.28.4-.22.61s.24.47.56.8l-.27.27c-.11-.12-.27-.29-.49-.52-.21-.23-.43-.45-.66-.68-.24-.24-.47-.46-.71-.69-.23-.22-.41-.38-.53-.5Z" fill="#0d1a1e" />
    <path d="M519.51,906.86v-.38s6.73-.32,6.73-.32v.37s-6.73.33-6.73.33ZM521,905.18c-.34-.34-.51-.7-.53-1.1-.01-.39.14-.75.45-1.06.32-.32.69-.48,1.11-.46.41.01.79.19,1.14.53s.51.7.52,1.1c0,.39-.14.75-.46,1.06-.32.32-.69.47-1.1.46-.42-.01-.79-.19-1.13-.53ZM521.25,904.99c.43.43.92.36,1.49-.21.27-.27.42-.53.45-.8.03-.26-.06-.5-.27-.71-.21-.21-.45-.3-.7-.27-.25.04-.51.19-.78.46-.28.28-.44.55-.47.8-.03.26.06.5.28.72ZM522.58,909.93c-.34-.34-.52-.71-.53-1.1-.01-.39.14-.75.45-1.06.32-.32.69-.48,1.11-.47.42.01.79.19,1.14.53s.51.7.52,1.09c.01.39-.14.75-.45,1.06s-.69.48-1.1.47c-.41,0-.79-.19-1.13-.53ZM522.82,909.74c.42.42.92.35,1.49-.21.27-.27.42-.53.45-.79.03-.26-.06-.5-.27-.71s-.44-.3-.69-.27c-.25.03-.52.18-.79.45s-.43.54-.46.8c-.04.26.06.5.28.72ZM524.38,905.46c-.16-.16-.29-.34-.39-.55s-.19-.44-.26-.69h-.12s-.03-.53-.03-.53c.11.24.27.5.47.79.21.29.42.54.64.77.22.22.47.42.75.58.27.16.54.28.81.33l-.52.1.02-.13c-.26-.05-.51-.12-.74-.23-.23-.11-.44-.25-.63-.44Z" fill="#0d1a1e" />
  </g>
  <g isolation="isolate">
    <path d="M449.72,885.64c-.14-.14-.29-.28-.43-.42-.15-.14-.28-.27-.41-.4-.13-.13-.24-.23-.34-.32l.27-.27.24.21c.15.12.27.2.39.24.11.04.22.03.32-.02.1-.05.22-.15.37-.29l2.28-2.28,1.05,1.05-2.28,2.28c-.21.21-.33.38-.35.5-.02.12.04.29.2.5l.14.15-.27.27c-.07-.08-.16-.18-.28-.3-.11-.12-.23-.24-.36-.37-.13-.13-.25-.26-.37-.38l-.07-.07-.08-.08ZM452.82,888.74c-.12-.12-.25-.25-.38-.38-.13-.13-.25-.25-.37-.35-.11-.11-.22-.2-.31-.29l.27-.27.17.16c.22.16.39.22.51.2.12-.02.29-.14.5-.35l.86-.86,1.04,1.04-.86.86c-.14.14-.24.26-.29.37-.05.1-.06.21-.02.32.04.11.12.24.24.39l.21.24-.27.27c-.09-.1-.19-.21-.32-.34-.13-.13-.26-.27-.41-.42-.14-.15-.28-.29-.41-.42l-.08-.08-.08-.08ZM452.19,883.54l.26-.26,2.89,2.89-.26.26-2.89-2.89ZM452.4,882.09l.85-.85c.15-.15.25-.27.3-.37.05-.1.05-.2,0-.31s-.12-.24-.23-.39l-.21-.24.27-.27c.09.09.2.2.32.34.12.13.25.27.4.42.14.15.28.29.42.43l.08.07.08.08c.13.13.25.25.38.38.13.12.25.24.37.35.12.11.22.2.29.28l-.27.27-.15-.14c-.22-.16-.39-.22-.51-.2-.12.02-.29.14-.5.36l-.85.85-1.05-1.05ZM454.06,886.6l2.27-2.29c.22-.22.34-.39.36-.51.02-.12-.05-.29-.2-.5l-.15-.18.27-.27c.09.09.18.2.29.32.11.12.22.24.35.37.13.13.25.26.36.37l.08.08.08.08c.14.14.28.28.42.42.15.14.29.27.42.4.13.12.25.23.34.33l-.27.27-.25-.22c-.15-.11-.28-.18-.39-.22-.1-.04-.2-.04-.31,0-.1.04-.23.14-.38.29l-2.27,2.29-1.04-1.04Z" fill="#0d1a1e" />
    <path d="M453.8,893.03c-.25-.25-.38-.5-.4-.76-.02-.26.06-.49.25-.68.16-.16.34-.24.53-.24.19,0,.37.08.53.24.12.12.19.24.21.36.01.12-.03.23-.12.32-.06.06-.13.11-.21.15-.08.03-.15.06-.22.08-.07.02-.13.05-.18.11-.09.09-.09.18,0,.27.12.12.26.18.42.18s.34-.04.55-.12l1.33-.59.14.34-1.23.55c-.21.09-.4.15-.58.17s-.35,0-.52-.06c-.16-.06-.32-.17-.47-.32ZM456.04,892.7l1.72-4.61c.05-.16.08-.29.1-.39.02-.1.01-.19-.01-.28-.03-.08-.08-.17-.16-.27l-.15-.18.27-.26c.11.12.24.25.38.4.14.15.28.3.42.44h0s.04.05.04.05c.14.14.29.29.44.44.15.15.3.29.43.41.13.12.24.23.33.32l-.27.27-.13-.12c-.18-.14-.32-.19-.44-.14-.12.04-.23.22-.35.52l-.99,2.66-.22-.08,1.79-.81c.38-.16.66-.31.83-.46.17-.15.28-.29.31-.44.03-.14-.02-.29-.14-.44l-.08-.1.27-.27c.14.15.26.28.38.41.12.13.24.25.36.37.14.14.27.27.39.37.12.11.23.22.35.33l-.27.27-.12-.08c-.13-.09-.26-.14-.4-.15-.14,0-.32.02-.55.09-.23.06-.52.17-.88.32l-3.51,1.58-.17-.17Z" fill="#0d1a1e" />
    <path d="M460.1,896.25c-.29-.29-.46-.61-.53-.98s-.02-.74.14-1.14.42-.78.79-1.15c.39-.39.79-.67,1.21-.82.41-.15.82-.19,1.2-.1.39.09.75.29,1.09.63.25.25.41.5.49.76s.09.51.03.73l-.27.15c.05-.16.05-.33,0-.52-.05-.19-.15-.35-.3-.5-.3-.3-.65-.39-1.06-.28s-.86.41-1.37.91c-.47.47-.77.9-.88,1.29-.11.38-.04.7.21.96.17.17.37.27.61.3.23.04.47,0,.72-.12l-.14.25c-.34.16-.67.21-1.01.15-.34-.06-.65-.24-.93-.52ZM461.23,897.19l1.77-1.77.94.94-.94.94c-.19.19-.29.35-.29.49,0,.14.06.31.21.52l.17.18-.27.27c-.1-.11-.19-.21-.27-.29-.08-.09-.18-.18-.29-.29-.2-.2-.39-.38-.58-.53-.19-.16-.36-.28-.52-.39l.08-.08ZM463,895.43l2.7-2.7c.19-.19.29-.36.29-.51,0-.15-.07-.32-.22-.51l-.17-.18.27-.27c.09.1.19.2.27.29.08.09.18.19.29.3.2.2.39.37.57.52.18.15.36.29.54.41l-.08.08-3.52,3.52-.94-.94Z" fill="#0d1a1e" />
    <path d="M463.72,899.66c-.17-.16-.36-.34-.56-.53l.27-.27.2.18c.19.16.36.23.5.22.14-.01.3-.11.48-.29l.96-.96.94.94-.96.96c-.13.13-.21.24-.25.34-.04.1-.03.21.02.32.05.11.13.24.25.39l.21.25-.27.27c-.13-.14-.26-.28-.39-.41-.13-.13-.26-.27-.39-.4-.13-.13-.27-.28-.44-.44-.21-.21-.4-.4-.58-.56ZM465.57,898l.95-.95c.19-.19.29-.36.3-.5,0-.14-.07-.31-.22-.51l-.16-.19.27-.27c.1.11.19.21.28.3.08.09.18.19.29.3.21.21.4.38.57.52.18.14.35.28.52.39l-.08.08-1.77,1.77-.94-.94ZM468.19,899.6c-.12-.12-.19-.25-.19-.38,0-.13.05-.25.15-.35.06-.06.13-.1.2-.13.07-.03.15-.06.22-.08.07-.03.13-.07.18-.11.1-.1.09-.22-.04-.36-.09-.09-.21-.16-.36-.21-.15-.05-.3-.08-.46-.08-.16,0-.31.03-.46.1l.27-.3c.32-.1.63-.11.92-.04.3.07.55.22.77.43s.32.45.32.69c0,.25-.11.49-.34.71-.2.2-.41.3-.63.33-.22.02-.41-.05-.57-.21Z" fill="#0d1a1e" />
    <path d="M468.56,904.71c-.35-.35-.58-.72-.71-1.12-.13-.4-.13-.82,0-1.24.12-.43.4-.85.81-1.26s.84-.69,1.27-.81c.43-.13.84-.13,1.25,0,.4.13.78.37,1.12.71s.58.71.7,1.11c.12.4.12.81,0,1.24-.13.42-.4.85-.82,1.26s-.84.69-1.26.82c-.42.12-.83.12-1.23,0-.4-.13-.77-.36-1.11-.7ZM468.82,904.44c.21.21.52.27.92.15.4-.11.87-.44,1.43-1,.57-.57.9-1.04,1.01-1.44.11-.39.05-.7-.16-.91-.22-.22-.53-.28-.93-.18-.39.11-.87.45-1.44,1.01-.56.56-.9,1.04-1,1.43s-.05.7.18.93Z" fill="#0d1a1e" />
    <path d="M441.38,897.77s-.08-.12-.2-.25c-.12-.13-.24-.25-.37-.39l-2.34-2.34.25-.25c.51.07.98.13,1.41.17.43.04.83.05,1.18.03.36-.02.67-.08.95-.18.27-.1.51-.25.72-.46.23-.23.34-.47.33-.72-.01-.24-.14-.48-.37-.72-.2-.2-.38-.32-.55-.38-.17-.06-.3-.04-.38.04-.05.05-.09.13-.11.22s-.04.19-.06.29c-.02.1-.08.2-.16.28-.1.1-.2.14-.33.13-.12-.01-.24-.07-.35-.18-.13-.13-.19-.27-.19-.44,0-.17.08-.33.23-.48.19-.19.43-.3.7-.31.28-.02.57.04.88.17.31.13.6.33.87.6.35.35.55.7.6,1.07.05.37-.07.7-.37,1.01-.16.16-.37.29-.61.36-.24.08-.53.12-.86.12-.33,0-.7-.01-1.12-.05-.41-.04-.88-.09-1.39-.15l-.04.04,1.4,1.4c.2.2.37.29.51.29s.32-.08.53-.25l.25.25c-.28.27-.5.49-.64.65-.15.16-.28.3-.4.43Z" fill="#0d1a1e" />
    <path d="M443.24,899.75v-.38s6.73-.32,6.73-.32v.37s-6.73.33-6.73.33ZM444.73,898.07c-.34-.34-.51-.7-.53-1.09-.01-.39.14-.75.45-1.06s.69-.48,1.11-.47c.42.01.79.19,1.14.53.34.34.51.7.52,1.1,0,.39-.14.75-.46,1.06s-.69.47-1.1.46c-.42-.01-.79-.19-1.13-.53ZM444.98,897.88c.43.43.93.36,1.49-.21.27-.27.42-.53.45-.8s-.06-.5-.27-.71-.45-.3-.7-.27c-.25.04-.51.19-.78.46-.28.28-.44.55-.47.8-.04.26.06.5.28.72ZM446.3,902.82c-.34-.34-.52-.71-.53-1.1-.01-.39.14-.75.45-1.06.32-.32.69-.48,1.11-.46.42.01.79.19,1.14.53s.51.7.52,1.09-.14.75-.45,1.06-.69.48-1.1.47c-.41,0-.79-.18-1.13-.53ZM446.55,902.63c.42.42.92.35,1.49-.21.27-.27.42-.53.45-.79.03-.26-.06-.49-.27-.71-.21-.21-.44-.3-.69-.27-.25.03-.52.18-.79.46-.27.27-.43.54-.46.8-.03.26.06.5.28.72ZM448.1,898.35c-.16-.16-.29-.34-.39-.55-.11-.21-.19-.44-.26-.69h-.12s-.04-.53-.04-.53c.11.24.27.5.47.79.21.29.42.54.64.77s.47.42.75.58.54.28.81.33l-.52.1.02-.13c-.26-.05-.51-.12-.74-.23-.23-.11-.44-.25-.63-.44Z" fill="#0d1a1e" />
  </g>
  <g opacity=".3">
    <circle cx="831.09" cy="868.42" r="29.15" fill="#7d746a" stroke="#0d1a1e" stroke-miterlimit="10" stroke-width=".5" />
    <circle cx="669.15" cy="868.42" r="28.6" fill="#7d746a" stroke="#0d1a1e" stroke-miterlimit="10" stroke-width=".5" />
    <circle cx="592.16" cy="868.42" r="12.05" fill="#7d746a" stroke="#0d1a1e" stroke-miterlimit="10" stroke-width=".5" />
    <circle cx="519.63" cy="868.42" r="9.29" fill="#7d746a" stroke="#0d1a1e" stroke-miterlimit="10" stroke-width=".5" />
    <circle cx="448.15" cy="868.42" r="7.54" fill="#7d746a" stroke="#0d1a1e" stroke-miterlimit="10" stroke-width=".5" />
  </g>
  <circle cx="750.06" cy="868.42" r="28.92" fill="#b4822e" stroke="#0d1a1e" stroke-miterlimit="10" stroke-width=".5" />
  <g id="links">
    <path d="M639.62,651.48c0,172.81,191.47,44.14,191.47,216.94" fill="none" stroke="#0d1a1e" stroke-width=".25" />
    <path d="M639.62,651.48c0,172.81,110.44,44.14,110.44,216.94" fill="none" stroke="#0d1a1e" stroke-width=".25" />
    <path d="M639.62,651.48c0,172.81,29.53,44.14,29.53,216.94" fill="none" stroke="#0d1a1e" stroke-width=".25" />
    <path d="M639.62,651.48c0,172.81-47.47,44.14-47.47,216.94" fill="none" stroke="#0d1a1e" stroke-width=".25" />
    <path d="M639.62,651.48c0,172.81-119.99,44.14-119.99,216.94" fill="none" stroke="#0d1a1e" stroke-width=".25" />
    <path d="M639.62,651.48c0,172.81-191.47,44.14-191.47,216.94" fill="none" stroke="#0d1a1e" stroke-width=".25" />
  </g>
</svg>